<svg xmlns="http://www.w3.org/2000/svg" height="40px" viewBox="0 -960 960 960" width="40px" fill="#067879"><path d="M371.85-401.54 480-467.15l108.15 65.61-28.69-123 95.92-82.69-126.23-10.62L480-733.84l-49.15 115.99-126.23 10.62 95.92 82.69-28.69 123ZM100-118.46v-678.97q0-25.79 18.39-44.18T162.57-860h634.86q25.79 0 44.18 18.39T860-797.43v474.86q0 25.79-18.39 44.18T797.43-260H241.54L100-118.46Zm119.8-191.8h577.63q4.62 0 8.47-3.84 3.84-3.85 3.84-8.47v-474.86q0-4.62-3.84-8.47-3.85-3.84-8.47-3.84H162.57q-4.62 0-8.47 3.84-3.84 3.85-3.84 8.47v559.48l69.54-72.31Zm-69.54 0v-499.48 499.48Z"/></svg>