<?xml version="1.0" standalone="no"?>
<!DOCTYPE svg PUBLIC "-//W3C//DTD SVG 20010904//EN"
 "http://www.w3.org/TR/2001/REC-SVG-20010904/DTD/svg10.dtd">
<svg version="1.0" xmlns="http://www.w3.org/2000/svg"
 width="512.000000pt" height="512.000000pt" viewBox="0 0 512.000000 512.000000"
 preserveAspectRatio="xMidYMid meet">
<metadata>
Created by potrace 1.16, written by Peter Selinger 2001-2019
</metadata>
<g transform="translate(0.000000,512.000000) scale(0.100000,-0.100000)"
fill="#000000" stroke="none">
<path d="M2500 5100 c-16 -16 -20 -33 -20 -80 l0 -60 -40 0 c-53 0 -80 -27
-80 -80 0 -53 27 -80 80 -80 l40 0 0 -80 0 -80 -84 0 c-121 0 -124 -3 -145
-168 -10 -73 -20 -134 -22 -136 -3 -3 -52 -27 -110 -54 -156 -73 -168 -101
-94 -219 89 -144 162 -312 195 -450 10 -45 10 -55 -4 -75 -32 -45 -14 -123 32
-139 6 -2 14 -39 18 -81 6 -68 5 -78 -10 -78 -9 0 -25 -9 -36 -20 -38 -38 -20
-124 28 -141 16 -6 -22 -189 -64 -312 -60 -173 -154 -345 -275 -505 -35 -47
-49 -74 -49 -98 0 -18 25 -97 55 -177 30 -79 55 -148 55 -153 0 -5 -29 -39
-65 -74 l-65 -64 0 -148 c0 -135 2 -150 20 -168 20 -20 33 -20 700 -20 667 0
680 0 700 20 18 18 20 33 20 168 l0 148 -65 64 c-36 35 -65 69 -65 74 0 5 25
74 55 152 30 79 55 158 55 176 0 26 -16 55 -66 123 -166 226 -271 456 -320
699 -14 72 -15 91 -4 94 50 17 69 103 30 142 -11 11 -27 20 -35 20 -12 0 -15
15 -15 75 0 72 1 75 29 89 16 9 31 23 35 31 12 34 6 85 -14 105 -19 19 -19 20
1 92 42 156 98 282 188 423 81 126 70 153 -88 227 -58 28 -108 52 -110 54 -2
2 -12 63 -22 136 -21 165 -24 168 -145 168 l-84 0 0 80 0 80 40 0 c27 0 47 7
60 20 13 13 20 33 20 60 0 27 -7 47 -20 60 -13 13 -33 20 -60 20 l-40 0 0 60
c0 75 -20 100 -80 100 -27 0 -47 -7 -60 -20z m210 -727 c7 -60 16 -118 21
-130 6 -15 40 -38 102 -69 l93 -47 -53 -106 c-62 -124 -105 -240 -137 -366
l-23 -90 -153 0 -153 0 -23 90 c-32 127 -79 252 -139 370 l-52 102 74 37 c63
31 83 36 143 36 86 0 110 18 110 80 0 52 -27 80 -76 80 l-37 0 7 38 c3 20 6
47 6 60 0 22 2 22 139 22 l138 0 13 -107z m-24 -1025 c-3 -29 -6 -65 -6 -80
l0 -28 -120 0 -120 0 0 28 c0 15 -3 51 -6 80 l-7 52 133 0 133 0 -7 -52z m8
-295 c3 -16 8 -48 11 -73 29 -202 137 -481 261 -672 l44 -68 -85 0 c-102 0
-125 -15 -125 -80 0 -68 21 -80 145 -80 58 0 105 -3 105 -7 0 -5 -14 -47 -32
-95 l-33 -88 -425 0 -425 0 -33 88 c-18 48 -32 90 -32 95 0 4 47 7 105 7 124
0 145 12 145 80 0 65 -23 80 -125 80 l-85 0 45 70 c125 195 231 468 260 670 3
25 8 57 11 73 l6 27 128 0 128 0 6 -27z m372 -1384 c51 -49 54 -55 54 -100 l0
-49 -560 0 -560 0 0 49 c0 47 3 51 56 100 l56 51 449 0 450 0 55 -51z"/>
<path d="M2500 2220 c-13 -13 -20 -33 -20 -60 0 -27 7 -47 20 -60 13 -13 33
-20 60 -20 53 0 80 27 80 80 0 27 -7 47 -20 60 -13 13 -33 20 -60 20 -27 0
-47 -7 -60 -20z"/>
<path d="M990 2094 c-531 -300 -971 -553 -977 -562 -17 -21 -17 -83 -1 -104 7
-9 573 -333 1258 -720 1137 -642 1249 -703 1290 -703 41 0 153 61 1290 703
685 387 1251 710 1258 719 16 22 16 84 0 106 -15 19 -1947 1111 -1954 1104 -7
-7 87 -168 148 -253 31 -43 59 -73 68 -72 8 2 63 -24 122 -58 l107 -60 -99
-54 -99 -55 -41 -108 -42 -108 39 -44 c69 -79 90 -100 114 -116 l23 -16 -28
-15 -29 -15 2 -94 c1 -51 4 -95 5 -97 2 -1 51 24 110 58 58 33 108 60 111 60
2 0 50 -28 105 -62 l101 -61 -166 -94 -166 -94 -61 37 c-47 29 -63 34 -66 23
-3 -8 -29 -38 -58 -66 l-53 -53 29 -15 c17 -9 30 -19 30 -23 0 -4 -74 -48
-163 -98 l-162 -90 -97 59 c-54 33 -98 63 -98 67 0 3 28 22 61 41 l61 34 -146
3 c-80 1 -212 1 -293 0 l-148 -3 57 -35 57 -35 -165 -94 -166 -93 -103 63
-104 62 117 66 117 66 -165 6 c-154 6 -167 5 -201 -14 l-36 -21 -103 64 -102
63 61 34 c53 31 60 38 55 59 -3 13 -9 54 -12 93 l-7 69 -128 -74 c-71 -41
-132 -74 -137 -74 -12 0 -191 112 -187 117 6 5 319 183 323 183 2 0 33 -18 68
-39 62 -39 64 -39 70 -18 3 12 6 32 6 44 0 36 42 114 79 148 l34 32 -27 71
c-15 40 -30 72 -32 72 -3 0 -47 -24 -98 -54 l-94 -54 -132 80 -131 81 166 94
167 94 39 -25 c21 -14 41 -26 43 -26 2 0 9 15 15 33 6 18 42 75 81 127 58 79
170 261 170 276 0 2 -3 4 -7 3 -5 0 -442 -245 -973 -545z m2982 -110 c14 -7
-15 -27 -138 -97 -85 -48 -159 -87 -165 -87 -14 0 -199 112 -199 120 0 3 69
43 153 91 l152 85 90 -51 c50 -29 98 -56 107 -61z m-2720 -101 c70 -43 126
-78 125 -79 -19 -16 -330 -185 -335 -182 -4 2 -63 37 -130 78 -75 45 -118 78
-113 83 14 14 304 177 316 177 5 0 67 -35 137 -77z m3025 -71 l101 -58 -163
-92 c-90 -51 -168 -92 -173 -92 -5 0 -53 27 -107 59 -95 59 -96 60 -73 74 59
38 293 167 303 167 5 0 56 -26 112 -58z m-3536 -209 c71 -43 129 -80 129 -83
0 -9 -322 -185 -340 -185 -17 0 -269 136 -269 145 0 4 337 198 348 199 2 1 61
-34 132 -76z m3970 -35 c82 -46 148 -85 148 -88 0 -3 -79 -49 -175 -103 l-175
-98 -145 88 c-79 48 -144 91 -144 94 0 7 321 189 334 189 5 0 76 -37 157 -82z
m-3481 -269 c0 -5 -295 -175 -316 -181 -13 -4 -206 103 -199 111 3 2 78 46
167 96 l162 92 93 -56 c51 -31 92 -59 93 -62z m2963 -30 c79 -48 133 -87 128
-92 -5 -5 -78 -48 -163 -96 l-154 -87 -115 71 c-63 38 -130 79 -148 91 l-33
21 159 91 c87 50 165 89 174 88 9 -2 77 -41 152 -87z m-2686 -135 c51 -31 93
-60 93 -65 0 -4 -68 -46 -152 -93 l-152 -85 -31 18 c-16 10 -63 37 -103 61
-41 23 -72 43 -70 45 10 10 304 175 312 175 5 0 52 -25 103 -56z m2196 -158
c70 -43 127 -80 125 -81 -2 -1 -76 -44 -166 -94 l-162 -91 -145 87 c-79 49
-145 90 -145 93 0 3 73 46 163 97 143 81 164 90 182 79 11 -7 78 -47 148 -90z
m-942 -17 c88 -54 98 -63 82 -74 -10 -6 -84 -49 -164 -94 l-147 -82 -102 62
c-55 33 -99 63 -97 66 9 8 312 181 320 182 5 1 53 -27 108 -60z m-877 -56 c53
-32 96 -60 96 -63 0 -5 -266 -156 -286 -162 -10 -3 -200 98 -209 111 -4 8 273
170 292 171 6 0 55 -26 107 -57z m1298 -202 c76 -46 135 -87 133 -91 -6 -10
-309 -180 -320 -180 -20 0 -293 175 -282 182 7 3 80 45 162 92 83 48 155 85
160 84 6 -2 72 -41 147 -87z m-832 -90 c0 -3 -61 -41 -136 -83 l-135 -77 -100
56 c-55 31 -102 59 -104 63 -2 4 60 43 138 87 l141 80 98 -60 c54 -33 98 -62
98 -66z m343 -204 c71 -43 127 -80 125 -82 -2 -1 -60 -35 -131 -74 l-127 -72
-138 77 c-75 43 -143 82 -150 89 -9 8 18 28 120 86 109 62 137 74 153 66 11
-6 78 -46 148 -90z"/>
</g>
</svg>
