<?xml version="1.0" standalone="no"?>
<!DOCTYPE svg PUBLIC "-//W3C//DTD SVG 20010904//EN"
 "http://www.w3.org/TR/2001/REC-SVG-20010904/DTD/svg10.dtd">
<svg version="1.0" xmlns="http://www.w3.org/2000/svg"
 width="512.000000pt" height="512.000000pt" viewBox="0 0 512.000000 512.000000"
 preserveAspectRatio="xMidYMid meet">

<g transform="translate(0.000000,512.000000) scale(0.100000,-0.100000)"
fill="#000000" stroke="none">
<path d="M1010 5025 c-157 -25 -331 -91 -456 -170 -69 -44 -253 -187 -254
-197 0 -4 52 -93 115 -198 l114 -190 -50 -70 c-35 -48 -105 -187 -230 -456
l-179 -388 151 -253 c126 -211 154 -251 168 -244 9 5 165 102 346 215 255 160
336 206 362 206 20 0 33 -5 33 -12 0 -7 11 -110 25 -228 31 -270 31 -255 -4
-269 -23 -10 -38 -9 -92 9 -153 52 -318 -18 -389 -165 -32 -68 -35 -189 -4
-255 l21 -45 -30 -40 c-16 -22 -38 -59 -49 -82 -13 -29 -25 -43 -38 -43 -75 0
-213 -96 -265 -184 -20 -34 -85 -247 -85 -278 0 -5 77 -8 170 -8 l170 0 0
-240 0 -240 -240 0 -240 0 0 -560 0 -560 2480 0 2480 0 0 560 0 560 -480 0
-480 0 0 103 c0 56 -7 142 -16 190 l-16 88 44 47 c80 85 131 195 144 312 l7
60 -81 0 -80 0 -7 -55 c-9 -72 -55 -164 -112 -220 -83 -81 -117 -92 -466 -146
-171 -27 -322 -49 -334 -49 -42 0 -145 173 -178 299 -9 36 -19 95 -22 132 l-6
67 119 60 c173 88 199 120 229 292 19 111 40 156 95 202 45 39 97 58 159 58
l41 0 0 -82 c1 -155 46 -229 203 -336 58 -40 111 -72 117 -72 6 0 59 32 117
72 146 99 189 162 200 292 l6 70 29 -34 c15 -19 38 -59 49 -90 52 -138 113
-209 227 -263 l67 -32 213 -3 212 -4 0 81 0 81 -181 0 c-219 0 -246 6 -314 75
-39 39 -56 68 -78 128 -36 98 -108 180 -202 228 -36 19 -68 42 -70 51 -10 28
-87 99 -140 126 -42 22 -63 27 -130 27 -112 0 -191 -39 -261 -128 -18 -22 -29
-25 -116 -29 -80 -4 -107 -10 -161 -36 -130 -60 -202 -158 -232 -312 -29 -154
-30 -157 -85 -185 -27 -14 -51 -25 -53 -25 -3 0 -14 23 -26 50 -14 33 -25 88
-31 155 -11 121 -22 171 -56 237 -13 26 -24 51 -24 56 0 4 17 18 38 30 44 25
120 102 150 153 22 37 52 138 52 176 0 22 -3 23 -79 23 l-78 0 -7 -42 c-10
-59 -49 -123 -97 -158 -22 -16 -84 -43 -137 -61 -177 -58 -224 -91 -323 -220
-32 -42 -75 -90 -94 -107 -60 -48 -145 -65 -215 -41 l-32 12 116 116 c64 64
116 121 116 127 0 12 -92 104 -105 104 -5 0 -62 -52 -126 -116 l-116 -116 -12
32 c-6 18 -11 84 -11 145 0 129 -2 125 100 200 95 70 118 93 162 159 47 73 72
151 88 276 15 116 35 164 95 229 61 65 126 93 234 99 l83 5 88 118 c49 65 91
127 95 138 3 12 12 21 18 21 31 -2 232 -87 235 -101 2 -10 -17 -19 -66 -32
-82 -21 -158 -70 -206 -133 -20 -26 -36 -50 -36 -54 0 -3 31 -21 68 -39 l68
-33 44 45 c54 54 102 69 200 65 l69 -3 -16 -32 c-31 -65 -113 -122 -175 -123
l-28 0 0 -81 0 -82 53 7 c28 3 61 9 73 12 16 4 30 -8 68 -56 92 -117 233 -212
381 -256 55 -16 121 -18 743 -21 l682 -4 0 81 0 80 -648 0 c-614 0 -653 1
-726 20 -43 11 -100 32 -129 47 -59 32 -148 111 -188 167 l-28 38 23 32 c40
53 58 97 87 211 16 61 29 113 29 118 0 4 -40 7 -90 7 l-90 0 0 74 c0 210 -94
465 -196 536 -79 53 -198 29 -251 -51 -20 -31 -28 -58 -34 -129 -11 -113 -46
-216 -103 -300 -79 -115 -95 -129 -150 -132 l-49 -3 -68 145 c-149 317 -170
359 -218 433 -169 259 -458 454 -773 523 -101 22 -322 27 -428 9z m70 -162 c0
-13 -102 -315 -105 -311 -1 2 -32 62 -69 135 l-66 132 57 16 c103 30 183 42
183 28z m400 -23 c64 -17 171 -61 168 -69 -11 -26 -124 -211 -129 -211 -4 0
-9 20 -13 45 -7 54 -49 164 -83 218 -21 34 -22 38 -6 33 10 -2 38 -10 63 -16z
m-176 -135 c33 -65 56 -156 56 -221 l0 -52 73 -40 c149 -83 262 -198 336 -341
21 -42 98 -231 171 -420 105 -275 130 -349 122 -365 -18 -39 -64 -87 -142
-146 -149 -113 -164 -148 -158 -357 3 -130 5 -142 35 -205 44 -93 100 -151
191 -196 72 -35 81 -37 171 -37 87 0 102 3 161 31 85 40 117 68 200 176 75 99
125 140 174 142 29 1 33 -4 64 -64 28 -56 34 -82 42 -175 8 -105 25 -177 57
-238 8 -16 13 -30 11 -32 -2 -1 -18 -10 -37 -20 l-34 -17 6 -126 c6 -159 30
-255 97 -387 59 -118 163 -248 201 -253 32 -4 668 94 738 114 37 11 57 12 64
5 6 -6 12 -71 15 -146 l5 -135 -512 0 -512 0 -43 30 c-58 39 -132 123 -162
182 -33 66 -54 159 -54 248 0 236 -145 427 -365 485 -207 54 -438 -50 -537
-241 -28 -55 -37 -64 -61 -64 -37 0 -57 35 -108 190 -23 69 -50 142 -61 163
l-19 38 26 31 c14 17 38 54 53 82 22 43 26 64 27 136 0 79 -2 89 -36 150 -39
72 -104 129 -171 151 -22 7 -42 18 -44 23 -2 9 -54 455 -54 471 0 2 26 9 58
15 76 16 150 52 205 100 49 43 102 119 112 161 6 25 3 28 -56 48 -78 26 -86
26 -94 0 -11 -33 -84 -108 -130 -132 -34 -18 -64 -22 -205 -27 -111 -4 -173
-10 -190 -20 -14 -7 -143 -87 -286 -177 -144 -89 -266 -163 -272 -163 -14 0
-176 270 -175 290 3 29 313 685 350 738 53 77 161 173 245 218 40 21 113 50
162 64 l90 26 65 197 66 197 22 -28 c12 -15 33 -49 47 -77z m-545 -82 c57
-115 61 -129 46 -138 -9 -5 -46 -29 -82 -52 -36 -24 -69 -43 -73 -43 -13 0
-141 222 -136 235 4 11 164 124 176 125 3 0 34 -57 69 -127z m1126 -1 c44 -38
92 -85 108 -105 l27 -36 -87 -72 c-49 -40 -98 -81 -110 -92 l-23 -20 -78 76
-79 76 71 120 c39 66 76 121 81 121 6 0 46 -31 90 -68z m1158 -302 c32 -64 70
-179 62 -188 -1 -1 -39 12 -84 30 -78 30 -82 33 -78 57 3 14 8 55 12 91 4 36
8 71 11 78 9 31 41 3 77 -68z m-862 -108 l58 -122 -128 -65 -129 -64 -17 47
c-10 26 -30 72 -45 102 l-28 55 102 87 c55 48 107 86 115 85 8 -1 40 -57 72
-125z m146 -316 l22 -44 -44 -31 c-59 -42 -107 -103 -144 -181 -24 -51 -32
-60 -37 -44 -4 10 -24 63 -45 117 l-38 98 127 64 c70 35 129 64 133 64 3 1 15
-19 26 -43z m1681 -1123 c60 -45 67 -65 67 -188 0 -133 -6 -145 -98 -209 l-57
-40 -57 40 c-85 59 -97 80 -102 180 -1 47 0 100 3 119 8 42 49 93 91 111 40
19 120 12 153 -13z m-2994 -143 c14 -5 43 -26 65 -46 l41 -36 46 41 c76 67
160 68 225 2 58 -57 65 -150 16 -207 l-22 -26 -53 35 c-139 94 -317 111 -470
46 -52 -22 -62 -16 -62 38 0 111 112 192 214 153z m178 -337 c58 -26 133 -95
160 -146 11 -22 40 -98 64 -169 25 -72 54 -148 65 -170 l20 -39 -30 -35 c-17
-19 -38 -48 -46 -65 -14 -26 -85 -279 -85 -301 0 -5 90 -8 200 -8 l200 0 99
-50 c64 -31 107 -60 121 -80 l21 -30 -630 0 -631 0 0 413 c0 457 2 474 63 563
38 56 109 108 176 129 62 20 173 14 233 -12z m1119 -334 c67 -36 98 -69 136
-142 21 -42 26 -72 33 -178 7 -94 16 -148 35 -205 26 -78 81 -180 110 -204 8
-7 15 -16 15 -21 0 -5 -109 -9 -242 -9 l-243 0 -27 58 c-37 79 -95 133 -200
188 l-90 46 4 137 c5 156 21 205 93 276 100 100 249 121 376 54z m-1751 -49
l0 -70 -71 0 -70 0 23 42 c21 37 88 98 110 98 4 0 8 -31 8 -70z m1117 -387
c-3 -2 -34 -3 -70 -1 l-65 3 13 38 c16 47 50 85 90 102 l30 13 3 -75 c2 -42 1
-77 -1 -80z m-1277 -883 l0 -400 -80 0 -80 0 0 400 0 400 80 0 80 0 0 -400z
m480 240 l0 -160 -160 0 -160 0 0 160 0 160 160 0 160 0 0 -160z m320 -240 l0
-400 -80 0 -80 0 0 400 0 400 80 0 80 0 0 -400z m480 240 l0 -160 -160 0 -160
0 0 160 0 160 160 0 160 0 0 -160z m320 -240 l0 -400 -80 0 -80 0 0 400 0 400
80 0 80 0 0 -400z m480 240 l0 -160 -160 0 -160 0 0 160 0 160 160 0 160 0 0
-160z m320 -240 l0 -400 -80 0 -80 0 0 400 0 400 80 0 80 0 0 -400z m480 240
l0 -160 -160 0 -160 0 0 160 0 160 160 0 160 0 0 -160z m320 -240 l0 -400 -80
0 -80 0 0 400 0 400 80 0 80 0 0 -400z m480 240 l0 -160 -160 0 -160 0 0 160
0 160 160 0 160 0 0 -160z m320 -240 l0 -400 -80 0 -80 0 0 400 0 400 80 0 80
0 0 -400z m480 240 l0 -160 -160 0 -160 0 0 160 0 160 160 0 160 0 0 -160z
m-4000 -480 l0 -160 -160 0 -160 0 0 160 0 160 160 0 160 0 0 -160z m800 0 l0
-160 -160 0 -160 0 0 160 0 160 160 0 160 0 0 -160z m800 0 l0 -160 -160 0
-160 0 0 160 0 160 160 0 160 0 0 -160z m800 0 l0 -160 -160 0 -160 0 0 160 0
160 160 0 160 0 0 -160z m800 0 l0 -160 -160 0 -160 0 0 160 0 160 160 0 160
0 0 -160z m800 0 l0 -160 -160 0 -160 0 0 160 0 160 160 0 160 0 0 -160z"/>
<path d="M905 4055 c-50 -49 -15 -135 55 -135 41 0 80 39 80 80 0 41 -39 80
-80 80 -19 0 -40 -9 -55 -25z"/>
<path d="M905 2135 c-16 -15 -25 -36 -25 -55 0 -19 9 -40 25 -55 15 -16 36
-25 55 -25 19 0 40 9 55 25 16 15 25 36 25 55 0 19 -9 40 -25 55 -15 16 -36
25 -55 25 -19 0 -40 -9 -55 -25z"/>
<path d="M880 1520 l0 -160 80 0 80 0 0 160 0 160 -80 0 -80 0 0 -160z"/>
<path d="M2025 1815 c-50 -49 -15 -135 55 -135 19 0 40 9 55 25 16 15 25 36
25 55 0 19 -9 40 -25 55 -15 16 -36 25 -55 25 -19 0 -40 -9 -55 -25z"/>
<path d="M2505 3415 c-50 -49 -15 -135 55 -135 19 0 40 9 55 25 16 15 25 36
25 55 0 19 -9 40 -25 55 -15 16 -36 25 -55 25 -19 0 -40 -9 -55 -25z"/>
<path d="M3465 2295 c-50 -49 -15 -135 55 -135 41 0 80 39 80 80 0 41 -39 80
-80 80 -19 0 -40 -9 -55 -25z"/>
</g>
</svg>
