<?xml version="1.0" standalone="no"?>
<!DOCTYPE svg PUBLIC "-//W3C//DTD SVG 20010904//EN"
 "http://www.w3.org/TR/2001/REC-SVG-20010904/DTD/svg10.dtd">
<svg version="1.0" xmlns="http://www.w3.org/2000/svg"
 width="512.000000pt" height="512.000000pt" viewBox="0 0 512.000000 512.000000"
 preserveAspectRatio="xMidYMid meet">

<g transform="translate(0.000000,512.000000) scale(0.100000,-0.100000)"
fill="#000000" stroke="none">
<path d="M545 5106 c-243 -56 -435 -230 -511 -462 -25 -78 -29 -104 -29 -209
0 -105 4 -131 29 -209 52 -159 60 -168 852 -957 584 -581 747 -738 821 -789
51 -36 89 -68 85 -74 -3 -6 -62 -94 -130 -196 l-125 -185 -584 -586 -584 -586
-55 14 c-131 34 -269 -49 -305 -181 -16 -58 -5 -139 25 -189 31 -53 430 -449
475 -472 44 -22 126 -30 177 -16 132 36 215 174 181 305 l-14 55 581 580 581
580 273 185 273 185 267 -181 267 -181 586 -584 586 -584 -14 -55 c-34 -131
49 -269 181 -305 58 -16 139 -5 189 25 53 31 449 430 472 475 22 44 30 126 16
177 -36 132 -174 215 -305 181 l-55 -14 -584 586 -584 586 -125 185 c-68 102
-127 190 -130 196 -4 6 34 38 85 74 74 51 236 207 825 794 791 789 793 791
848 951 25 72 28 94 28 210 0 116 -3 138 -28 210 -72 210 -231 368 -441 441
-71 25 -94 28 -210 28 -116 0 -139 -3 -210 -28 -140 -48 -181 -81 -456 -354
l-257 -254 -37 73 c-72 145 -172 265 -297 359 -366 276 -870 276 -1237 0 -127
-96 -222 -212 -297 -361 l-36 -71 -257 254 c-275 274 -317 307 -456 353 -98
34 -256 43 -350 21z m253 -171 c134 -32 164 -55 466 -355 l280 -278 1 -189 c0
-163 3 -199 23 -273 50 -184 181 -398 316 -513 84 -72 219 -153 307 -184 45
-16 77 -33 75 -39 -2 -6 -86 -131 -186 -278 l-182 -267 -31 20 c-111 70 -225
178 -879 831 -790 789 -768 763 -803 912 -85 361 252 698 613 613z m1976 -16
c99 -24 221 -83 310 -150 170 -130 308 -375 318 -569 l3 -54 -50 -8 c-28 -4
-79 -16 -115 -27 l-64 -20 -22 24 c-17 18 -34 25 -60 25 -53 0 -84 -31 -85
-84 0 -39 -3 -43 -72 -91 -69 -48 -73 -50 -100 -37 -74 36 -146 -45 -107 -119
9 -15 4 -29 -28 -71 -21 -29 -43 -62 -49 -73 -8 -14 -22 -19 -52 -20 -79 -2
-114 -83 -61 -139 l23 -26 -21 -72 c-11 -40 -24 -93 -27 -117 l-7 -44 -62 6
c-193 18 -416 143 -546 304 -101 125 -177 308 -183 434 l-2 51 85 18 c47 10
98 23 113 29 25 10 33 8 59 -14 60 -51 138 -16 138 62 0 37 4 42 73 89 66 46
74 49 97 37 37 -19 55 -16 89 13 33 27 41 67 21 105 -9 15 -2 32 40 91 49 70
53 73 92 74 32 0 46 6 64 28 13 15 24 36 24 47 0 26 -26 76 -42 81 -10 4 -9
17 4 59 9 30 22 84 29 120 l12 67 41 -5 c23 -3 77 -13 120 -24z m1767 17 c192
-41 348 -195 394 -388 28 -118 13 -233 -46 -351 -27 -54 -116 -147 -727 -760
-384 -384 -726 -722 -762 -751 -47 -39 -1333 -921 -1426 -978 -6 -4 -70 52
-142 125 l-131 132 377 554 377 553 115 3 c63 2 151 11 194 20 424 89 738 419
806 848 8 50 11 128 7 216 l-5 139 281 280 c235 233 293 285 345 311 116 58
221 72 343 47z m-2107 -23 c-3 -16 -12 -51 -20 -80 -13 -47 -17 -52 -42 -51
-63 2 -105 -56 -82 -111 6 -16 18 -32 26 -35 11 -4 6 -18 -22 -60 -31 -47 -39
-54 -55 -46 -36 20 -76 12 -104 -22 -26 -31 -27 -40 -10 -93 4 -16 -4 -27 -44
-53 l-49 -34 -21 21 c-26 26 -81 28 -111 3 -13 -10 -23 -33 -27 -59 l-5 -41
-70 -17 c-38 -10 -72 -15 -75 -12 -12 12 28 152 67 235 108 230 305 395 552
461 98 26 100 26 92 -6z m962 -980 c-10 -57 -46 -162 -74 -218 -55 -112 -173
-249 -273 -316 -107 -73 -286 -145 -342 -137 l-24 3 16 70 16 70 44 6 c72 9
97 63 61 128 l-23 39 33 46 c27 37 36 43 51 36 28 -16 64 -12 92 10 31 24 40
60 26 96 -9 24 -7 31 13 46 39 32 80 50 87 40 10 -15 48 -32 71 -32 33 0 80
53 80 89 0 27 4 31 43 41 23 6 47 13 52 15 6 2 21 4 34 4 21 1 23 -2 17 -36z
m-92 -1798 l115 -170 -132 -132 c-116 -117 -133 -131 -149 -120 -10 6 -108 73
-218 147 -110 74 -198 139 -197 143 4 14 452 315 459 308 4 -3 59 -83 122
-176z m-1589 -425 l120 -120 -63 -62 -62 -63 -122 122 -123 123 60 60 c33 33
62 60 65 60 3 0 59 -54 125 -120z m1880 60 l60 -60 -123 -123 -122 -122 -62
63 -63 62 120 120 c66 66 122 120 125 120 3 0 32 -27 65 -60z m-2065 -485
l-60 -60 -122 122 -123 123 60 60 60 60 122 -122 123 -123 -60 -60z m2243 63
l-123 -123 -60 60 -60 60 122 122 123 123 60 -60 60 -60 -122 -122z m-2546
-120 c62 -62 113 -117 113 -123 0 -13 -102 -115 -115 -115 -13 0 -235 221
-235 235 0 13 102 115 115 115 5 0 60 -51 122 -112z m2850 60 c29 -29 53 -57
53 -63 0 -13 -221 -235 -235 -235 -13 0 -115 102 -115 115 0 13 221 235 235
235 5 0 33 -23 62 -52z m-3092 -308 l120 -120 -60 -60 -60 -60 -122 122 -123
123 57 57 c32 32 60 58 63 58 3 0 59 -54 125 -120z m3338 62 l57 -57 -123
-123 -122 -122 -60 60 -60 60 120 120 c66 66 122 120 125 120 3 0 31 -26 63
-58z m-3578 -302 l120 -120 -63 -62 -62 -63 -122 122 -123 123 60 60 c33 33
62 60 65 60 3 0 59 -54 125 -120z m3820 60 l60 -60 -123 -123 -122 -122 -62
63 -63 62 120 120 c66 66 122 120 125 120 3 0 32 -27 65 -60z m-4072 -298
c109 -109 203 -207 208 -220 11 -29 -11 -86 -39 -101 -54 -29 -66 -21 -279
191 -129 129 -204 211 -208 228 -3 15 -1 39 5 54 11 30 64 58 95 50 11 -3 109
-94 218 -202z m4402 194 c38 -16 55 -42 55 -82 0 -23 -37 -65 -202 -231 -129
-129 -211 -204 -228 -208 -62 -14 -123 51 -101 107 5 13 99 111 208 219 168
167 206 201 231 208 1 1 18 -5 37 -13z"/>
</g>
</svg>
