<?xml version="1.0" standalone="no"?>
<!DOCTYPE svg PUBLIC "-//W3C//DTD SVG 20010904//EN"
 "http://www.w3.org/TR/2001/REC-SVG-20010904/DTD/svg10.dtd">
<svg version="1.0" xmlns="http://www.w3.org/2000/svg"
 width="512.000000pt" height="512.000000pt" viewBox="0 0 512.000000 512.000000"
 preserveAspectRatio="xMidYMid meet">

<g transform="translate(0.000000,512.000000) scale(0.100000,-0.100000)"
fill="#000000" stroke="none">
<path d="M1725 5106 c-41 -19 -83 -66 -95 -107 -6 -19 -10 -193 -10 -409 0
-420 5 -465 65 -586 19 -39 53 -91 76 -117 l41 -47 -749 0 c-830 0 -802 2
-880 -65 -23 -20 -50 -56 -62 -86 -21 -48 -22 -63 -19 -258 l3 -206 31 -66
c52 -110 140 -192 247 -229 l52 -18 3 -1156 2 -1156 -98 0 c-120 0 -184 -17
-240 -66 -71 -60 -86 -100 -90 -242 -5 -152 1 -183 41 -229 60 -68 -144 -63
2517 -63 2661 0 2457 -5 2517 63 40 46 46 77 41 229 -4 142 -19 182 -90 242
-56 49 -120 66 -240 66 l-98 0 2 1156 3 1156 52 18 c107 37 195 119 247 229
l31 66 3 206 c3 195 2 210 -19 258 -12 30 -39 66 -62 86 -78 67 -50 65 -880
65 l-749 0 39 44 c53 60 93 136 119 226 l22 74 72 12 c163 28 281 117 350 267
92 200 89 319 -12 413 -65 62 -89 68 -255 72 l-151 4 -11 41 c-11 46 -59 99
-104 116 -46 18 -1623 14 -1662 -3z m1605 -286 l0 -130 -488 0 -489 0 -20 -22
c-29 -32 -34 -53 -21 -88 20 -60 20 -60 544 -60 l476 0 -4 -172 c-4 -149 -8
-181 -27 -231 -42 -108 -138 -204 -248 -249 -58 -23 -60 -23 -493 -23 -434 0
-435 0 -493 24 -110 44 -206 140 -248 248 -19 50 -23 82 -27 231 l-4 172 140
0 c137 0 141 1 171 26 40 33 43 83 6 119 -23 24 -28 25 -170 25 l-145 0 0 130
0 130 770 0 770 0 0 -130z m453 -60 c37 -29 41 -65 16 -140 -32 -97 -64 -154
-109 -192 -40 -35 -121 -68 -166 -68 l-24 0 0 210 0 210 129 0 c113 0 131 -2
154 -20z m1058 -1119 c17 -21 19 -41 19 -195 0 -158 -2 -175 -24 -222 -39 -84
-144 -154 -231 -154 -62 0 -128 32 -189 92 -67 67 -89 78 -147 78 -56 0 -97
-21 -149 -75 -81 -85 -164 -110 -266 -80 -45 13 -70 29 -118 75 -66 63 -98 80
-151 80 -53 0 -83 -16 -152 -80 -102 -96 -204 -113 -314 -53 -27 14 -61 42
-75 61 -30 39 -94 71 -142 72 -49 0 -91 -22 -154 -84 -119 -115 -259 -114
-376 1 -62 61 -103 83 -154 83 -44 0 -114 -36 -143 -74 -14 -18 -47 -45 -74
-59 -108 -59 -211 -43 -309 48 -121 112 -195 112 -312 0 -121 -115 -264 -111
-380 10 -52 54 -93 75 -149 75 -57 0 -79 -11 -148 -79 -61 -59 -127 -91 -188
-91 -87 0 -192 70 -231 154 -22 47 -24 64 -24 219 0 176 5 202 43 217 13 5
987 8 2270 7 l2249 -2 19 -24z m-3839 -692 c80 -41 179 -56 260 -41 83 15 176
62 232 116 l44 44 44 -45 c53 -54 142 -99 226 -115 123 -23 271 23 364 112
l46 45 51 -47 c168 -154 414 -154 583 1 l51 47 47 -46 c160 -156 419 -156 583
-1 l53 50 45 -45 c54 -55 142 -100 227 -116 122 -23 259 20 355 111 l53 51 40
-41 c45 -47 102 -83 168 -105 l46 -16 0 -1154 0 -1154 -170 0 -170 0 0 913 0
914 -23 43 c-16 30 -37 51 -67 67 l-43 23 -461 0 c-428 0 -464 -2 -502 -19
-23 -10 -52 -34 -65 -52 l-24 -34 -3 -927 -2 -928 -831 -2 -831 -3 -24 -28
c-29 -34 -31 -76 -5 -108 l19 -24 1792 -5 1792 -5 24 -28 c22 -26 24 -37 24
-128 l0 -99 -2390 0 -2390 0 0 99 c0 91 2 102 24 128 l24 28 380 5 c356 5 381
6 401 24 13 12 21 31 21 52 0 85 -23 94 -245 94 l-175 0 0 1154 0 1154 46 16
c66 22 123 58 168 105 l39 40 46 -46 c25 -25 72 -58 103 -74z m3008 -1454 l0
-895 -425 0 -425 0 0 895 0 895 425 0 425 0 0 -895z"/>
<path d="M1032 2539 c-28 -14 -51 -36 -67 -64 l-25 -42 0 -722 c0 -587 3 -728
14 -754 17 -43 67 -84 116 -97 26 -7 275 -10 748 -8 l708 3 41 27 c82 54 78
16 81 783 2 374 0 703 -3 732 -8 64 -38 110 -90 140 l-40 23 -720 0 c-713 0
-720 0 -763 -21z m1438 -659 l0 -510 -680 0 -680 0 0 510 0 510 680 0 680 0 0
-510z m0 -775 l0 -85 -680 0 -680 0 0 85 0 85 680 0 680 0 0 -85z"/>
<path d="M1405 2201 c-56 -34 -125 -117 -125 -150 0 -45 39 -85 84 -85 31 0
45 9 101 64 53 53 65 70 65 96 0 46 -9 63 -41 79 -36 19 -48 19 -84 -4z"/>
<path d="M1845 2210 c-11 -4 -143 -131 -292 -282 -245 -246 -273 -277 -273
-306 0 -46 38 -82 87 -82 36 0 50 12 315 278 252 251 278 281 278 310 0 24 -9
42 -29 63 -30 30 -51 34 -86 19z"/>
<path d="M3695 1765 l-25 -24 0 -245 c0 -240 0 -245 23 -270 34 -38 85 -39
122 -1 l25 24 0 236 c0 286 -6 305 -91 305 -18 0 -39 -10 -54 -25z"/>
</g>
</svg>
