<?xml version="1.0" standalone="no"?>
<!DOCTYPE svg PUBLIC "-//W3C//DTD SVG 20010904//EN"
 "http://www.w3.org/TR/2001/REC-SVG-20010904/DTD/svg10.dtd">
<svg version="1.0" xmlns="http://www.w3.org/2000/svg"
 width="256.000000pt" height="256.000000pt" viewBox="0 0 256.000000 256.000000"
 preserveAspectRatio="xMidYMid meet">
<metadata>
Created by potrace 1.16, written by Peter Selinger 2001-2019
</metadata>
<g transform="translate(0.000000,256.000000) scale(0.100000,-0.100000)"
fill="#000000" stroke="none">
<path d="M2054 2545 c-4 -9 -3 -28 0 -43 27 -109 29 -128 12 -184 -35 -120
-136 -200 -252 -200 -33 0 -79 8 -103 16 -78 28 -94 -16 -35 -97 67 -92 186
-144 303 -133 259 24 395 313 252 538 -52 82 -161 145 -177 103z m133 -182
c107 -233 -125 -466 -354 -357 l-58 27 65 9 c173 24 297 151 308 316 2 34 6
62 9 62 2 0 16 -26 30 -57z"/>
<path d="M992 2512 c-33 -30 -994 -1809 -990 -1834 l3 -23 852 -5 851 -5 36
-47 c51 -67 137 -108 226 -108 88 0 149 22 209 76 66 59 95 127 95 220 0 62
-5 81 -41 156 -68 143 -220 358 -253 358 -21 0 -57 -39 -120 -129 -34 -49 -46
-59 -55 -49 -7 7 -180 323 -385 701 -206 379 -382 693 -391 698 -12 6 -23 4
-37 -9z m-23 -277 c-50 -620 -265 -1105 -599 -1350 -61 -44 -189 -114 -237
-129 -16 -5 77 173 410 787 238 437 432 794 433 793 0 0 -3 -46 -7 -101z m452
-573 c187 -342 339 -626 339 -631 0 -13 -71 -161 -77 -161 -3 0 -34 23 -70 52
-155 123 -305 345 -398 587 -72 190 -135 475 -149 676 -4 50 -9 106 -11 125
l-5 35 16 -30 c9 -16 169 -310 355 -653z m-441 -412 l0 -530 -367 0 -368 0 65
36 c291 162 521 495 637 921 15 57 29 103 31 103 1 0 2 -238 2 -530z m170 216
c109 -276 284 -516 469 -646 50 -35 61 -48 61 -71 l0 -29 -315 0 -315 0 0 528
1 527 34 -115 c18 -63 47 -151 65 -194z m927 -405 c121 -184 146 -275 101
-371 l-21 -45 -13 45 c-17 56 -45 107 -101 188 -34 47 -50 62 -69 62 -38 0
-140 -146 -169 -245 l-12 -40 -18 35 c-11 21 -19 57 -19 90 -1 70 44 168 146
316 l72 106 24 -29 c12 -15 48 -66 79 -112z m-37 -322 c16 -31 30 -70 30 -86
0 -36 -37 -79 -76 -89 -41 -11 -96 22 -110 66 -14 42 -3 75 53 159 l35 54 19
-24 c10 -13 32 -49 49 -80z"/>
<path d="M1487 578 c-25 -19 -79 -186 -67 -208 5 -10 42 -29 82 -43 42 -14 67
-27 58 -30 -8 -3 -42 -14 -75 -24 -42 -13 -61 -24 -63 -37 -6 -28 38 -178 58
-199 17 -18 26 -16 262 53 l244 72 237 -81 c130 -45 243 -81 251 -81 7 0 19 6
25 14 17 20 61 155 61 187 0 25 -6 29 -80 54 -44 15 -80 30 -80 33 0 4 29 16
65 26 88 25 92 31 70 114 -27 102 -45 142 -64 142 -9 0 -124 -32 -256 -70
l-240 -71 -233 80 c-129 45 -235 81 -236 81 -1 0 -10 -6 -19 -12z m531 -243
c508 -174 470 -155 438 -226 l-11 -25 -470 162 c-510 176 -481 161 -455 228 6
16 16 26 23 24 6 -3 220 -76 475 -163z m437 102 l13 -44 -103 -31 -103 -30
-78 28 -79 28 85 25 c47 14 121 36 165 50 44 13 81 23 83 21 2 -1 9 -22 17
-47z m-658 -211 l65 -22 -162 -48 c-90 -26 -166 -44 -170 -39 -5 4 -13 25 -18
45 l-10 37 86 26 c48 14 92 28 97 30 12 4 25 1 112 -29z"/>
<path d="M4 436 c-3 -8 -4 -23 -2 -33 3 -17 33 -18 613 -18 579 0 610 1 613
18 9 48 20 47 -620 47 -512 0 -599 -2 -604 -14z"/>
<path d="M122 288 c-18 -18 -14 -46 7 -58 26 -14 506 -14 532 0 23 13 25 55 3
64 -9 3 -131 6 -273 6 -187 0 -260 -3 -269 -12z"/>
<path d="M736 134 c-9 -8 -16 -19 -16 -24 0 -5 7 -16 16 -24 23 -24 525 -24
548 0 9 8 16 19 16 24 0 5 -7 16 -16 24 -23 24 -525 24 -548 0z"/>
</g>
</svg>
