<?xml version="1.0" standalone="no"?>
<!DOCTYPE svg PUBLIC "-//W3C//DTD SVG 20010904//EN"
 "http://www.w3.org/TR/2001/REC-SVG-20010904/DTD/svg10.dtd">
<svg version="1.0" xmlns="http://www.w3.org/2000/svg"
 width="256.000000pt" height="256.000000pt" viewBox="0 0 256.000000 256.000000"
 preserveAspectRatio="xMidYMid meet">
<metadata>
Created by potrace 1.16, written by Peter Selinger 2001-2019
</metadata>
<g transform="translate(0.000000,256.000000) scale(0.100000,-0.100000)"
fill="#000000" stroke="none">
<path d="M17 2489 c-9 -6 -17 -22 -17 -37 0 -24 11 -32 87 -72 l86 -45 34
-100 c18 -54 33 -103 33 -108 0 -13 -44 -4 -118 24 -72 27 -97 20 -97 -27 0
-26 6 -30 70 -55 59 -24 86 -28 172 -28 l101 -1 21 -62 c12 -34 21 -66 21 -70
0 -4 -18 -8 -40 -8 -34 0 -42 -4 -52 -25 -10 -21 -9 -29 6 -43 13 -14 42 -18
143 -22 l127 -5 35 -60 c21 -36 78 -103 144 -167 l110 -107 -36 -14 c-19 -9
-40 -25 -47 -36 -9 -19 -20 -21 -89 -21 -85 0 -105 -10 -99 -52 3 -22 8 -23
87 -26 78 -3 86 -5 111 -32 18 -19 42 -32 67 -36 39 -6 41 -8 58 -64 l17 -58
-77 -96 -77 -95 -36 18 c-124 63 -287 69 -415 14 -34 -15 -38 -20 -35 -47 3
-28 6 -31 38 -30 19 0 64 9 100 19 80 22 161 15 237 -20 63 -28 67 -12 -41
-148 -68 -85 -70 -87 -112 -87 -111 0 -159 -142 -73 -214 43 -37 115 -36 158
0 17 14 31 32 31 40 0 11 26 14 136 14 l137 0 -7 -41 c-17 -105 -106 -219
-214 -271 -61 -30 -76 -33 -162 -33 -86 0 -101 3 -162 32 -218 103 -294 368
-163 564 45 66 45 103 -1 107 -27 3 -35 -3 -67 -50 -73 -106 -100 -240 -74
-364 21 -96 57 -165 126 -235 l57 -59 -112 0 c-62 0 -119 -3 -128 -6 -23 -9
-21 -61 3 -74 27 -14 2495 -14 2522 0 24 13 26 65 3 74 -9 3 -67 6 -130 6
l-114 0 45 41 c55 51 100 120 126 195 23 64 19 99 -10 107 -25 6 -61 -18 -61
-41 0 -35 -61 -143 -105 -187 -25 -26 -76 -61 -113 -78 -61 -29 -76 -32 -162
-32 -86 0 -101 3 -162 33 -157 76 -250 253 -218 415 15 77 50 146 100 201 47
51 139 104 149 87 4 -6 20 -63 34 -126 l27 -114 -26 -38 c-22 -32 -25 -46 -21
-87 6 -69 47 -106 116 -106 138 0 173 181 46 235 -28 13 -32 20 -61 145 l-32
133 67 -6 c99 -8 172 -40 241 -104 57 -52 120 -154 120 -193 0 -37 55 -55 80
-25 31 37 -57 216 -143 291 -23 20 -75 52 -115 72 -65 31 -86 36 -172 40 l-98
5 -31 131 c-17 72 -34 141 -37 154 -6 21 -4 22 70 22 72 0 77 -2 86 -24 13
-35 49 -56 94 -56 33 0 45 7 77 40 l38 39 153 3 153 3 3 29 c2 16 -2 32 -10
37 -7 5 -79 9 -160 9 -143 0 -148 1 -148 21 0 11 -5 29 -10 39 -9 17 -3 24 42
55 47 31 60 35 119 35 75 0 95 13 85 55 -6 24 -8 25 -99 25 -92 0 -92 0 -157
-43 l-65 -43 -124 5 -124 6 -13 35 c-19 53 -17 76 10 94 22 14 28 14 62 0 58
-24 111 -6 133 46 9 22 26 44 39 49 35 16 47 53 34 100 -15 48 -6 98 25 134
12 16 23 34 23 40 0 7 24 27 54 45 45 26 64 32 113 32 63 0 83 11 83 45 0 32
-20 45 -67 45 l-43 0 0 44 c0 51 6 57 128 121 63 34 72 43 72 67 0 17 -7 31
-20 38 -17 9 -38 2 -125 -45 -57 -31 -111 -66 -120 -78 -10 -14 -15 -45 -15
-93 0 -72 0 -72 -36 -93 l-36 -21 -28 20 c-53 38 -111 53 -205 53 -104 0 -159
-18 -256 -84 -73 -49 -78 -75 -21 -117 31 -22 37 -32 31 -47 -4 -11 -8 -31 -8
-45 l-1 -25 -112 0 c-110 0 -113 -1 -116 -23 -6 -42 14 -52 100 -52 111 0 144
-22 172 -117 6 -19 1 -23 -48 -37 -30 -9 -59 -16 -65 -16 -7 0 -21 21 -31 46
-18 42 -22 45 -52 42 -44 -4 -47 -32 -12 -114 15 -35 25 -66 23 -68 -2 -2 -51
-17 -109 -34 l-105 -31 -109 72 -109 72 53 47 c29 25 85 63 126 83 60 29 74
40 74 58 0 27 -17 47 -41 47 -36 0 -164 -75 -226 -134 -67 -62 -163 -188 -163
-213 0 -7 -4 -13 -10 -13 -20 0 -216 200 -250 255 -64 103 -69 107 -140 114
l-63 6 -29 85 c-32 97 -51 120 -104 129 l-37 6 -46 135 -46 135 -100 52 c-112
59 -104 56 -128 42z m1973 -353 c0 -19 27 -46 45 -46 8 0 23 10 34 21 19 21
21 21 46 5 28 -18 30 -27 13 -44 -17 -17 -308 -17 -332 1 -16 11 -13 15 23 35
35 20 42 21 47 8 14 -37 84 -20 84 21 0 7 9 13 20 13 11 0 20 -6 20 -14z m86
-196 c-3 -17 -1 -41 4 -54 7 -20 5 -27 -14 -39 -12 -9 -27 -30 -32 -49 -11
-37 -26 -40 -82 -17 -30 13 -37 12 -71 -8 l-38 -22 -11 37 c-6 20 -10 37 -9
37 1 1 23 9 50 19 33 12 62 34 95 72 39 45 53 54 81 54 32 0 33 -1 27 -30z
m-269 -354 c10 -31 8 -35 -13 -45 -26 -12 -32 -49 -12 -69 8 -8 61 -12 174
-12 l163 0 21 -27 c14 -19 20 -38 18 -62 -4 -48 -30 -53 -43 -9 l-10 33 -170
5 -170 5 -42 85 c-23 47 -42 88 -43 91 0 5 77 31 111 38 3 0 10 -14 16 -33z
m-594 -81 l106 -70 42 -160 c23 -88 44 -178 46 -200 3 -30 -9 -78 -45 -185
l-49 -145 -68 -3 -68 -3 6 60 c4 33 19 93 35 133 23 61 32 74 52 76 31 5 50
20 50 40 0 8 -32 57 -70 109 -56 73 -66 93 -51 93 25 0 43 24 39 52 -3 20 -10
24 -66 29 -85 8 -132 54 -132 130 0 33 45 123 59 117 5 -2 56 -34 114 -73z
m443 -81 c29 -70 65 -104 108 -104 26 0 34 -16 52 -108 l7 -32 -175 0 -174 0
-28 108 c-40 156 -44 141 54 173 125 40 123 40 156 -37z m-52 -435 c-71 -56
-137 -109 -146 -117 -15 -13 -14 -3 8 59 14 41 26 93 27 116 l2 43 119 0 119
0 -129 -101z m260 30 c5 -24 1 -29 -57 -57 -252 -124 -336 -452 -176 -691 22
-33 57 -74 77 -91 l37 -30 -463 0 -462 0 53 54 c62 62 111 153 129 237 l12 59
48 0 48 0 0 -55 c0 -96 29 -109 233 -103 149 4 167 13 167 85 0 76 -55 145
-125 159 l-34 6 22 60 c22 60 22 60 247 237 130 103 228 173 231 167 4 -6 9
-23 13 -37z m-821 -136 c25 -72 49 -160 52 -195 3 -35 8 -73 11 -85 4 -21 1
-23 -44 -23 l-48 0 -12 58 c-16 76 -52 151 -97 201 -23 25 -34 45 -29 53 25
41 109 137 114 131 4 -5 28 -67 53 -140z m-200 -105 c37 -49 66 -111 73 -157
l7 -41 -137 0 c-115 0 -136 2 -136 15 0 16 150 214 162 215 4 0 18 -15 31 -32z
m526 -279 c18 -6 38 -24 47 -40 l15 -29 -116 0 -115 0 0 40 0 40 69 0 c37 0
82 -5 100 -11z"/>
<path d="M2292 1958 c-7 -7 -12 -21 -12 -33 0 -34 20 -45 85 -45 57 0 63 -2
95 -35 27 -28 41 -35 65 -33 25 3 30 8 33 34 3 27 -4 37 -54 77 -55 46 -57 47
-128 47 -43 0 -77 -5 -84 -12z"/>
<path d="M191 1716 c-6 -7 -17 -30 -24 -51 -12 -35 -20 -41 -78 -63 -77 -28
-89 -38 -89 -67 0 -47 23 -50 118 -15 48 18 91 36 96 41 14 13 46 100 46 125
0 39 -45 59 -69 30z"/>
<path d="M12 1391 c-8 -4 -12 -21 -10 -37 l3 -29 249 0 c226 0 250 2 260 18 8
12 8 22 0 35 -10 15 -35 17 -250 19 -131 2 -245 -1 -252 -6z"/>
</g>
</svg>
