<?xml version="1.0" standalone="no"?>
<!DOCTYPE svg PUBLIC "-//W3C//DTD SVG 20010904//EN"
 "http://www.w3.org/TR/2001/REC-SVG-20010904/DTD/svg10.dtd">
<svg version="1.0" xmlns="http://www.w3.org/2000/svg"
 width="256.000000pt" height="256.000000pt" viewBox="0 0 256.000000 256.000000"
 preserveAspectRatio="xMidYMid meet">
<metadata>
Created by potrace 1.16, written by Peter Selinger 2001-2019
</metadata>
<g transform="translate(0.000000,256.000000) scale(0.100000,-0.100000)"
fill="#000000" stroke="none">
<path d="M236 2495 c-32 -17 -52 -38 -66 -71 -6 -14 -21 -23 -48 -27 -75 -12
-122 -71 -122 -152 0 -91 69 -151 161 -143 l49 5 40 -56 c31 -44 40 -65 40
-98 0 -92 40 -228 97 -324 113 -196 364 -248 473 -98 60 83 63 210 8 321 -54
108 -215 252 -323 289 -52 17 -61 24 -97 76 -29 43 -29 44 -12 71 39 59 13
164 -49 202 -39 24 -110 26 -151 5z m114 -85 c27 -27 25 -66 -5 -94 -33 -31
-31 -60 8 -115 l33 -46 -32 -27 -31 -28 -39 53 c-40 52 -75 70 -97 48 -20 -20
-75 -13 -91 11 -38 54 -4 93 82 93 l57 0 6 44 c9 72 67 103 109 61z m185 -360
c108 -47 239 -178 270 -269 31 -91 13 -184 -43 -226 -36 -26 -123 -27 -176 -1
-85 42 -156 147 -191 281 -27 107 -14 221 27 238 18 8 66 -2 113 -23z"/>
<path d="M850 2452 c-64 -36 -96 -106 -80 -179 32 -141 230 -168 297 -40 36
69 13 163 -49 210 -39 29 -123 34 -168 9z m128 -95 c45 -42 11 -117 -54 -117
-35 0 -74 37 -74 69 0 24 29 61 54 70 26 10 44 4 74 -22z"/>
<path d="M1581 2189 l-61 -51 -34 16 c-53 25 -141 21 -192 -9 -24 -14 -48 -34
-54 -45 -7 -12 -21 -20 -38 -20 -38 -1 -101 -32 -138 -69 -51 -50 -69 -97 -69
-177 0 -61 4 -77 30 -119 74 -120 216 -154 337 -81 57 35 83 65 102 119 7 22
26 46 46 59 65 44 98 136 78 216 l-11 43 44 37 c86 73 93 86 63 116 -24 25
-38 20 -103 -35z m-147 -105 c11 -4 -17 -33 -97 -100 -62 -52 -116 -105 -121
-119 -11 -28 6 -55 35 -55 15 0 99 66 242 188 16 14 17 12 17 -21 0 -40 -34
-88 -78 -109 -18 -9 -32 -29 -44 -62 -51 -145 -202 -170 -285 -47 -69 102 17
241 147 241 20 0 35 10 55 36 36 47 84 65 129 48z"/>
<path d="M144 1621 c-106 -48 -118 -203 -21 -275 22 -16 43 -21 92 -21 49 0
70 5 92 21 43 33 67 81 66 135 -1 61 -28 107 -79 136 -48 28 -96 29 -150 4z
m123 -93 c53 -49 9 -127 -67 -119 -21 3 -60 48 -60 70 0 10 9 30 21 45 26 33
73 35 106 4z"/>
<path d="M1092 1431 c-427 -85 -647 -133 -653 -142 -5 -8 -9 -19 -9 -26 0 -11
27 -43 37 -43 3 0 293 57 644 126 352 70 642 124 646 120 13 -13 15 -120 3
-175 -17 -76 -49 -137 -106 -200 l-48 -53 -23 45 c-25 51 -56 77 -89 77 -40 0
-55 -12 -80 -64 -39 -76 -98 -166 -110 -166 -6 0 -16 19 -23 43 -17 57 -37 77
-77 77 -28 0 -37 -6 -56 -39 l-22 -39 -40 66 c-55 95 -74 114 -111 110 -23 -2
-37 -14 -63 -52 -41 -62 -49 -93 -29 -113 22 -23 59 -9 80 29 l19 32 49 -84
c27 -47 56 -90 64 -96 22 -17 51 -6 81 28 13 17 28 28 31 24 3 -3 0 -38 -7
-77 -13 -67 -13 -72 5 -85 25 -19 26 -19 73 19 61 48 136 141 178 220 34 65
38 69 51 51 22 -30 53 -142 53 -193 0 -26 -8 -79 -19 -118 -12 -46 -15 -76 -9
-87 18 -33 72 -14 161 56 44 35 46 30 12 -28 -51 -87 -36 -84 -435 -84 l-351
0 -21 46 c-17 40 -20 63 -17 157 4 96 2 111 -13 121 -26 16 -51 -3 -61 -47 -5
-19 -14 -37 -20 -40 -7 -2 -69 -15 -140 -28 -114 -21 -134 -22 -200 -11 -144
25 -260 109 -322 235 -58 120 -60 116 80 143 147 29 165 36 165 68 0 46 -26
48 -180 17 -178 -36 -195 -48 -187 -135 12 -133 124 -286 262 -357 86 -45 148
-60 240 -61 60 0 210 21 265 37 12 4 18 -9 27 -53 6 -31 14 -65 18 -74 6 -15
-12 -17 -205 -20 l-212 -3 -29 -33 -29 -32 0 -146 0 -146 29 -29 c27 -27 35
-29 105 -29 l76 0 0 -48 c0 -26 5 -53 12 -60 17 -17 1419 -17 1436 0 7 7 12
34 12 60 l0 48 76 0 c70 0 78 2 105 29 l29 29 0 146 0 146 -29 32 -29 33 -201
3 c-111 2 -201 5 -201 6 0 2 12 25 27 52 23 40 28 62 28 117 0 56 -3 71 -19
83 -36 26 -72 17 -107 -26 -18 -22 -35 -40 -38 -40 -4 0 -7 39 -8 87 l-2 87
40 34 c21 19 52 53 68 76 l29 42 303 58 c409 79 407 79 447 123 77 87 15 233
-99 233 -43 0 -186 -28 -211 -41 -10 -6 -18 -21 -18 -34 0 -41 27 -46 135 -26
l97 18 25 -22 c21 -17 25 -27 19 -49 -3 -15 -17 -31 -29 -37 -21 -9 -609 -128
-615 -124 -1 1 4 28 11 61 l13 58 133 27 c126 25 150 36 151 66 0 13 -27 43
-40 43 -7 0 -183 -35 -226 -45 -19 -4 -22 0 -26 46 -6 60 -29 88 -79 94 -19 2
-308 -51 -677 -124z m148 -1056 l0 -125 -398 0 c-296 0 -401 3 -410 12 -13 13
-17 192 -6 222 5 14 51 16 410 16 l404 0 0 -125z m894 109 c11 -30 7 -209 -6
-222 -9 -9 -114 -12 -410 -12 l-398 0 0 125 0 125 404 0 c359 0 405 -2 410
-16z m-214 -334 c0 -20 -7 -20 -640 -20 -633 0 -640 0 -640 20 0 20 7 20 640
20 633 0 640 0 640 -20z"/>
</g>
</svg>
