<?xml version="1.0" standalone="no"?>
<!DOCTYPE svg PUBLIC "-//W3C//DTD SVG 20010904//EN"
 "http://www.w3.org/TR/2001/REC-SVG-20010904/DTD/svg10.dtd">
<svg version="1.0" xmlns="http://www.w3.org/2000/svg"
 width="512.000000pt" height="512.000000pt" viewBox="0 0 512.000000 512.000000"
 preserveAspectRatio="xMidYMid meet">

<g transform="translate(0.000000,512.000000) scale(0.100000,-0.100000)"
fill="#000000" stroke="none">
<path d="M2515 5020 c-198 -49 -370 -92 -382 -95 l-23 -5 0 -445 0 -445 -398
0 -398 0 -53 -170 -54 -170 -87 0 -86 0 -73 -232 c-39 -128 -74 -241 -77 -250
-5 -16 5 -18 110 -18 64 0 116 -3 116 -6 0 -16 60 -878 65 -935 l6 -66 -138
-6 c-157 -6 -240 -25 -356 -83 -251 -126 -435 -365 -477 -619 -7 -39 -14 -80
-16 -91 -2 -13 -14 -24 -30 -28 -14 -4 -50 -31 -79 -60 -55 -55 -85 -122 -85
-191 0 -49 28 -131 55 -163 14 -17 25 -32 25 -35 0 -3 -13 -26 -29 -49 -96
-141 -42 -337 109 -404 33 -15 39 -23 44 -58 11 -64 70 -176 123 -231 63 -66
132 -110 213 -137 64 -22 73 -23 819 -26 785 -3 873 0 974 38 145 54 267 193
302 344 9 41 18 53 46 69 68 38 98 68 128 128 23 46 31 76 31 115 0 61 -29
146 -61 180 l-22 24 26 37 c47 68 60 112 55 183 -3 38 -14 82 -26 105 -24 47
-83 106 -129 129 -25 12 -33 24 -38 54 -4 20 -9 51 -11 67 -16 91 -77 236
-137 325 -43 63 -142 165 -206 212 -71 53 -189 111 -281 139 -69 21 -100 23
-377 27 -167 2 -303 6 -303 9 0 17 -61 881 -66 936 l-6 67 1267 0 c1009 0
1266 3 1263 13 -3 6 -38 119 -78 250 l-74 237 -86 0 -87 0 -54 170 -54 170
-397 0 -398 0 0 264 c0 244 1 265 18 270 9 2 109 26 222 51 223 52 262 66 307
119 41 46 56 95 51 171 -5 75 -37 131 -100 172 -34 23 -54 28 -112 30 -60 2
-125 -11 -431 -87z m475 -82 c11 -12 20 -35 20 -54 0 -63 -12 -68 -314 -139
-153 -36 -280 -65 -282 -65 -2 0 -4 -146 -4 -325 l0 -325 -75 0 -75 0 0 385
c0 212 1 385 3 385 1 1 144 36 317 80 173 43 332 79 352 79 26 1 43 -5 58 -21z
m283 -1146 c15 -49 27 -92 27 -95 0 -4 -434 -7 -965 -7 -531 0 -965 3 -965 8
0 4 12 46 26 95 l27 87 912 0 912 0 26 -88z m284 -352 l30 -100 -1252 0 -1253
0 31 100 30 100 1192 0 1191 0 31 -100z m-1562 -1442 c202 -69 369 -223 448
-413 21 -51 33 -96 52 -187 3 -17 -53 -18 -1071 -18 l-1074 0 0 23 c0 41 30
141 64 212 93 197 265 339 477 395 69 18 104 19 549 17 l475 -2 80 -27z m626
-783 c63 -33 86 -112 49 -172 -41 -67 43 -63 -1250 -63 -1293 0 -1209 -4
-1250 63 -36 59 -18 126 46 168 28 18 70 19 1202 19 1040 0 1176 -2 1203 -15z
m-2091 -507 l174 -123 -232 -3 c-223 -2 -235 -1 -263 19 -57 41 -72 99 -41
158 24 45 74 71 137 71 49 0 58 -5 225 -122z m616 21 c79 -56 144 -105 144
-110 0 -8 -150 -116 -175 -125 -12 -5 -485 319 -485 332 0 2 84 4 186 4 l186
0 144 -101z m1065 80 c-77 -64 -454 -320 -465 -316 -12 5 -450 310 -470 329
-6 4 208 8 475 8 l484 -1 -24 -20z m406 4 c82 -38 96 -139 29 -200 l-36 -33
-227 0 c-133 0 -223 4 -217 9 5 5 83 61 174 125 180 127 202 135 277 99z
m-1025 -400 c83 -58 155 -106 162 -106 6 0 50 27 98 61 l87 62 275 0 c214 0
276 -3 276 -12 0 -30 -50 -116 -91 -156 -23 -24 -66 -56 -94 -70 l-50 -27
-835 0 -835 0 -43 23 c-87 46 -159 131 -186 220 l-7 22 286 0 286 0 94 -65 94
-66 153 110 c84 60 159 110 167 110 7 1 81 -47 163 -106z"/>
<path d="M890 1795 l0 -75 75 0 75 0 0 75 0 75 -75 0 -75 0 0 -75z"/>
<path d="M1800 1795 l0 -75 75 0 75 0 0 75 0 75 -75 0 -75 0 0 -75z"/>
<path d="M1190 1705 l0 -75 75 0 75 0 0 75 0 75 -75 0 -75 0 0 -75z"/>
<path d="M1500 1705 l0 -75 75 0 75 0 0 75 0 75 -75 0 -75 0 0 -75z"/>
<path d="M4560 2985 l0 -165 -225 0 -225 0 0 110 0 110 -225 0 -225 0 0 -110
0 -110 -75 0 -75 0 0 110 0 110 -225 0 -225 0 -2 -427 -3 -428 -87 -3 c-61 -2
-88 -7 -88 -15 1 -7 54 -496 118 -1087 l118 -1075 882 -3 882 -2 4 22 c3 13
55 486 116 1053 61 567 113 1047 116 1068 l6 37 -56 0 -56 0 0 485 0 485 -225
0 -225 0 0 -165z m300 -395 l0 -410 -75 0 -75 0 0 410 0 410 75 0 75 0 0 -410z
m-1501 -77 c0 -279 -3 -372 -11 -355 -10 19 -19 22 -75 22 l-63 0 0 355 0 355
75 0 75 0 -1 -377z m599 -280 l2 -653 -75 0 -75 0 0 655 0 656 73 -3 72 -3 3
-652z m-303 -108 l0 -540 -51 -3 -52 -3 -21 62 c-20 61 -21 81 -21 546 l0 484
73 -3 72 -3 0 -540z m603 -2 l2 -543 -75 0 -75 0 0 545 0 546 73 -3 72 -3 3
-542z m302 165 l0 -383 -57 -162 c-45 -130 -60 -163 -75 -163 -17 0 -18 25
-18 545 l0 545 75 0 75 0 0 -382z m-1221 -558 l106 -295 554 0 554 0 106 297
106 298 93 0 c50 0 92 -4 92 -8 0 -5 -45 -422 -100 -926 -55 -504 -100 -921
-100 -927 0 -5 -288 -9 -750 -9 -412 0 -750 1 -750 3 0 1 -45 414 -100 917
-55 503 -100 923 -100 933 0 16 9 17 92 15 l92 -3 105 -295z"/>
<path d="M3282 1248 c3 -18 28 -237 54 -485 l49 -453 612 0 613 0 4 22 c3 13
26 217 51 453 25 237 48 445 51 463 l5 32 -722 0 -722 0 5 -32z m1268 -122 c0
-3 -16 -148 -35 -323 -19 -175 -35 -324 -35 -330 0 -10 -103 -13 -480 -13
-264 0 -480 2 -480 4 0 3 -16 148 -35 323 -19 175 -35 324 -35 331 0 9 117 12
550 12 303 0 550 -2 550 -4z"/>
<path d="M3630 795 l0 -75 75 0 75 0 0 75 0 75 -75 0 -75 0 0 -75z"/>
<path d="M3930 795 l0 -75 75 0 75 0 0 75 0 75 -75 0 -75 0 0 -75z"/>
<path d="M4230 795 l0 -75 70 0 70 0 0 75 0 75 -70 0 -70 0 0 -75z"/>
<path d="M1500 2965 l0 -75 400 0 401 0 -3 73 -3 72 -397 3 -398 2 0 -75z"/>
<path d="M2450 2965 l0 -75 100 0 101 0 -3 73 -3 72 -97 3 -98 3 0 -76z"/>
</g>
</svg>
