<?xml version="1.0" standalone="no"?>
<!DOCTYPE svg PUBLIC "-//W3C//DTD SVG 20010904//EN"
 "http://www.w3.org/TR/2001/REC-SVG-20010904/DTD/svg10.dtd">
<svg version="1.0" xmlns="http://www.w3.org/2000/svg"
 width="512.000000pt" height="512.000000pt" viewBox="0 0 512.000000 512.000000"
 preserveAspectRatio="xMidYMid meet">

<g transform="translate(0.000000,512.000000) scale(0.100000,-0.100000)"
fill="#000000" stroke="none">
<path d="M2300 4947 c-25 -7 -67 -25 -94 -40 -43 -24 -59 -27 -143 -27 -164 0
-300 -43 -418 -133 -66 -49 -79 -65 -344 -406 -197 -254 -204 -269 -155 -318
l25 -25 187 4 c160 4 196 8 252 28 139 48 223 109 336 245 48 58 90 105 93
105 3 0 13 -13 23 -29 15 -28 15 -35 -14 -150 l-30 -120 -37 -12 c-59 -18
-110 -57 -142 -107 -28 -45 -41 -53 -286 -177 l-256 -130 -280 -520 c-154
-286 -284 -532 -290 -546 -21 -54 -5 -73 146 -174 148 -99 178 -110 215 -77
12 9 57 107 102 221 l81 203 190 267 c181 253 193 267 241 289 28 12 53 21 54
19 2 -2 -137 -383 -310 -847 l-314 -844 -347 -309 c-262 -233 -380 -330 -480
-397 -130 -87 -145 -102 -145 -141 0 -22 290 -535 328 -581 67 -80 201 -73
262 12 35 48 36 108 5 290 -27 159 -27 164 -9 177 11 8 203 149 429 313 l410
299 38 72 c37 69 40 71 69 65 17 -3 111 -6 209 -6 l179 0 0 -185 0 -185 -153
-168 c-198 -217 -207 -229 -207 -260 0 -15 29 -121 65 -237 46 -148 71 -215
86 -227 19 -16 45 -18 211 -18 187 0 189 0 213 25 14 13 25 33 25 44 0 11 -16
89 -36 173 l-35 153 73 67 73 66 6 -44 c5 -42 15 -55 147 -187 130 -130 143
-147 163 -205 11 -34 30 -69 42 -77 18 -13 82 -15 411 -15 l390 0 188 187 188
187 92 -22 93 -23 166 -164 165 -165 193 0 192 0 25 26 c46 45 36 64 -195 386
l-212 297 -217 72 c-119 39 -219 73 -221 75 -2 1 129 152 290 333 l294 331 79
0 c110 0 151 15 211 75 64 63 75 100 75 244 0 105 -1 113 -25 136 -23 24 -31
25 -134 25 l-111 0 -35 70 c-19 38 -44 74 -54 80 -12 6 -95 10 -203 10 l-183
0 -280 -200 -280 -200 -510 0 -511 0 -117 368 c-108 339 -117 373 -117 445 l0
77 28 -7 c15 -5 56 -8 92 -7 62 1 91 12 639 250 425 184 578 255 589 273 15
22 13 40 -29 250 -47 243 -59 271 -114 271 -14 0 -106 -40 -205 -90 l-180 -90
-39 -78 -40 -79 -178 -67 c-98 -36 -181 -66 -184 -66 -3 0 0 23 7 52 25 93 21
103 -106 358 -74 147 -120 251 -120 270 l0 30 95 0 c88 0 98 2 120 25 22 21
25 33 25 101 0 76 1 77 40 120 25 27 40 53 40 69 0 14 -16 58 -37 98 -20 39
-42 101 -50 136 -40 188 -186 317 -371 327 -45 2 -96 -1 -122 -9z m157 -155
c19 -12 -28 -132 -82 -208 -57 -79 -162 -162 -180 -142 -33 36 -44 122 -23
192 15 51 99 137 148 153 41 13 120 16 137 5z m-432 -89 c-3 -10 -11 -40 -17
-68 -9 -42 -28 -71 -123 -185 -62 -74 -126 -147 -142 -162 -80 -76 -232 -134
-333 -126 l-42 3 160 206 c89 114 177 220 198 237 75 62 192 110 273 111 28 1
32 -2 26 -16z m604 -72 c6 -19 11 -47 11 -63 0 -16 14 -56 30 -89 l31 -60 -31
-35 c-26 -30 -30 -43 -30 -89 l0 -55 -95 0 c-88 0 -98 -2 -120 -25 -21 -20
-25 -34 -25 -80 l0 -55 -109 0 -109 0 24 92 c13 51 27 94 32 96 4 1 36 19 70
39 116 68 220 190 273 318 24 59 30 59 48 6z m-533 -723 c21 -10 62 -84 215
-390 113 -225 196 -381 208 -388 11 -5 28 -10 38 -10 10 0 144 47 298 105 153
58 283 105 287 105 8 0 17 -19 32 -66 6 -20 -18 -33 -301 -161 -170 -77 -322
-143 -340 -147 -47 -11 -107 10 -140 47 -16 18 -120 204 -231 413 -144 271
-202 389 -202 413 0 23 9 41 29 62 32 31 64 36 107 17z m440 -200 c105 -211
106 -211 94 -253 -6 -23 -22 -55 -35 -71 l-23 -28 -141 282 -141 282 70 0 70
0 106 -212z m-696 -28 c20 -44 22 -54 12 -88 -11 -37 -15 -40 -157 -102 l-146
-64 -182 -255 c-100 -140 -185 -259 -189 -264 -6 -11 -98 10 -98 22 1 3 76
141 168 306 l167 300 190 97 c105 53 195 97 201 98 6 0 21 -22 34 -50z m1727
-158 c12 -59 18 -110 15 -113 -14 -13 -244 -99 -251 -95 -4 3 -16 31 -25 64
l-18 59 26 51 c25 49 33 55 124 101 53 27 99 47 102 44 3 -2 15 -53 27 -111z
m-1459 -342 l132 -250 0 -105 0 -105 -263 0 -264 0 125 355 c69 195 128 355
131 355 3 0 66 -113 139 -250z m-1039 -421 c16 -7 21 -14 17 -27 -39 -105 -81
-202 -88 -202 -14 0 -88 52 -88 62 0 4 20 49 45 99 49 97 44 94 114 68z m1292
-509 c54 -168 99 -311 99 -318 0 -10 -28 -12 -122 -10 l-123 3 -58 143 -59
144 36 37 c46 47 50 98 10 130 -25 20 -39 21 -228 21 -185 -1 -234 -5 -308
-25 l-27 -7 37 96 37 96 304 -2 304 -3 98 -305z m-553 -108 c-57 -58 -100
-110 -104 -127 -23 -87 8 -176 78 -222 41 -28 45 -28 219 -31 l178 -4 -29 -45
c-16 -25 -35 -61 -41 -80 l-11 -34 -212 3 -211 3 -65 36 c-247 136 -217 489
50 582 29 10 81 16 144 17 l100 0 -96 -98z m2737 -52 c19 -38 44 -74 54 -80
11 -5 60 -10 110 -10 l91 0 0 -55 c0 -46 -4 -60 -25 -80 -23 -24 -31 -25 -136
-25 l-112 0 -31 -33 c-17 -18 -146 -162 -286 -320 l-254 -287 -58 0 -58 0 0
-133 c0 -102 3 -138 15 -154 11 -16 81 -43 257 -103 l243 -81 143 -202 143
-202 -62 -3 -62 -3 -161 158 -161 159 -297 73 -298 73 0 249 0 249 -80 0 -80
0 0 -80 0 -80 -282 0 -283 0 3 120 3 120 -79 0 -80 0 -4 -122 c-4 -108 -8
-129 -31 -174 -14 -28 -37 -65 -51 -81 -39 -46 -134 -92 -207 -100 l-62 -6
-139 -125 c-77 -69 -141 -134 -144 -147 -5 -20 29 -191 52 -268 5 -16 -1 -18
-76 -15 l-82 3 -46 147 -45 147 39 44 c21 24 100 111 174 192 l135 148 5 276
5 276 27 51 c29 56 68 93 132 127 41 22 45 22 676 27 l635 5 121 88 c67 48
124 87 126 87 3 0 8 -14 12 -31 4 -19 25 -51 54 -79 70 -71 155 -88 240 -50
44 20 182 144 182 164 0 13 -91 106 -104 106 -5 0 -40 -29 -77 -65 -72 -69
-96 -78 -129 -45 -34 34 -25 58 57 141 l76 79 119 0 118 0 35 -70z m-2536 -82
c39 -92 40 -88 -29 -88 -34 0 -60 3 -58 8 19 41 63 122 65 122 2 0 12 -19 22
-42z m-654 -344 c11 -20 50 -64 86 -98 l68 -63 -27 -46 c-23 -39 -85 -88 -420
-331 -216 -157 -396 -286 -400 -286 -8 0 -72 97 -71 107 0 5 153 143 340 308
l339 299 26 73 c15 40 30 73 33 73 4 0 15 -16 26 -36z m1500 -814 c-30 -60
-55 -122 -55 -137 0 -21 33 -60 160 -188 110 -110 160 -168 160 -183 0 -21 -3
-22 -102 -22 l-103 0 -177 177 c-163 163 -178 181 -178 213 0 33 4 37 65 68
60 32 185 147 185 172 0 6 23 10 50 10 l50 0 -55 -110z m585 7 c0 -100 -1
-104 -28 -130 -25 -24 -32 -26 -56 -17 -15 5 -97 10 -182 10 l-154 0 -11 28
c-9 23 -5 39 35 120 l46 92 175 0 175 0 0 -103z m-2924 -97 c49 -74 49 -76 78
-253 25 -153 28 -204 12 -186 -17 18 -256 452 -252 456 21 21 102 70 107 65 4
-4 29 -41 55 -82z m3117 -150 c45 -12 88 -23 96 -26 10 -3 -27 -47 -114 -134
l-130 -130 -102 0 c-100 0 -103 1 -103 22 0 16 42 64 132 155 73 73 134 133
136 133 2 0 40 -9 85 -20z m-411 -72 l-22 -22 -22 22 -22 22 44 0 44 0 -22
-22z"/>
</g>
</svg>
