<?xml version="1.0" standalone="no"?>
<!DOCTYPE svg PUBLIC "-//W3C//DTD SVG 20010904//EN"
 "http://www.w3.org/TR/2001/REC-SVG-20010904/DTD/svg10.dtd">
<svg version="1.0" xmlns="http://www.w3.org/2000/svg"
 width="512.000000pt" height="512.000000pt" viewBox="0 0 512.000000 512.000000"
 preserveAspectRatio="xMidYMid meet">

<g transform="translate(0.000000,512.000000) scale(0.100000,-0.100000)"
fill="#000000" stroke="none">
<path d="M1305 5095 c-25 -24 -25 -26 -25 -210 0 -161 -2 -185 -16 -185 -8 0
-39 -24 -67 -52 -57 -58 -77 -104 -77 -181 0 -69 -15 -93 -74 -116 -133 -53
-478 -173 -535 -186 -82 -20 -152 -58 -211 -115 -96 -94 -138 -193 -147 -347
l-6 -103 71 0 c40 0 75 -1 80 -2 4 -2 10 40 13 93 12 183 93 284 258 323 35 8
66 17 69 21 3 3 123 -112 267 -255 237 -236 264 -260 294 -260 29 0 48 14 137
102 l104 102 0 -1142 0 -1142 -320 0 -320 0 0 680 0 680 -80 0 -80 0 0 -560 0
-560 -225 0 -225 0 0 43 c0 23 23 400 50 837 27 437 50 814 50 838 l0 42 -78
0 -78 0 -68 -1089 c-51 -824 -65 -1094 -57 -1110 6 -11 20 -25 31 -31 12 -6
148 -10 365 -10 l346 0 24 25 c14 13 25 31 25 40 0 13 30 15 240 15 l240 0 0
-80 0 -80 80 0 80 0 0 80 0 80 80 0 80 0 0 -560 0 -560 -80 0 -80 0 0 400 0
400 -80 0 -80 0 0 -455 0 -456 25 -24 c24 -25 26 -25 215 -25 189 0 191 0 215
25 l25 24 25 -24 24 -25 1631 0 1631 0 24 25 25 24 0 736 0 735 -80 0 -80 0 0
-440 0 -440 -320 0 -320 0 0 -80 0 -80 320 0 320 0 0 -160 0 -160 -1520 0
-1520 0 0 56 c0 31 5 75 12 98 16 55 99 138 154 154 31 9 289 12 1058 12
l1016 0 0 80 0 80 -80 0 -80 0 0 535 0 536 -25 24 -24 25 -351 0 -351 0 -24
-25 c-24 -23 -25 -31 -25 -136 0 -61 -5 -130 -12 -153 -16 -55 -99 -138 -154
-154 -56 -16 -412 -16 -468 0 -55 16 -138 99 -154 154 -17 58 -17 730 0 788
16 55 99 138 154 154 60 17 2168 17 2228 0 55 -16 138 -99 154 -154 7 -23 12
-85 12 -138 l0 -96 81 0 81 0 -4 128 c-3 117 -6 132 -35 194 -43 92 -100 151
-189 194 -63 31 -85 37 -163 42 l-91 5 0 158 0 159 40 0 40 0 0 80 0 80 -400
0 -400 0 0 -80 0 -80 40 0 40 0 0 -160 0 -160 -160 0 -160 0 0 160 0 160 40 0
40 0 0 80 0 80 -400 0 -400 0 0 -80 0 -80 40 0 40 0 0 -159 0 -159 -247 -4
-248 -3 -67 -32 c-93 -44 -151 -100 -196 -191 l-37 -76 0 -416 0 -416 37 -76
c70 -140 187 -216 349 -226 l89 -5 0 -198 0 -199 80 0 80 0 0 199 0 198 89 5
c160 9 279 86 347 224 31 63 37 85 42 163 l5 91 238 0 239 0 0 -480 0 -479
-887 -3 -888 -3 -67 -32 c-37 -17 -87 -50 -111 -72 -48 -44 -101 -135 -116
-197 -6 -25 -9 133 -10 454 l-1 492 200 0 200 0 0 80 0 80 -280 0 -280 0 0
1142 0 1142 104 -102 c114 -113 141 -124 189 -79 14 12 118 131 232 265 114
133 213 242 220 242 8 0 26 -5 42 -11 15 -6 55 -18 88 -26 108 -25 186 -88
228 -182 17 -40 24 -113 53 -566 18 -286 34 -526 34 -532 0 -9 23 -13 80 -13
44 0 80 3 80 8 0 4 -16 248 -35 542 -37 589 -38 597 -111 706 -62 94 -160 161
-277 190 -53 14 -349 116 -528 183 -64 24 -79 47 -79 118 0 25 -5 64 -12 85
-14 48 -90 136 -124 144 l-24 6 0 185 c0 249 16 233 -240 233 -189 0 -191 0
-215 -25z m295 -255 l0 -120 -80 0 -80 0 0 120 0 120 80 0 80 0 0 -120z m131
-299 c19 -15 24 -32 30 -98 7 -84 25 -130 67 -175 14 -15 24 -29 21 -31 -15
-13 -313 -209 -324 -213 -11 -5 -311 156 -352 188 -9 7 -2 18 23 40 52 46 75
100 83 191 10 118 8 117 241 117 169 0 190 -2 211 -19z m377 -402 c34 -11 62
-23 62 -26 0 -4 -330 -393 -334 -393 -1 0 -44 42 -95 94 l-94 94 189 126 c104
69 194 126 200 126 5 0 38 -9 72 -21z m-935 -114 c114 -64 207 -120 207 -124
0 -4 -41 -47 -90 -96 l-90 -90 -191 191 -191 191 69 25 c37 14 70 25 73 23 3
-1 98 -55 213 -120z m2347 -1305 l0 -160 -160 0 -160 0 0 160 0 160 160 0 160
0 0 -160z m960 0 l0 -160 -160 0 -160 0 0 160 0 160 160 0 160 0 0 -160z
m-3840 -1280 l0 -80 -235 0 -235 0 0 80 0 80 235 0 235 0 0 -80z"/>
<path d="M640 3040 l0 -80 80 0 80 0 0 80 0 80 -80 0 -80 0 0 -80z"/>
<path d="M2240 2920 l0 -200 80 0 80 0 0 200 0 200 -80 0 -80 0 0 -200z"/>
<path d="M4380 2224 c-227 -82 -293 -362 -125 -529 66 -66 125 -90 225 -89 72
0 93 4 136 26 75 39 107 70 145 140 30 57 33 71 34 148 0 100 -24 159 -90 225
-82 82 -222 116 -325 79z m163 -158 c103 -43 128 -177 48 -257 -65 -65 -157
-65 -222 0 -124 123 13 325 174 257z"/>
<path d="M4960 1760 l0 -80 80 0 80 0 0 80 0 80 -80 0 -80 0 0 -80z"/>
<path d="M4380 1424 c-227 -82 -293 -362 -125 -529 66 -66 125 -90 225 -89 72
0 93 4 136 26 75 39 107 70 145 140 30 57 33 71 34 148 0 100 -24 159 -90 225
-82 82 -222 116 -325 79z m163 -158 c103 -43 128 -177 48 -257 -65 -65 -157
-65 -222 0 -124 123 13 325 174 257z"/>
</g>
</svg>
