<?xml version="1.0" standalone="no"?>
<!DOCTYPE svg PUBLIC "-//W3C//DTD SVG 20010904//EN"
 "http://www.w3.org/TR/2001/REC-SVG-20010904/DTD/svg10.dtd">
<svg version="1.0" xmlns="http://www.w3.org/2000/svg"
 width="128.000000pt" height="128.000000pt" viewBox="0 0 128.000000 128.000000"
 preserveAspectRatio="xMidYMid meet">
<metadata>
Created by potrace 1.16, written by Peter Selinger 2001-2019
</metadata>
<g transform="translate(0.000000,128.000000) scale(0.100000,-0.100000)"
fill="#000000" stroke="none">
<path d="M127 1273 c-3 -5 -8 -29 -12 -54 l-7 -47 -51 -8 c-65 -11 -68 -25
-27 -121 36 -86 36 -95 8 -168 -20 -53 -21 -64 -11 -170 6 -62 14 -118 17
-124 4 -6 34 -11 67 -11 l59 0 0 -125 0 -125 -35 0 c-31 0 -35 -3 -35 -25 0
-25 1 -25 90 -25 89 0 90 0 90 25 0 21 -5 25 -30 25 l-30 0 0 125 0 125 54 0
c31 0 58 5 63 13 6 6 15 62 21 122 11 108 11 111 -15 178 l-27 68 33 77 c50
116 50 119 5 131 -22 6 -47 11 -56 11 -18 0 -23 11 -34 73 l-6 37 -64 0 c-34
0 -65 -3 -67 -7z m96 -93 c10 -48 20 -60 52 -60 44 -1 48 -13 21 -75 -32 -70
-33 -116 -5 -183 19 -46 21 -62 14 -147 l-7 -95 -103 0 -103 0 -6 38 c-18 122
-18 147 3 195 27 63 26 128 -4 197 -25 58 -21 70 22 70 31 0 49 23 57 70 5 35
10 41 28 38 18 -2 24 -13 31 -48z"/>
<path d="M669 1253 c-60 -31 -112 -92 -129 -151 -5 -20 -10 -83 -10 -138 0
-76 -4 -105 -14 -114 -8 -6 -25 -42 -37 -78 -11 -37 -34 -83 -49 -102 -16 -21
-40 -79 -59 -145 -18 -60 -42 -120 -52 -134 -22 -28 -25 -68 -5 -90 28 -31 8
-67 -60 -112 -80 -52 -83 -72 -16 -100 26 -12 62 -23 80 -26 22 -4 38 -15 49
-34 16 -27 22 -29 80 -29 l62 0 48 60 48 60 292 0 c160 0 298 3 307 6 13 5 16
23 16 90 0 77 -2 84 -20 84 -15 0 -20 7 -20 29 0 47 -10 61 -41 61 -29 0 -29
0 -29 60 0 53 2 60 20 60 11 0 29 -9 40 -20 22 -22 46 -25 85 -10 25 10 26 11
23 97 -3 88 -3 88 -30 91 -16 2 -28 8 -28 13 0 21 -42 49 -74 49 -31 0 -34 3
-46 44 -7 25 -21 54 -31 65 -16 17 -19 36 -19 124 0 118 -15 174 -60 229 -73
88 -214 115 -321 61z m199 -38 c89 -38 124 -102 130 -237 l4 -98 -56 0 c-71 0
-82 17 -37 59 38 36 51 69 51 131 0 38 -6 55 -26 79 -14 17 -30 31 -36 31 -6
0 -36 -16 -68 -35 -52 -32 -65 -35 -133 -35 -69 0 -75 -2 -80 -22 -12 -48 16
-123 58 -156 40 -32 24 -52 -41 -52 l-54 0 0 81 c0 99 13 146 53 195 56 67
154 92 235 59z m40 -139 c8 -70 -44 -126 -117 -126 -53 0 -84 18 -106 60 -24
46 -20 50 48 50 49 0 71 5 102 25 49 31 69 28 73 -9z m-216 -268 c27 -41 198
-35 198 7 0 11 12 15 49 15 27 0 57 -3 66 -6 14 -6 45 -53 45 -69 0 -3 -117
-5 -260 -5 -143 0 -260 2 -260 5 0 14 31 64 42 68 7 3 34 6 59 6 37 1 49 -3
61 -21z m368 -263 l0 -155 -95 0 c-55 0 -95 4 -95 10 0 5 7 43 17 85 l16 76
-28 29 c-28 29 -31 30 -130 30 -89 0 -104 -3 -120 -20 -13 -14 -31 -20 -62
-20 l-43 0 0 60 0 60 270 0 270 0 0 -155z m-230 10 c12 -15 9 -49 -11 -127
l-10 -38 -114 0 c-133 0 -135 2 -88 86 47 87 57 94 139 94 51 0 75 -4 84 -15z
m-259 -241 c-17 -22 -21 -41 -21 -101 0 -71 -2 -77 -36 -119 -45 -55 -82 -60
-114 -14 -13 18 -30 30 -44 30 -13 0 -37 5 -55 11 l-32 11 49 34 c39 26 51 40
56 68 5 28 12 36 37 41 16 4 39 20 51 36 19 26 28 29 76 29 l53 0 -20 -26z
m559 6 c0 -19 -7 -20 -247 -20 -245 0 -246 0 -228 20 17 19 31 20 247 20 221
0 228 -1 228 -20z m40 -105 l0 -35 -285 0 -285 0 0 35 0 35 285 0 285 0 0 -35z"/>
</g>
</svg>
