<?xml version="1.0" standalone="no"?>
<!DOCTYPE svg PUBLIC "-//W3C//DTD SVG 20010904//EN"
 "http://www.w3.org/TR/2001/REC-SVG-20010904/DTD/svg10.dtd">
<svg version="1.0" xmlns="http://www.w3.org/2000/svg"
 width="512.000000pt" height="512.000000pt" viewBox="0 0 512.000000 512.000000"
 preserveAspectRatio="xMidYMid meet">

<g transform="translate(0.000000,512.000000) scale(0.100000,-0.100000)"
fill="#000000" stroke="none">
<path d="M2386 5110 c-558 -70 -1022 -395 -1253 -875 -46 -97 -48 -103 -48
-190 0 -172 58 -242 309 -370 l157 -80 87 0 c139 1 199 41 306 205 109 166
214 263 359 331 219 102 486 54 646 -116 177 -190 184 -459 18 -707 -81 -122
-220 -259 -442 -437 -99 -80 -214 -179 -255 -221 -223 -226 -340 -523 -340
-861 0 -98 2 -110 31 -167 32 -65 66 -99 133 -135 38 -21 56 -22 271 -25 258
-4 287 1 361 57 64 48 99 118 119 240 29 174 86 281 225 421 52 53 156 145
230 205 301 244 474 442 594 681 86 172 134 353 143 544 22 461 -183 931 -524
1197 -192 150 -393 239 -653 288 -99 19 -374 28 -474 15z m419 -175 c579 -94
967 -488 1054 -1072 18 -119 14 -311 -10 -426 -49 -246 -187 -486 -399 -697
-41 -42 -155 -143 -254 -224 -281 -234 -368 -332 -445 -498 -36 -77 -51 -127
-81 -280 -9 -43 -19 -63 -41 -83 l-31 -25 -213 0 -213 0 -31 26 c-41 34 -54
86 -46 187 22 288 105 490 275 671 36 38 146 135 245 215 394 318 555 516 615
755 38 151 21 356 -41 478 -120 239 -367 388 -645 388 -280 0 -549 -166 -738
-457 -73 -114 -99 -133 -173 -132 -40 0 -72 13 -193 78 -124 66 -148 83 -167
117 -34 60 -31 123 12 212 198 414 603 700 1091 771 97 14 332 12 429 -4z"/>
<path d="M2275 1126 c-150 -37 -269 -147 -327 -302 -20 -53 -22 -77 -22 -254
0 -177 2 -201 22 -254 62 -167 194 -279 362 -308 219 -38 438 107 504 331 23
77 23 385 0 462 -70 237 -310 382 -539 325z m196 -171 c90 -31 157 -108 184
-212 20 -76 20 -270 0 -347 -59 -226 -318 -303 -477 -141 -71 72 -82 109 -86
293 -5 198 7 246 77 324 81 90 192 120 302 83z"/>
</g>
</svg>
