<?xml version="1.0" standalone="no"?>
<!DOCTYPE svg PUBLIC "-//W3C//DTD SVG 20010904//EN"
 "http://www.w3.org/TR/2001/REC-SVG-20010904/DTD/svg10.dtd">
<svg version="1.0" xmlns="http://www.w3.org/2000/svg"
 width="256.000000pt" height="256.000000pt" viewBox="0 0 256.000000 256.000000"
 preserveAspectRatio="xMidYMid meet">
<metadata>
Created by potrace 1.16, written by Peter Selinger 2001-2019
</metadata>
<g transform="translate(0.000000,256.000000) scale(0.100000,-0.100000)"
fill="#000000" stroke="none">
<path d="M85 2468 c-3 -7 -4 -384 -3 -838 l3 -825 278 -3 277 -2 0 -326 0
-326 34 -34 34 -34 852 0 852 0 34 34 34 34 0 452 0 452 -34 34 -34 34 -146 0
-146 0 -2 678 -3 677 -1013 3 c-805 2 -1014 0 -1017 -10z m1955 -708 l0 -640
-40 0 -40 0 -2 618 -3 617 -855 0 -855 0 0 -695 0 -695 198 -3 197 -2 0 -40 0
-40 -240 0 -240 0 0 760 0 760 940 0 940 0 0 -640z m-160 213 l0 -308 -148
148 c-110 110 -153 147 -172 147 -19 0 -74 -49 -232 -207 l-208 -208 -128 128
c-92 91 -134 127 -151 127 -15 0 -114 -64 -260 -168 -130 -93 -242 -172 -248
-176 -10 -6 -13 79 -13 408 l0 416 780 0 780 0 0 -307z m-251 -187 c54 -54 62
-67 52 -80 -11 -13 -17 -13 -53 0 -61 21 -88 17 -145 -21 -42 -28 -58 -34 -83
-28 l-32 6 93 93 c52 52 96 94 99 94 3 0 34 -29 69 -64z m-668 -240 c-11 -13
-17 -13 -53 0 -59 21 -86 18 -139 -17 l-49 -31 -41 30 -40 30 98 71 98 70 69
-69 c58 -58 68 -71 57 -84z m861 47 l58 -57 0 -121 0 -120 -25 53 -24 52 -273
-2 -273 -3 -59 -137 -60 -138 -229 0 -230 0 -38 -40 -38 -40 -156 0 -155 0 0
148 1 147 120 83 120 83 68 -50 c38 -28 79 -51 92 -51 14 0 48 16 76 35 51 34
52 34 94 20 60 -22 89 -19 121 12 l28 27 28 -27 c45 -43 67 -36 152 48 l75 75
55 -15 c83 -22 109 -19 167 20 51 34 52 34 94 20 60 -22 92 -19 119 10 13 14
26 25 29 25 3 0 31 -26 63 -57z m-18 -360 c21 -49 40 -94 43 -100 4 -10 -57
-13 -287 -13 -230 0 -291 3 -287 13 3 6 22 51 43 100 l37 87 207 0 207 0 37
-87z m576 -213 c19 -19 20 -33 20 -240 l0 -220 -219 0 -218 0 -5 79 c-3 60
-11 93 -33 137 -37 76 -114 152 -190 190 -56 27 -68 29 -175 29 -107 0 -119
-2 -175 -29 -76 -38 -153 -114 -190 -190 -22 -44 -30 -77 -33 -137 l-5 -79
-218 0 -219 0 0 220 c0 207 1 221 20 240 20 20 33 20 820 20 787 0 800 0 820
-20z m-695 -135 c116 -51 176 -141 183 -271 4 -71 1 -89 -20 -136 -33 -71 -75
-118 -140 -154 -48 -26 -62 -29 -148 -29 -109 0 -152 17 -220 85 -61 61 -83
112 -88 206 -4 72 -1 89 20 136 33 71 75 118 138 152 89 48 184 52 275 11z
m-487 -465 l31 -60 -255 0 -254 0 0 60 0 60 223 0 224 0 31 -60z m1202 0 l0
-60 -254 0 -255 0 31 60 31 60 224 0 223 0 0 -60z m-1059 -161 c109 -77 316
-80 430 -5 l39 26 295 0 295 0 0 -40 c0 -27 -7 -47 -20 -60 -20 -20 -33 -20
-820 -20 -787 0 -800 0 -820 20 -13 13 -20 33 -20 60 l0 40 296 0 c284 0 297
-1 325 -21z"/>
<path d="M592 2140 c-48 -30 -72 -75 -72 -140 0 -100 60 -160 160 -160 100 0
160 60 160 160 0 65 -24 110 -72 140 -45 27 -131 27 -176 0z m138 -90 c11 -11
20 -33 20 -50 0 -17 -9 -39 -20 -50 -43 -43 -120 -11 -120 50 0 38 32 70 70
70 17 0 39 -9 50 -20z"/>
<path d="M2044 987 c-3 -8 -4 -52 -2 -98 l3 -84 135 0 135 0 0 95 0 95 -133 3
c-104 2 -134 0 -138 -11z"/>
<path d="M1444 861 c-59 -27 -109 -75 -138 -133 -21 -42 -26 -66 -26 -127 1
-120 51 -205 152 -255 74 -37 182 -37 256 0 101 50 151 135 152 255 0 61 -5
85 -26 127 -29 58 -79 106 -138 133 -56 25 -176 25 -232 0z m204 -90 c133 -68
138 -260 8 -336 -73 -43 -185 -28 -237 31 -67 77 -64 213 7 275 59 51 155 64
222 30z"/>
</g>
</svg>
