<?xml version="1.0" standalone="no"?>
<!DOCTYPE svg PUBLIC "-//W3C//DTD SVG 20010904//EN"
 "http://www.w3.org/TR/2001/REC-SVG-20010904/DTD/svg10.dtd">
<svg version="1.0" xmlns="http://www.w3.org/2000/svg"
 width="512.000000pt" height="512.000000pt" viewBox="0 0 512.000000 512.000000"
 preserveAspectRatio="xMidYMid meet">

<g transform="translate(0.000000,512.000000) scale(0.100000,-0.100000)"
fill="#000000" stroke="none">
<path d="M271 5109 c-139 -27 -238 -132 -261 -275 -6 -36 -10 -690 -10 -1675
l0 -1616 23 -21 c31 -29 77 -29 105 1 l22 23 2 1644 c3 1532 4 1647 20 1676
24 43 71 81 117 94 27 7 762 9 2298 8 l2259 -3 43 -28 c27 -18 50 -44 62 -70
18 -41 19 -93 19 -1683 l0 -1641 23 -21 c31 -29 77 -29 105 1 l22 24 -2 1664
-3 1664 -29 58 c-36 70 -89 120 -165 156 l-56 26 -2275 1 c-1251 1 -2295 -2
-2319 -7z"/>
<path d="M430 4752 c-19 -9 -45 -32 -57 -51 l-23 -34 0 -1487 0 -1487 23 -21
c47 -44 65 -35 330 158 l247 180 304 0 c301 0 305 0 326 22 22 24 26 58 10 88
-14 26 -63 40 -136 40 -35 0 -64 3 -64 8 0 4 -9 81 -20 172 -11 91 -20 171
-20 178 0 9 42 12 174 12 l175 0 5 -42 c3 -24 8 -99 12 -167 3 -68 11 -135 16
-147 23 -50 102 -52 128 -3 12 21 7 227 -6 322 l-6 37 181 0 181 0 0 -90 c0
-105 15 -130 74 -130 57 0 76 35 76 136 l0 84 200 0 200 0 0 -50 c0 -62 15
-96 49 -110 33 -13 75 0 90 29 6 11 11 45 11 75 l0 56 181 0 181 0 -6 -37
c-13 -95 -18 -301 -6 -322 26 -49 105 -47 128 3 5 12 13 79 16 147 4 68 9 143
12 167 l5 42 175 0 c132 0 174 -3 174 -12 0 -7 -9 -87 -20 -178 -11 -91 -20
-168 -20 -172 0 -5 -29 -8 -64 -8 -73 0 -122 -14 -136 -40 -16 -30 -12 -68 10
-90 19 -19 33 -20 325 -20 l305 0 247 -180 c267 -194 287 -204 331 -157 l22
23 0 1486 0 1485 -23 34 c-12 19 -38 42 -57 51 -33 17 -155 18 -2130 18 -1975
0 -2097 -1 -2130 -18z m525 -144 c4 -11 45 -339 45 -360 0 -10 -367 -10 -374
0 -4 6 -66 350 -66 366 0 3 88 6 195 6 148 0 197 -3 200 -12z m629 -25 c3 -21
8 -107 12 -190 l7 -153 -227 0 c-174 0 -226 3 -226 13 0 6 -9 86 -20 177 -11
91 -20 171 -20 178 0 9 53 12 234 12 l234 0 6 -37z m621 -153 l0 -185 -225 0
-225 0 -11 180 c-6 99 -9 183 -7 188 3 4 109 6 236 5 l232 -3 0 -185z m555 0
l0 -190 -200 0 -200 0 0 190 0 190 200 0 200 0 0 -190z m623 183 c2 -5 -1 -89
-7 -188 l-11 -180 -225 0 -225 0 -3 175 c-1 96 0 180 2 187 4 10 57 13 235 13
126 0 232 -3 234 -7z m627 -5 c0 -7 -9 -87 -20 -178 -11 -91 -20 -171 -20
-177 0 -10 -52 -13 -226 -13 l-227 0 7 153 c4 83 9 169 12 190 l6 37 234 0
c181 0 234 -3 234 -12z m550 6 c0 -16 -62 -360 -66 -366 -7 -10 -374 -10 -374
0 0 21 41 349 45 360 3 9 52 12 200 12 107 0 195 -3 195 -6z m-3540 -536 c0
-7 9 -87 20 -178 11 -91 20 -168 20 -172 0 -5 -78 -8 -173 -8 l-173 0 -28 163
c-15 89 -30 172 -33 185 l-5 22 186 0 c142 0 186 -3 186 -12z m593 -20 c3 -18
9 -102 13 -185 l7 -153 -212 0 c-162 0 -211 3 -211 13 0 6 -9 86 -20 177 -11
91 -20 168 -20 173 0 4 98 7 219 7 l219 0 5 -32z m597 -153 l0 -185 -212 2
-213 3 -7 110 c-4 61 -9 143 -11 183 l-4 72 224 0 223 0 0 -185z m550 0 l0
-185 -200 0 -200 0 0 185 0 185 200 0 200 0 0 -185z m593 118 c-3 -38 -8 -120
-11 -183 l-7 -115 -212 -3 -213 -2 0 185 0 185 224 0 223 0 -4 -67z m597 60
c0 -5 -9 -82 -20 -173 -11 -91 -20 -171 -20 -177 0 -10 -49 -13 -211 -13
l-211 0 6 158 c4 86 9 169 12 185 l6 27 219 0 c120 0 219 -3 219 -7z m517 -15
c-3 -13 -18 -96 -33 -185 l-28 -163 -173 0 c-95 0 -173 3 -173 8 0 4 9 81 20
172 11 91 20 171 20 178 0 9 44 12 186 12 l186 0 -5 -22z m-3635 -1959 c-4 -3
-74 -54 -157 -114 -82 -59 -156 -112 -163 -118 -9 -7 -12 211 -11 1084 l1
1094 168 -970 c93 -533 165 -973 162 -976z m3786 307 l-3 -544 -165 120 c-106
77 -164 126 -164 137 1 9 76 444 165 967 l164 951 3 -543 c1 -299 1 -789 0
-1088z m-3538 1142 c0 -15 27 -253 35 -315 l6 -43 -159 0 -159 0 -27 163 c-16
89 -30 172 -33 185 l-5 22 171 0 c130 0 171 -3 171 -12z m563 -20 c3 -18 9
-102 13 -185 l7 -153 -197 0 c-108 0 -196 3 -196 8 0 4 -9 81 -20 172 -11 91
-20 171 -20 178 0 9 47 12 204 12 l204 0 5 -32z m567 -153 l0 -185 -199 0
-199 0 -6 158 c-4 86 -9 169 -12 185 l-6 27 211 0 211 0 0 -185z m550 0 l0
-185 -200 0 -200 0 0 185 0 185 200 0 200 0 0 -185z m566 158 c-3 -16 -8 -99
-12 -185 l-6 -158 -199 0 -199 0 0 185 0 185 211 0 211 0 -6 -27z m564 15 c0
-7 -9 -87 -20 -178 -11 -91 -20 -168 -20 -172 0 -5 -88 -8 -196 -8 l-197 0 7
153 c4 83 10 167 13 185 l5 32 204 0 c157 0 204 -3 204 -12z m487 -10 c-3 -13
-17 -96 -33 -185 l-27 -163 -159 0 -159 0 6 43 c8 62 35 300 35 315 0 9 41 12
171 12 l171 0 -5 -22z m-3223 -645 c9 -82 19 -165 22 -185 l6 -38 -146 0 c-80
0 -146 4 -146 9 0 5 -13 87 -30 183 -16 95 -30 174 -30 176 0 1 69 2 154 2
l153 0 17 -147z m519 115 c3 -18 9 -102 13 -185 l7 -153 -182 0 c-99 0 -181 3
-181 8 0 4 -9 81 -20 172 -11 91 -20 171 -20 178 0 9 44 12 189 12 l189 0 5
-32z m537 -153 l0 -185 -184 0 -183 0 -7 153 c-4 83 -10 167 -13 185 l-5 32
196 0 196 0 0 -185z m550 0 l0 -185 -200 0 -200 0 0 185 0 185 200 0 200 0 0
-185z m536 158 c-3 -16 -8 -99 -12 -185 l-6 -158 -184 0 -184 0 0 185 0 185
196 0 196 0 -6 -27z m534 15 c0 -7 -9 -87 -20 -178 -11 -91 -20 -168 -20 -172
0 -5 -82 -8 -181 -8 l-182 0 7 153 c4 83 10 167 13 185 l5 32 189 0 c145 0
189 -3 189 -12z m460 10 c0 -2 -14 -81 -30 -176 -17 -96 -30 -178 -30 -183 0
-5 -66 -9 -146 -9 l-146 0 6 38 c3 20 13 103 22 185 l17 147 153 0 c85 0 154
-1 154 -2z m-3076 -670 c9 -84 20 -168 23 -185 l5 -33 -131 0 c-72 0 -131 3
-131 8 0 4 -14 85 -30 180 -17 96 -30 176 -30 178 0 2 62 4 138 4 l139 0 17
-152z m2986 148 c0 -2 -13 -82 -30 -178 -16 -95 -30 -176 -30 -180 0 -5 -59
-8 -131 -8 l-131 0 5 33 c3 17 14 101 23 185 l17 152 139 0 c76 0 138 -2 138
-4z"/>
<path d="M2415 2239 c-156 -23 -348 -100 -485 -197 -95 -66 -237 -214 -304
-315 -70 -105 -129 -237 -159 -356 -18 -71 -22 -114 -22 -246 1 -143 3 -170
28 -258 111 -402 444 -730 843 -831 590 -150 1230 281 1349 907 99 521 -242
1075 -769 1251 -150 50 -329 67 -481 45z m258 -147 l39 -7 -69 -49 c-37 -28
-75 -50 -83 -50 -8 0 -46 22 -84 50 l-68 49 33 6 c47 9 186 9 232 1z m-315
-155 l122 -88 0 -152 0 -153 -154 -112 c-85 -62 -162 -115 -170 -118 -9 -3
-69 18 -135 47 l-118 53 -52 158 -51 159 32 40 c78 97 357 283 393 261 6 -4
66 -47 133 -95z m711 19 c71 -44 179 -135 220 -186 l31 -39 -51 -159 -52 -158
-118 -53 c-66 -29 -126 -50 -135 -47 -8 3 -85 56 -170 118 l-154 112 0 152 0
152 131 95 132 95 54 -24 c31 -13 81 -39 112 -58z m-1343 -481 c30 -98 39 -79
-68 -155 -32 -23 -58 -37 -58 -32 0 45 79 272 94 272 3 0 17 -38 32 -85z
m1731 28 c22 -51 63 -190 63 -215 0 -5 -26 10 -57 32 -32 23 -66 48 -77 55
-18 13 -18 16 8 99 15 47 29 86 32 86 3 0 17 -26 31 -57z m-739 -200 c81 -59
149 -108 151 -110 2 -2 -22 -86 -54 -188 l-59 -185 -196 0 -196 0 -58 181
c-49 155 -55 184 -44 196 29 29 284 212 296 212 7 1 79 -47 160 -106z m-747
-84 c63 -27 117 -53 121 -57 4 -4 36 -96 71 -204 l64 -196 -74 -86 -74 -86
-164 0 -165 0 -26 42 c-62 97 -118 265 -129 384 l-7 69 129 92 c70 51 131 93
134 93 4 0 58 -23 120 -51z m1437 -45 l124 -89 -7 -69 c-11 -119 -67 -287
-129 -384 l-26 -42 -165 0 -164 0 -74 86 -74 86 64 196 c35 108 67 200 71 204
16 15 228 107 242 104 8 -2 70 -43 138 -92z m-568 -581 c36 -42 68 -82 72 -88
4 -7 -15 -80 -43 -163 l-51 -152 -38 -10 c-106 -29 -334 -29 -440 0 l-38 10
-51 152 c-28 83 -47 156 -43 163 4 6 36 46 72 88 l65 76 215 0 215 0 65 -76z
m-754 -225 c42 -125 43 -115 -12 -83 -58 33 -151 104 -178 134 l-20 22 94 -3
93 -3 23 -67z m1128 41 c-30 -32 -204 -153 -210 -146 -3 3 26 99 51 165 3 8
32 12 97 12 l92 0 -30 -31z"/>
</g>
</svg>
