<?xml version="1.0" standalone="no"?>
<!DOCTYPE svg PUBLIC "-//W3C//DTD SVG 20010904//EN"
 "http://www.w3.org/TR/2001/REC-SVG-20010904/DTD/svg10.dtd">
<svg version="1.0" xmlns="http://www.w3.org/2000/svg"
 width="512.000000pt" height="512.000000pt" viewBox="0 0 512.000000 512.000000"
 preserveAspectRatio="xMidYMid meet">

<g transform="translate(0.000000,512.000000) scale(0.100000,-0.100000)"
fill="#000000" stroke="none">
<path d="M2178 4530 c-109 -19 -255 -80 -384 -162 l-62 -39 -47 33 c-43 30
-53 33 -123 33 -99 0 -170 -31 -248 -109 -78 -78 -109 -149 -109 -248 0 -70 3
-80 33 -123 l33 -47 -39 -62 c-170 -268 -213 -513 -117 -656 l31 -46 -47 -32
c-26 -17 -61 -50 -77 -74 -53 -77 -62 -122 -62 -303 0 -91 -2 -165 -5 -165 -4
0 -20 8 -38 17 -51 28 -188 24 -252 -7 -112 -55 -174 -152 -183 -287 l-5 -83
-134 0 c-129 0 -135 -1 -158 -25 l-25 -24 0 -271 0 -271 25 -24 c23 -24 29
-25 158 -25 l134 0 5 -84 c5 -70 11 -94 38 -145 83 -155 253 -209 427 -135 8
4 12 -45 15 -178 3 -175 5 -185 30 -234 40 -76 70 -107 140 -145 58 -31 70
-34 148 -34 78 0 90 3 148 34 70 38 100 69 140 145 l27 51 3 363 3 362 512 0
512 0 0 -147 c0 -146 0 -149 33 -217 27 -57 56 -92 181 -217 189 -189 230
-212 393 -217 76 -3 129 1 183 13 l76 17 39 -36 c52 -47 84 -62 159 -76 137
-25 338 35 538 162 l61 39 47 -33 c43 -30 53 -33 123 -33 65 0 86 5 137 29 77
38 153 114 191 191 24 51 29 72 29 137 0 70 -3 80 -33 123 l-33 47 39 62 c129
203 190 407 162 543 -15 73 -33 108 -76 154 l-34 35 16 79 c11 53 15 112 12
184 -3 94 -7 114 -36 175 -28 59 -56 93 -181 217 -124 125 -158 154 -217 181
-65 31 -77 33 -196 36 l-126 4 -30 37 c-16 20 -58 52 -93 71 -58 32 -71 34
-149 35 -100 0 -159 -24 -225 -90 -64 -64 -88 -124 -93 -235 l-4 -95 -44 -33
c-24 -17 -47 -32 -51 -32 -5 0 -89 81 -188 180 -138 138 -178 183 -170 194
242 337 344 590 333 831 -7 158 -31 201 -217 386 -167 168 -223 203 -347 218
-70 8 -197 -1 -267 -20 -36 -10 -41 -8 -77 25 -83 74 -180 98 -312 76z m166
-170 c4 -4 -32 -29 -82 -55 -378 -195 -785 -604 -974 -979 -48 -95 -63 -91
-61 17 3 184 138 422 373 657 172 173 327 279 500 344 88 33 217 41 244 16z
m525 -81 c21 -6 48 -19 61 -29 l24 -18 -39 -7 c-317 -50 -636 -230 -949 -535
-187 -182 -354 -397 -438 -565 -17 -33 -32 -62 -34 -64 -4 -4 -101 45 -117 59
-10 9 34 106 98 215 88 149 201 292 350 440 254 254 526 429 769 495 80 21
219 26 275 9z m-1277 -45 c5 -5 -196 -211 -218 -224 -14 -8 -16 38 -4 76 16
49 76 113 125 135 39 18 86 25 97 13z m1477 -175 c273 -58 221 -458 -121 -934
-4 -5 -76 58 -160 141 -132 130 -159 152 -201 164 -215 59 -476 -202 -417
-417 12 -42 34 -69 164 -201 83 -84 146 -156 141 -160 -349 -251 -665 -351
-832 -265 l-38 20 -5 244 -5 244 31 70 c131 299 450 659 774 876 258 173 505
253 669 218z m-149 -1154 l374 -374 -112 -113 -113 -112 -374 374 c-275 275
-375 381 -375 398 0 84 117 202 200 202 20 0 106 -81 400 -375z m-1552 38 c14
-10 35 -32 46 -47 21 -27 21 -33 21 -1046 0 -1013 0 -1019 -21 -1046 -39 -53
-71 -69 -134 -69 -63 0 -95 16 -134 69 -21 27 -21 35 -24 1019 -1 546 0 1006
3 1024 7 40 49 91 90 109 40 19 120 12 153 -13z m2538 12 c33 -13 39 -35 11
-35 -7 0 -63 -25 -124 -55 -117 -56 -124 -56 -102 2 32 85 128 125 215 88z
m463 -160 c30 -14 51 -28 48 -31 -3 -3 -41 -12 -85 -20 -601 -104 -1372 -875
-1476 -1476 -8 -44 -17 -82 -20 -85 -3 -3 -17 18 -31 48 -84 182 34 521 303
869 85 109 283 307 392 392 273 211 529 326 725 327 76 1 99 -3 144 -24z m227
-226 c50 -24 86 -66 104 -122 12 -39 16 -184 5 -195 -3 -3 -27 15 -53 41 -72
71 -127 91 -242 90 -75 0 -113 -6 -180 -28 -412 -133 -852 -573 -985 -985 -22
-67 -28 -105 -28 -180 -1 -115 21 -174 89 -241 24 -24 44 -47 44 -51 0 -4 -39
-8 -87 -8 -72 0 -98 5 -140 24 -126 59 -154 224 -77 454 177 528 831 1135
1316 1221 79 14 182 6 234 -20z m-1813 -207 c97 -97 177 -181 177 -185 0 -4
-306 -7 -680 -7 l-680 0 0 29 0 28 53 -14 c37 -10 86 -13 167 -10 145 6 250
36 416 117 110 54 325 187 339 210 3 6 12 10 18 10 7 0 92 -80 190 -178z
m-1895 21 c14 -10 35 -32 46 -47 21 -27 21 -38 21 -486 0 -448 0 -459 -21
-486 -39 -53 -71 -69 -134 -69 -63 0 -95 16 -134 69 -20 27 -21 41 -24 459 -2
238 0 446 3 464 7 40 49 91 90 109 40 19 120 12 153 -13z m3584 -164 c36 -9
99 -53 88 -61 -3 -2 -36 -11 -74 -21 -218 -55 -526 -267 -721 -496 -168 -198
-253 -353 -322 -591 -7 -23 -50 32 -64 82 -30 113 56 339 207 538 87 115 248
275 363 359 145 107 352 197 461 200 14 1 42 -4 62 -10z m-3992 -369 l0 -160
-80 0 -80 0 0 160 0 160 80 0 80 0 0 -160z m2360 153 c0 -3 -13 -27 -30 -53
-16 -25 -52 -94 -80 -153 l-50 -107 -540 0 -540 0 0 160 0 160 620 0 c341 0
620 -3 620 -7z m1880 -19 c55 -22 75 -61 74 -145 -2 -81 -31 -175 -90 -289
-73 -140 -59 -137 -166 -34 -74 72 -103 93 -141 103 -211 60 -476 -205 -416
-416 10 -38 31 -67 103 -141 105 -108 110 -93 -59 -177 -215 -107 -368 -108
-410 -3 -64 162 87 474 364 748 275 273 580 418 741 354z m-293 -585 l71 -72
-56 -37 c-66 -43 -98 -76 -139 -142 l-30 -47 -71 72 c-47 47 -72 80 -72 95 0
60 63 147 133 181 68 34 83 29 164 -50z m214 -219 c57 -31 -19 -176 -116 -221
-84 -39 -126 -15 -105 61 14 52 93 137 145 155 49 17 52 17 76 5z"/>
</g>
</svg>
