<?xml version="1.0" encoding="UTF-8"?>
<svg version="1.1" xmlns="http://www.w3.org/2000/svg" width="256" height="256">
<path d="M0 0 C0.66209473 -0.00095673 1.32418945 -0.00191345 2.00634766 -0.00289917 C3.40852961 -0.00358076 4.8107147 -0.00172792 6.21289062 0.00244141 C8.36595713 0.00779004 10.51881502 0.0024958 12.671875 -0.00390625 C14.03125046 -0.00324546 15.3906258 -0.00196429 16.75 0 C18.61785156 0.00169189 18.61785156 0.00169189 20.5234375 0.00341797 C23.375 0.1328125 23.375 0.1328125 24.375 1.1328125 C24.46290975 3.42432667 24.48194038 5.71853774 24.47265625 8.01171875 C24.4712413 8.6983812 24.46982635 9.38504364 24.46836853 10.09251404 C24.46275479 12.29349051 24.45020007 14.49436659 24.4375 16.6953125 C24.43248676 18.18424333 24.42792355 19.67317574 24.42382812 21.16210938 C24.41278093 24.81904325 24.39550713 28.47591808 24.375 32.1328125 C27.015 32.1328125 29.655 32.1328125 32.375 32.1328125 C32.31699219 30.97523437 32.25898437 29.81765625 32.19921875 28.625 C32.15229735 27.08597802 32.10679974 25.54691217 32.0625 24.0078125 C32.02060547 23.24726563 31.97871094 22.48671875 31.93554688 21.703125 C31.84575696 17.536873 32.08616754 14.93792026 34.76953125 11.640625 C39.48575786 7.10116851 43.84291175 7.84640605 50.125 7.7578125 C51.115 7.72042969 52.105 7.68304687 53.125 7.64453125 C61.34599238 7.54561557 61.34599238 7.54561557 65.0234375 10.41796875 C67.85858091 13.69109943 68.20752504 15.8622009 68.375 20.1328125 C69.9528125 19.978125 69.9528125 19.978125 71.5625 19.8203125 C75.375 20.1328125 75.375 20.1328125 78.3125 22.1953125 C80.375 25.1328125 80.375 25.1328125 80.375 32.1328125 C101.495 32.1328125 122.615 32.1328125 144.375 32.1328125 C144.375 29.8228125 144.375 27.5128125 144.375 25.1328125 C146.4375 22.1953125 146.4375 22.1953125 149.375 20.1328125 C153.1875 19.8203125 153.1875 19.8203125 156.375 20.1328125 C156.41625 19.0809375 156.4575 18.0290625 156.5 16.9453125 C157.39454549 13.04765 158.26194516 11.58663158 161.38232422 9.15600586 C165.46513011 7.05957857 169.88627803 7.41851432 174.375 7.5078125 C175.34695312 7.48847656 176.31890625 7.46914062 177.3203125 7.44921875 C181.92801544 7.48060637 185.33149642 7.57223516 189 10.546875 C192.92889365 14.82471644 192.49623104 18.19191678 192.4375 23.7578125 C192.43298828 24.55960938 192.42847656 25.36140625 192.42382812 26.1875 C192.41203168 28.16930256 192.39409605 30.15106683 192.375 32.1328125 C195.015 32.1328125 197.655 32.1328125 200.375 32.1328125 C200.36976318 31.19896729 200.36452637 30.26512207 200.35913086 29.30297852 C200.3421238 25.84968454 200.32956698 22.39643483 200.32006836 18.94311523 C200.31502879 17.44636332 200.30819713 15.94961634 200.29956055 14.45288086 C200.28747841 12.30581443 200.28176809 10.15881288 200.27734375 8.01171875 C200.27210693 6.7182251 200.26687012 5.42473145 200.26147461 4.09204102 C200.375 1.1328125 200.375 1.1328125 201.375 0.1328125 C203.58150656 0.03268849 205.79122386 0.0020007 208 0 C208.66209473 -0.00095673 209.32418945 -0.00191345 210.00634766 -0.00289917 C211.40852961 -0.00358076 212.8107147 -0.00172792 214.21289062 0.00244141 C216.36595713 0.00779004 218.51881502 0.0024958 220.671875 -0.00390625 C222.03125046 -0.00324546 223.3906258 -0.00196429 224.75 0 C226.61785156 0.00169189 226.61785156 0.00169189 228.5234375 0.00341797 C231.375 0.1328125 231.375 0.1328125 232.375 1.1328125 C232.46290975 3.42432667 232.48194038 5.71853774 232.47265625 8.01171875 C232.47053383 9.04171242 232.47053383 9.04171242 232.46836853 10.09251404 C232.46275479 12.29349051 232.45020007 14.49436659 232.4375 16.6953125 C232.43248676 18.18424333 232.42792355 19.67317574 232.42382812 21.16210938 C232.41278093 24.81904325 232.39550713 28.47591808 232.375 32.1328125 C233.695 32.1328125 235.015 32.1328125 236.375 32.1328125 C236.375 34.7728125 236.375 37.4128125 236.375 40.1328125 C235.055 40.1328125 233.735 40.1328125 232.375 40.1328125 C232.38023682 41.06665771 232.38547363 42.00050293 232.39086914 42.96264648 C232.4078762 46.41594046 232.42043302 49.86919017 232.42993164 53.32250977 C232.43497121 54.81926168 232.44180287 56.31600866 232.45043945 57.81274414 C232.46252159 59.95981057 232.46823191 62.10681212 232.47265625 64.25390625 C232.47789307 65.5473999 232.48312988 66.84089355 232.48852539 68.17358398 C232.375 71.1328125 232.375 71.1328125 231.375 72.1328125 C229.16849344 72.23293651 226.95877614 72.2636243 224.75 72.265625 C224.08790527 72.26658173 223.42581055 72.26753845 222.74365234 72.26852417 C221.34147039 72.26920576 219.9392853 72.26735292 218.53710938 72.26318359 C216.38404287 72.25783496 214.23118498 72.2631292 212.078125 72.26953125 C210.71874954 72.26887046 209.3593742 72.26758929 208 72.265625 C206.75476563 72.26449707 205.50953125 72.26336914 204.2265625 72.26220703 C201.375 72.1328125 201.375 72.1328125 200.375 71.1328125 C200.28709025 68.84129833 200.26805962 66.54708726 200.27734375 64.25390625 C200.27946617 63.22391258 200.27946617 63.22391258 200.28163147 62.17311096 C200.28724521 59.97213449 200.29979993 57.77125841 200.3125 55.5703125 C200.31751324 54.08138167 200.32207645 52.59244926 200.32617188 51.10351562 C200.33721907 47.44658175 200.35449287 43.78970692 200.375 40.1328125 C198.42895874 40.14066772 198.42895874 40.14066772 196.44360352 40.14868164 C191.64852585 40.16672719 186.8534512 40.17824287 182.05834961 40.18774414 C179.97956844 40.19278538 177.90079084 40.19961824 175.82202148 40.20825195 C172.84097414 40.22032672 169.85997351 40.22604274 166.87890625 40.23046875 C165.47578941 40.23821068 165.47578941 40.23821068 164.04432678 40.24610901 C163.18350998 40.24618454 162.32269318 40.24626007 161.43579102 40.24633789 C160.67412125 40.2485585 159.91245148 40.25077911 159.12770081 40.25306702 C157.375 40.1328125 157.375 40.1328125 156.375 39.1328125 C156.14307135 37.61811802 155.96284762 36.09526688 155.8125 34.5703125 C155.72871094 33.74402344 155.64492187 32.91773438 155.55859375 32.06640625 C155.49800781 31.42832031 155.43742188 30.79023438 155.375 30.1328125 C154.715 30.1328125 154.055 30.1328125 153.375 30.1328125 C153.045 34.0928125 152.715 38.0528125 152.375 42.1328125 C153.695 42.7928125 155.015 43.4528125 156.375 44.1328125 C158.4690669 45.60387392 160.5218776 47.09188413 162.5625 48.6328125 C163.10841797 49.03628906 163.65433594 49.43976562 164.21679688 49.85546875 C168.25104632 52.88490513 168.25104632 52.88490513 169.375 55.1328125 C169.67019281 57.39966346 169.91202981 59.67353936 170.12890625 61.94921875 C170.19453262 62.63242187 170.260159 63.315625 170.32777405 64.01953125 C171.0873524 72.05047985 171.74941555 80.09041991 172.375 88.1328125 C172.4353392 88.88834915 172.49567841 89.6438858 172.55784607 90.4223175 C172.61593948 91.17345322 172.6740329 91.92458893 172.73388672 92.69848633 C172.78688934 93.37518875 172.83989197 94.05189117 172.89450073 94.74909973 C173.38275801 103.75629534 171.12193585 112.73745639 169.3125 121.5078125 C169.17523499 122.19908234 169.03796997 122.89035217 168.89654541 123.60256958 C167.22143463 131.87344442 164.98577284 138.80113992 160.03637695 145.75097656 C150.54059341 159.36462304 149.73028052 176.14050239 148.375 192.1328125 C145.735 192.1328125 143.095 192.1328125 140.375 192.1328125 C140.20484375 191.235625 140.0346875 190.3384375 139.859375 189.4140625 C138.01117701 179.89780899 135.80419588 170.51666054 133.375 161.1328125 C131.35159136 161.82850024 131.35159136 161.82850024 129.375 163.1328125 C128.64273472 165.11123707 128.64273472 165.11123707 128.4375 167.3828125 C127.53676353 172.33287753 125.96843529 174.62493519 122.375 178.1328125 C117.49448888 181.22026627 111.93848504 180.72943288 106.375 180.1328125 C101.46415865 177.85277902 98.89679206 174.8961975 96.375 170.1328125 C96.21 168.8953125 96.045 167.6578125 95.875 166.3828125 C95.71 165.3103125 95.545 164.2378125 95.375 163.1328125 C93.40390816 161.89691677 93.40390816 161.89691677 91.375 161.1328125 C90.38991222 164.98549036 89.41299839 168.84019644 88.4375 172.6953125 C88.15970703 173.78134766 87.88191406 174.86738281 87.59570312 175.98632812 C86.24018733 181.35939676 84.99939957 186.62386949 84.375 192.1328125 C81.735 192.1328125 79.095 192.1328125 76.375 192.1328125 C76.30506836 191.40803711 76.23513672 190.68326172 76.16308594 189.93652344 C75.83132414 186.58370243 75.47827191 183.23343272 75.125 179.8828125 C74.96064453 178.17351562 74.96064453 178.17351562 74.79296875 176.4296875 C73.65567905 165.89479342 70.98915047 156.39751132 65.8125 147.1328125 C65.23371094 146.0809375 64.65492187 145.0290625 64.05859375 143.9453125 C62.53229349 141.21983742 62.53229349 141.21983742 60.88378906 139.3815918 C58.92131821 136.45662108 58.3369102 133.77119962 57.55078125 130.33984375 C57.39920059 129.6817572 57.24761993 129.02367065 57.09144592 128.34564209 C56.60823539 126.21523752 56.1446828 124.08144739 55.6875 121.9453125 C55.45163177 120.84846634 55.45163177 120.84846634 55.21099854 119.72946167 C54.74339501 117.52739777 54.28834172 115.3232174 53.83984375 113.1171875 C53.63214104 112.11006462 53.63214104 112.11006462 53.42024231 111.08259583 C51.8928224 103.30490349 51.65667436 96.01236206 52.375 88.1328125 C52.46533525 86.78114532 52.55107336 85.4291626 52.63208008 84.0769043 C52.8596408 80.43647957 53.117175 76.79898042 53.39215088 73.16183472 C53.50482865 71.65437088 53.61197511 70.14648238 53.71331787 68.63821411 C53.8622433 66.50356698 54.04221192 64.37368351 54.23046875 62.2421875 C54.37971802 60.36998535 54.37971802 60.36998535 54.53198242 58.45996094 C55.56835381 54.36970051 57.19339759 52.82851162 60.375 50.1328125 C61.66470703 49.02486328 61.66470703 49.02486328 62.98046875 47.89453125 C63.83253906 47.21003906 64.68460937 46.52554688 65.5625 45.8203125 C66.42230469 45.12292969 67.28210938 44.42554688 68.16796875 43.70703125 C70.375 42.1328125 70.375 42.1328125 72.375 42.1328125 C71.88 36.1928125 71.88 36.1928125 71.375 30.1328125 C70.715 30.1328125 70.055 30.1328125 69.375 30.1328125 C69.31441406 30.77089844 69.25382812 31.40898437 69.19140625 32.06640625 C69.06572266 33.30583984 69.06572266 33.30583984 68.9375 34.5703125 C68.81568359 35.80587891 68.81568359 35.80587891 68.69140625 37.06640625 C68.375 39.1328125 68.375 39.1328125 67.375 40.1328125 C66.02405018 40.22550249 64.66832909 40.25028576 63.31420898 40.24633789 C62.45339218 40.24626236 61.59257538 40.24618683 60.70567322 40.24610901 C59.77026199 40.24094772 58.83485077 40.23578644 57.87109375 40.23046875 C56.91807877 40.2290538 55.96506378 40.22763885 54.98316956 40.22618103 C51.92624835 40.22056402 48.86939923 40.20800866 45.8125 40.1953125 C43.74544376 40.19029969 41.67838638 40.18573641 39.61132812 40.18164062 C34.53252412 40.17058906 29.4537743 40.15331305 24.375 40.1328125 C24.38023682 41.06665771 24.38547363 42.00050293 24.39086914 42.96264648 C24.4078762 46.41594046 24.42043302 49.86919017 24.42993164 53.32250977 C24.43497121 54.81926168 24.44180287 56.31600866 24.45043945 57.81274414 C24.46252159 59.95981057 24.46823191 62.10681212 24.47265625 64.25390625 C24.47789307 65.5473999 24.48312988 66.84089355 24.48852539 68.17358398 C24.375 71.1328125 24.375 71.1328125 23.375 72.1328125 C21.16849344 72.23293651 18.95877614 72.2636243 16.75 72.265625 C16.08790527 72.26658173 15.42581055 72.26753845 14.74365234 72.26852417 C13.34147039 72.26920576 11.9392853 72.26735292 10.53710938 72.26318359 C8.38404287 72.25783496 6.23118498 72.2631292 4.078125 72.26953125 C2.71874954 72.26887046 1.3593742 72.26758929 0 72.265625 C-1.24523438 72.26449707 -2.49046875 72.26336914 -3.7734375 72.26220703 C-6.625 72.1328125 -6.625 72.1328125 -7.625 71.1328125 C-7.71290975 68.84129833 -7.73194038 66.54708726 -7.72265625 64.25390625 C-7.72053383 63.22391258 -7.72053383 63.22391258 -7.71836853 62.17311096 C-7.71275479 59.97213449 -7.70020007 57.77125841 -7.6875 55.5703125 C-7.68248676 54.08138167 -7.67792355 52.59244926 -7.67382812 51.10351562 C-7.66278093 47.44658175 -7.64550713 43.78970692 -7.625 40.1328125 C-8.945 40.1328125 -10.265 40.1328125 -11.625 40.1328125 C-11.625 37.4928125 -11.625 34.8528125 -11.625 32.1328125 C-10.305 32.1328125 -8.985 32.1328125 -7.625 32.1328125 C-7.63023682 31.19896729 -7.63547363 30.26512207 -7.64086914 29.30297852 C-7.6578762 25.84968454 -7.67043302 22.39643483 -7.67993164 18.94311523 C-7.68497121 17.44636332 -7.69180287 15.94961634 -7.70043945 14.45288086 C-7.71252159 12.30581443 -7.71823191 10.15881288 -7.72265625 8.01171875 C-7.72789307 6.7182251 -7.73312988 5.42473145 -7.73852539 4.09204102 C-7.53146656 -1.30529246 -4.78558557 0.00433477 0 0 Z M0.375 8.1328125 C0.375 26.6128125 0.375 45.0928125 0.375 64.1328125 C1.695 64.1328125 3.015 64.1328125 4.375 64.1328125 C4.375 50.9328125 4.375 37.7328125 4.375 24.1328125 C7.015 24.1328125 9.655 24.1328125 12.375 24.1328125 C12.375 37.3328125 12.375 50.5328125 12.375 64.1328125 C13.695 64.1328125 15.015 64.1328125 16.375 64.1328125 C16.375 45.6528125 16.375 27.1728125 16.375 8.1328125 C15.055 8.1328125 13.735 8.1328125 12.375 8.1328125 C12.375 10.7728125 12.375 13.4128125 12.375 16.1328125 C9.735 16.1328125 7.095 16.1328125 4.375 16.1328125 C4.375 13.4928125 4.375 10.8528125 4.375 8.1328125 C3.055 8.1328125 1.735 8.1328125 0.375 8.1328125 Z M208.375 8.1328125 C208.375 26.6128125 208.375 45.0928125 208.375 64.1328125 C209.695 64.1328125 211.015 64.1328125 212.375 64.1328125 C212.375 61.4928125 212.375 58.8528125 212.375 56.1328125 C215.015 56.1328125 217.655 56.1328125 220.375 56.1328125 C220.375 58.7728125 220.375 61.4128125 220.375 64.1328125 C221.695 64.1328125 223.015 64.1328125 224.375 64.1328125 C224.375 45.6528125 224.375 27.1728125 224.375 8.1328125 C223.055 8.1328125 221.735 8.1328125 220.375 8.1328125 C220.375 21.3328125 220.375 34.5328125 220.375 48.1328125 C217.735 48.1328125 215.095 48.1328125 212.375 48.1328125 C212.375 34.9328125 212.375 21.7328125 212.375 8.1328125 C211.055 8.1328125 209.735 8.1328125 208.375 8.1328125 Z M40.375 20.1328125 C39.89304725 23.17721385 39.89304725 23.17721385 40.125 26.3828125 C40.2075 28.2803125 40.29 30.1778125 40.375 32.1328125 C46.975 32.1328125 53.575 32.1328125 60.375 32.1328125 C60.4575 30.2353125 60.54 28.3378125 60.625 26.3828125 C60.69460937 24.78179688 60.69460937 24.78179688 60.765625 23.1484375 C60.60280989 20.07392004 60.60280989 20.07392004 58.734375 17.7734375 C55.76253811 15.70692841 53.97239365 15.59683856 50.375 15.6328125 C49.34375 15.6225 48.3125 15.6121875 47.25 15.6015625 C43.64106691 16.26843057 42.4636396 17.12914984 40.375 20.1328125 Z M164.375 20.1328125 C163.89304725 23.17721385 163.89304725 23.17721385 164.125 26.3828125 C164.2075 28.2803125 164.29 30.1778125 164.375 32.1328125 C170.975 32.1328125 177.575 32.1328125 184.375 32.1328125 C184.4575 30.2353125 184.54 28.3378125 184.625 26.3828125 C184.69460937 24.78179688 184.69460937 24.78179688 184.765625 23.1484375 C184.60280989 20.07392004 184.60280989 20.07392004 182.734375 17.7734375 C179.76253811 15.70692841 177.97239365 15.59683856 174.375 15.6328125 C173.34375 15.6225 172.3125 15.6121875 171.25 15.6015625 C167.64106691 16.26843057 166.4636396 17.12914984 164.375 20.1328125 Z M80.375 40.1328125 C80.045 42.4428125 79.715 44.7528125 79.375 47.1328125 C76.1015625 49.1328125 76.1015625 49.1328125 74.10375977 50.08300781 C70.02991254 52.11591289 66.94351696 54.32516072 64.375 58.1328125 C61.36151035 68.04541389 61.50635978 78.86624482 61.375 89.1328125 C61.33463623 90.39657715 61.29427246 91.6603418 61.25268555 92.96240234 C61.0647194 101.73604855 62.08752678 109.72051996 64.0625 118.2578125 C64.30677734 119.43601562 64.55105469 120.61421875 64.80273438 121.828125 C66.64346317 130.10731753 66.64346317 130.10731753 72.375 136.1328125 C73.17611206 136.72980957 73.17611206 136.72980957 73.9934082 137.33886719 C75.69900831 138.58398685 77.43325082 139.76994599 79.1875 140.9453125 C79.78498047 141.35201172 80.38246094 141.75871094 80.99804688 142.17773438 C82.45374564 143.16760953 83.91391174 144.15090985 85.375 145.1328125 C86.365 144.6378125 86.365 144.6378125 87.375 144.1328125 C86.95347656 143.31296875 86.53195313 142.493125 86.09765625 141.6484375 C85.54980469 140.57078125 85.00195312 139.493125 84.4375 138.3828125 C83.89222656 137.31546875 83.34695312 136.248125 82.78515625 135.1484375 C81.375 132.1328125 81.375 132.1328125 80.92578125 129.86328125 C80.5277201 127.96696403 80.5277201 127.96696403 78.6328125 127.04296875 C77.2163291 126.4800074 75.79966369 125.91750381 74.3828125 125.35546875 C71.6239146 123.67543948 70.79184666 122.03623932 69.375 119.1328125 C68.80828168 114.55689152 68.85988502 109.97669844 68.87402344 105.37060547 C68.8749854 103.16626915 68.83356424 100.96554362 68.7890625 98.76171875 C68.68546954 86.53774956 71.24451775 75.69474625 79.37109375 66.12890625 C88.78211034 56.75457978 99.14638726 52.7748472 112.25 52.5703125 C124.67649965 52.67168749 135.45014766 56.17302923 144.375 65.1328125 C153.64059802 75.90890563 156.04007383 86.91217746 155.84155273 100.78710938 C155.81226888 103.02547847 155.82104939 105.26151615 155.83398438 107.5 C155.78140674 119.63134004 155.78140674 119.63134004 152.375 124.1328125 C150.47265625 125.109375 150.47265625 125.109375 148.4375 125.7578125 C145.5513371 127.04759958 144.56147887 127.777721 143.0703125 130.6171875 C142.08764615 133.43568788 141.22915068 136.27326456 140.375 139.1328125 C139.46455559 141.20200435 138.45050985 143.14311928 137.375 145.1328125 C144.40745895 142.59739087 153.63616322 138.2073966 157.36035156 131.30712891 C158.81510525 127.34007363 159.48053364 123.26377451 160.06591797 119.09179688 C160.5237197 116.19021622 161.34772271 113.40057778 162.125 110.5703125 C163.73786728 103.41079815 163.50354023 96.42861258 163.375 89.1328125 C163.35300537 87.18169556 163.35300537 87.18169556 163.33056641 85.19116211 C163.71469029 68.34577695 163.71469029 68.34577695 156.87109375 53.9296875 C154.26829778 51.95348474 151.59143547 50.53256175 148.6484375 49.1328125 C147.56820312 48.4728125 146.48796875 47.8128125 145.375 47.1328125 C144.88 43.6678125 144.88 43.6678125 144.375 40.1328125 C123.255 40.1328125 102.135 40.1328125 80.375 40.1328125 Z M84.375 74.1328125 C78.11884472 82.20574356 76.98999302 90.13108387 76.375 100.1328125 C77.695 100.1328125 79.015 100.1328125 80.375 100.1328125 C80.705 99.1428125 81.035 98.1528125 81.375 97.1328125 C84.85046456 95.70912822 88.73236153 95.91873889 92.4375 95.7578125 C103.26187996 95.12147016 113.40710118 93.10071132 121.375 85.1328125 C124.0625 84.5703125 124.0625 84.5703125 127.375 85.1328125 C129.05135224 87.02973741 130.3864826 89.05550764 131.796875 91.15625 C134.25391485 94.2336316 136.66610947 94.94316837 140.375 96.1328125 C141.86 96.6278125 141.86 96.6278125 143.375 97.1328125 C143.705 98.1228125 144.035 99.1128125 144.375 100.1328125 C145.695 100.1328125 147.015 100.1328125 148.375 100.1328125 C147.94754805 87.6939608 145.45096576 79.43712726 136.74609375 70.33203125 C128.30888313 62.50641415 119.63266623 60.52361398 108.3515625 60.83203125 C97.98435051 61.61619169 91.33315136 66.63086245 84.375 74.1328125 Z M116.75 98.5078125 C107.59057455 103.17991136 98.55119753 103.58274777 88.375 104.1328125 C87.25418946 122.87130318 87.25418946 122.87130318 94.65625 139.375 C99.77581835 144.61092217 104.68919233 147.26593626 112.0625 147.4453125 C118.95566831 147.35395726 123.32946919 146.02154371 128.34765625 141.26171875 C136.12863191 132.80969385 136.54719267 124.29114826 136.4375 113.1953125 C136.43298828 112.32068359 136.42847656 111.44605469 136.42382812 110.54492188 C136.41214834 108.40752203 136.39421689 106.27015787 136.375 104.1328125 C135.82432861 103.87016602 135.27365723 103.60751953 134.70629883 103.33691406 C133.62384888 102.81049316 133.62384888 102.81049316 132.51953125 102.2734375 C131.80385986 101.92829102 131.08818848 101.58314453 130.35083008 101.22753906 C127.93665371 99.88994276 126.27995256 98.10831885 124.375 96.1328125 C120.96780098 96.1328125 119.6974987 96.8890275 116.75 98.5078125 Z M77.375 109.1328125 C76.51525199 111.42575738 76.51525199 111.42575738 76.375 114.1328125 C78.20858335 116.46735911 78.20858335 116.46735911 80.375 118.1328125 C80.375 115.1628125 80.375 112.1928125 80.375 109.1328125 C79.385 109.1328125 78.395 109.1328125 77.375 109.1328125 Z M144.375 109.1328125 C144.375 112.1028125 144.375 115.0728125 144.375 118.1328125 C146.54141665 116.46735911 146.54141665 116.46735911 148.375 114.1328125 C148.23474801 111.42575738 148.23474801 111.42575738 147.375 109.1328125 C146.385 109.1328125 145.395 109.1328125 144.375 109.1328125 Z M79.375 152.1328125 C80.035 154.4428125 80.695 156.7528125 81.375 159.1328125 C82.035 157.8128125 82.695 156.4928125 83.375 155.1328125 C82.39649805 154.11176699 81.39519573 153.1122004 80.375 152.1328125 C80.045 152.1328125 79.715 152.1328125 79.375 152.1328125 Z M142.8125 153.6328125 C142.338125 154.1278125 141.86375 154.6228125 141.375 155.1328125 C142.035 156.4528125 142.695 157.7728125 143.375 159.1328125 C144.035 156.8228125 144.695 154.5128125 145.375 152.1328125 C144.13423698 152.01739053 144.13423698 152.01739053 142.8125 153.6328125 Z M104.375 156.1328125 C104.2107309 163.91851034 104.2107309 163.91851034 107.375 170.1328125 C110.21583641 171.55323071 112.22977278 171.44733522 115.375 171.1328125 C118.22280619 168.90074819 119.22497666 167.58288251 120.375 164.1328125 C120.375 161.4928125 120.375 158.8528125 120.375 156.1328125 C115.095 156.1328125 109.815 156.1328125 104.375 156.1328125 Z " fill="#000000" transform="translate(15.625,-0.1328125)"/>
<path d="M0 0 C2.97 0.33 5.94 0.66 9 1 C8.93941406 1.87994629 8.87882812 2.75989258 8.81640625 3.66650391 C7.51354994 23.21686496 6.7850997 42.71689343 6.75 62.3125 C6.74500488 63.27883362 6.74000977 64.24516724 6.73486328 65.24078369 C6.63593512 88.49236307 8.60841289 109.89120316 22.18742371 129.73527527 C25.51562701 134.68316247 27.19165322 139.22656012 28.45703125 145.0234375 C28.64972092 145.85082428 28.84241058 146.67821106 29.04093933 147.53067017 C29.64542758 150.14247049 30.22897791 152.75844544 30.8125 155.375 C31.22199091 157.1526475 31.63278677 158.92999493 32.04492188 160.70703125 C35 173.55332484 35 173.55332484 35 176 C39.82198255 172.87222754 41.57407972 169.40958505 43 164 C43.7699266 160.3476607 44.42381225 156.68760162 45 153 C47.64 153 50.28 153 53 153 C53.54669002 162.55188943 53.28004654 171.27974823 47.3515625 179.203125 C43.7866724 183.0326576 42.40522198 183.9189556 37 185 C38.32 189.95 39.64 194.9 41 200 C67.4 200 93.8 200 121 200 C122.32 195.05 123.64 190.1 125 185 C123.02 184.34 121.04 183.68 119 183 C113.72161872 178.72702468 110.21590038 172.70551004 109 166 C108.93209325 163.75092848 108.91500016 161.49998395 108.9375 159.25 C108.94652344 158.07953125 108.95554687 156.9090625 108.96484375 155.703125 C108.97644531 154.81109375 108.98804688 153.9190625 109 153 C111.64 153 114.28 153 117 153 C117.17015625 154.01320312 117.3403125 155.02640625 117.515625 156.0703125 C117.75968113 157.42200801 118.00451432 158.77356338 118.25 160.125 C118.41435547 161.12273437 118.41435547 161.12273437 118.58203125 162.140625 C119.4633113 166.87170737 120.96182079 170.15087822 124 174 C124.99 174.66 125.98 175.32 127 176 C127.23074219 174.87207031 127.46148437 173.74414062 127.69921875 172.58203125 C128.57811665 168.31375425 129.49199884 164.05343737 130.41015625 159.79345703 C130.98660623 157.06343194 131.52591063 154.32794006 132.0625 151.58984375 C134.18469332 141.25957562 137.0470987 133.07950133 142.85546875 124.26953125 C165.07417511 90.39511008 155.57396284 38.83703805 153 1 C157.455 0.505 157.455 0.505 162 0 C162.74962708 2.99850834 163.19073734 5.41674102 163.40478516 8.44433594 C163.46792908 9.3229126 163.531073 10.20148926 163.59613037 11.10668945 C163.69163177 12.5311438 163.69163177 12.5311438 163.7890625 13.984375 C163.85724182 14.98009521 163.92542114 15.97581543 163.9956665 17.00170898 C169.56241377 100.14683946 169.56241377 100.14683946 149.83203125 132.9140625 C146.79823782 138.02429024 144.63712442 142.69838978 143.31420898 148.50854492 C143.02057968 149.77973679 142.72695038 151.05092865 142.42442322 152.36064148 C142.27314405 153.03205359 142.12186489 153.70346569 141.96600151 154.39522362 C141.4891874 156.5111161 141.00298622 158.62466165 140.51441956 160.73786926 C139.48023792 165.21914275 138.45847369 169.70320223 137.4375 174.1875 C136.25015981 179.39631945 135.05773697 184.60390958 133.85566902 189.80935097 C133.37741169 191.8904764 132.90682809 193.97323929 132.43663025 196.05619812 C132.14615311 197.3179335 131.85567596 198.57966888 131.55639648 199.87963867 C131.30341293 200.99183273 131.05042938 202.10402679 130.78977966 203.24992371 C130 206 130 206 128 209 C124.97973549 209.28605123 122.16547516 209.37795795 119.14404297 209.34057617 C117.76835144 209.34123329 117.76835144 209.34123329 116.36486816 209.34190369 C113.32376043 209.33980832 110.2831993 209.31644202 107.2421875 209.29296875 C105.13754579 209.28737546 103.03290018 209.2831041 100.92825317 209.28010559 C95.38134021 209.26863584 89.83466188 209.23915031 84.2878418 209.20599365 C78.63072891 209.17533865 72.97357821 209.16161004 67.31640625 209.14648438 C56.21083426 209.11428268 45.10543662 209.06306061 34 209 C32.02888004 204.62300057 30.49152834 200.52663427 29.43774414 195.82446289 C29.17059097 194.64956802 28.90343781 193.47467316 28.62818909 192.26417542 C28.34998825 191.01297409 28.07178741 189.76177277 27.78515625 188.47265625 C27.48601727 187.15641213 27.18598798 185.84037007 26.88511658 184.52452087 C25.61689237 178.97044522 24.36512077 173.41269947 23.1184082 167.85375977 C22.35205456 164.43961209 21.57556521 161.02789027 20.7932415 157.6173687 C20.35785398 155.7049493 19.93416259 153.78987904 19.51075745 151.87477112 C17.37585661 142.57042779 13.98616503 135.54535901 9.0625 127.375 C-2.71918961 106.98203597 -3.52759415 84.72711639 -3.3125 61.6875 C-3.30314518 59.5855313 -3.29395114 57.48356188 -3.28491211 55.3815918 C-3.0092818 13.78663641 -3.0092818 13.78663641 0 0 Z " fill="#000000" transform="translate(47,47)"/>
<path d="M0 0 C0.43956044 5.36263736 0.43956044 5.36263736 0 8 C-1.66279327 9.0064275 -3.32983484 10.00585407 -5 11 C-6.07261608 13.99685698 -6.49539627 16.83475841 -7 20 C-9.97 20 -12.94 20 -16 20 C-16.4511116 13.68443762 -15.74417916 9.22336105 -12 4 C-7.97594823 0.50082455 -5.30923816 -0.50564173 0 0 Z " fill="#000000" transform="translate(188,164)"/>
<path d="M0 0 C3.67803287 -0.35028885 5.7635939 -0.11347493 9.125 1.5 C13.19705383 5.04091637 15.6672342 8.84409207 16.2421875 14.296875 C16.24893482 16.19961804 16.13556568 18.10208046 16 20 C13.03 20 10.06 20 7 20 C6.773125 18.576875 6.54625 17.15375 6.3125 15.6875 C5.84179281 13.19940596 5.84179281 13.19940596 5 11 C4.13375 10.484375 3.2675 9.96875 2.375 9.4375 C1.59125 8.963125 0.8075 8.48875 0 8 C-0.46463865 5.21216812 -0.23352135 2.84896048 0 0 Z " fill="#000000" transform="translate(68,164)"/>
</svg>
