<?xml version="1.0" standalone="no"?>
<!DOCTYPE svg PUBLIC "-//W3C//DTD SVG 20010904//EN"
 "http://www.w3.org/TR/2001/REC-SVG-20010904/DTD/svg10.dtd">
<svg version="1.0" xmlns="http://www.w3.org/2000/svg"
 width="512.000000pt" height="512.000000pt" viewBox="0 0 512.000000 512.000000"
 preserveAspectRatio="xMidYMid meet">

<g transform="translate(0.000000,512.000000) scale(0.100000,-0.100000)"
fill="#000000" stroke="none">
<path d="M3854 4896 c-396 -164 -825 -584 -1216 -1189 -43 -67 -79 -126 -81
-131 -2 -6 -53 33 -113 85 -517 452 -1072 695 -1602 702 l-134 2 -24 -28 c-24
-28 -24 -30 -24 -241 l0 -213 -87 -17 c-137 -27 -191 -44 -208 -68 -12 -18
-15 -54 -15 -180 l0 -158 -103 0 c-87 0 -110 -3 -147 -22 -24 -13 -53 -36 -64
-51 -21 -28 -21 -30 -21 -1560 l0 -1532 23 -33 c52 -72 -27 -67 1092 -67 1155
0 1011 -13 1272 112 l158 75 172 -82 c106 -50 199 -88 241 -96 56 -12 233 -14
1046 -12 l977 3 41 27 c80 53 74 -88 71 1616 l-3 1521 -21 28 c-40 53 -79 67
-196 71 l-106 4 -4 160 c-3 159 -3 160 -30 183 -25 21 -123 49 -240 70 l-38 6
0 214 c0 209 -1 215 -23 241 -23 26 -24 26 -156 26 -123 -1 -201 -7 -243 -18
-16 -5 -17 16 -20 265 -3 255 -4 272 -23 290 -35 34 -64 34 -151 -3z m9 -218
c3 -24 5 -642 6 -1374 l1 -1331 -94 -46 c-330 -159 -752 -570 -1060 -1032
l-66 -99 0 1315 0 1315 61 99 c283 459 580 807 881 1034 82 62 242 161 259
161 4 0 9 -19 12 -42z m-2796 -494 c436 -64 891 -299 1309 -678 l101 -91 8
-339 c4 -186 4 -797 0 -1358 l-8 -1019 -36 33 c-61 57 -141 122 -238 192 -412
296 -880 482 -1270 503 l-113 6 0 1389 0 1388 73 -6 c39 -3 118 -12 174 -20z
m3241 -1366 l2 -1388 -54 0 c-92 0 -277 -28 -418 -64 -243 -61 -527 -189 -766
-345 -74 -49 -118 -73 -112 -61 33 61 233 295 364 425 215 214 403 351 584
425 42 18 86 41 97 51 20 19 20 34 23 1169 l2 1148 30 7 c36 8 197 23 225 21
20 -1 20 -9 23 -1388z m-3648 -297 c0 -1158 1 -1200 19 -1222 17 -22 28 -24
167 -30 315 -15 559 -81 866 -235 97 -49 288 -160 288 -168 0 -2 -48 12 -107
29 -234 71 -448 104 -724 112 -235 7 -471 -13 -637 -54 l-22 -5 0 1370 0 1371
63 14 c34 9 68 16 75 16 9 1 12 -245 12 -1198z m3880 1184 c19 -4 43 -9 53
-11 16 -5 17 -79 17 -1376 l0 -1370 -23 6 c-13 3 -82 16 -153 28 -175 30 -605
33 -784 5 -140 -22 -311 -59 -421 -92 -45 -14 -84 -24 -85 -22 -7 6 185 117
301 175 290 144 598 222 876 222 93 0 102 2 124 25 l25 24 0 1201 c0 1139 1
1201 18 1196 9 -2 33 -7 52 -11z m-4190 -1784 l0 -1380 24 -28 24 -28 844 0
843 0 93 48 92 47 58 -29 c108 -55 110 -49 -35 -118 -70 -34 -148 -67 -173
-72 -29 -7 -386 -11 -997 -11 l-953 0 0 1475 0 1475 90 0 90 0 0 -1379z m4600
-96 l0 -1475 -956 0 -955 0 -75 25 c-41 14 -118 47 -171 74 l-98 48 80 40 79
40 100 -48 99 -49 856 2 856 3 2 1395 c2 767 5 1401 8 1408 3 8 31 12 90 12
l85 0 0 -1475z m-3492 -999 c156 -24 322 -63 476 -113 224 -74 233 -73 -661
-73 l-764 0 3 72 3 72 55 12 c48 11 211 36 320 48 78 9 470 -4 568 -18z m2987
-10 c82 -14 153 -30 158 -35 4 -4 7 -37 5 -72 l-3 -64 -761 -3 c-890 -3 -884
-3 -658 71 159 52 320 89 479 111 169 24 175 24 410 21 182 -3 246 -8 370 -29z"/>
<path d="M1071 3613 c-12 -10 -24 -34 -27 -53 -10 -62 11 -75 186 -119 316
-79 606 -221 901 -442 77 -57 114 -79 136 -79 39 0 76 40 76 82 0 39 -35 71
-203 189 -286 200 -605 347 -900 415 -126 29 -141 29 -169 7z"/>
<path d="M1093 2949 c-27 -10 -53 -47 -53 -76 0 -46 39 -71 140 -93 298 -63
628 -219 925 -435 66 -48 129 -92 141 -97 48 -22 112 41 98 98 -14 53 -348
280 -587 397 -249 123 -598 231 -664 206z"/>
<path d="M1065 2175 c-26 -25 -32 -63 -15 -94 11 -21 43 -35 120 -51 323 -70
655 -228 971 -464 58 -44 111 -76 125 -76 29 0 71 37 79 71 9 36 -25 73 -149
164 -305 222 -632 378 -956 455 -113 27 -145 26 -175 -5z"/>
</g>
</svg>
