<?xml version="1.0" standalone="no"?>
<!DOCTYPE svg PUBLIC "-//W3C//DTD SVG 20010904//EN"
 "http://www.w3.org/TR/2001/REC-SVG-20010904/DTD/svg10.dtd">
<svg version="1.0" xmlns="http://www.w3.org/2000/svg"
 width="512.000000pt" height="479.000000pt" viewBox="0 0 512.000000 479.000000"
 preserveAspectRatio="xMidYMid meet">
<metadata>
Created by potrace 1.16, written by Peter Selinger 2001-2019
</metadata>
<g transform="translate(0.000000,479.000000) scale(0.100000,-0.100000)"
fill="#000000" stroke="none">
<path d="M2264 4774 c-607 -73 -1121 -320 -1531 -735 -405 -410 -652 -898
-719 -1420 -23 -185 -16 -553 15 -724 106 -593 377 -1192 755 -1670 163 -206
185 -225 268 -225 47 0 70 7 134 40 l77 40 66 -27 c80 -32 195 -36 281 -10 30
9 143 69 250 134 220 133 230 144 250 266 13 86 -4 212 -54 385 -169 585 -601
1325 -910 1559 -86 65 -150 93 -214 93 -70 0 -99 -14 -216 -103 -55 -42 -104
-73 -109 -70 -15 9 0 232 24 345 129 638 756 1162 1564 1309 163 30 531 33
705 6 242 -38 453 -103 652 -203 196 -97 334 -197 497 -357 216 -213 354 -442
426 -708 27 -101 52 -328 41 -372 l-6 -27 -98 75 c-53 42 -112 87 -131 102
-26 22 -46 28 -97 31 -104 7 -167 -30 -329 -192 -323 -325 -625 -862 -801
-1428 -88 -284 -89 -457 -4 -560 41 -49 309 -228 394 -261 140 -57 275 -54
396 7 l65 32 60 -38 c123 -79 170 -74 261 25 83 91 242 306 340 458 105 165
276 508 343 689 98 266 176 579 201 802 15 143 12 438 -5 575 -69 532 -329
1044 -721 1424 -422 407 -936 663 -1477 734 -146 19 -485 19 -643 -1z m613
-209 c489 -64 930 -280 1335 -656 364 -336 613 -815 683 -1310 19 -135 21
-402 5 -539 -52 -425 -226 -917 -469 -1320 -109 -180 -331 -488 -354 -490 -4
0 -26 17 -50 39 -83 76 -126 81 -208 22 -85 -60 -118 -74 -180 -74 -62 0 -140
31 -244 97 l-57 37 48 42 c289 254 780 1150 908 1656 12 50 25 94 29 97 9 10
122 -102 163 -161 41 -60 78 -80 127 -71 74 14 88 54 107 313 36 481 -141 934
-509 1301 -344 343 -770 552 -1286 628 -144 21 -446 29 -590 15 -439 -42 -849
-197 -1220 -459 -95 -67 -342 -311 -405 -399 -157 -220 -252 -438 -297 -688
-21 -115 -21 -397 0 -550 14 -101 18 -112 46 -137 33 -30 85 -37 121 -18 11 6
44 43 73 83 30 39 66 83 80 96 l26 23 6 -38 c20 -116 61 -242 152 -474 177
-448 497 -984 722 -1209 l80 -80 -75 -46 c-130 -78 -193 -79 -310 -4 -89 57
-123 53 -201 -28 -23 -24 -49 -43 -57 -43 -17 0 -138 147 -243 295 -322 454
-553 1033 -613 1540 -16 130 -13 421 4 548 46 323 159 620 340 891 413 618
977 969 1717 1070 143 19 449 20 596 1z m1228 -2377 c-72 -348 -397 -1019
-683 -1408 -70 -95 -166 -204 -203 -230 l-28 -21 5 38 c33 242 207 703 385
1016 140 245 316 485 446 607 48 44 88 78 90 76 2 -2 -3 -37 -12 -78z m-3065
8 c320 -267 778 -1129 855 -1609 18 -110 11 -119 -51 -67 -164 141 -414 514
-604 905 -131 269 -238 559 -265 714 -17 96 -18 111 -7 111 4 0 37 -24 72 -54z"/>
<path d="M2486 3740 c-66 -20 -127 -82 -146 -151 -6 -19 -10 -207 -10 -441 l0
-408 -69 0 c-230 0 -427 -180 -476 -434 -42 -219 9 -400 155 -546 121 -122
237 -170 412 -170 169 0 286 48 403 165 47 47 81 92 103 137 61 124 64 156 69
655 l5 451 36 -5 c147 -20 257 -91 281 -180 15 -54 14 -69 -14 -205 -33 -161
-33 -192 4 -229 33 -33 79 -38 134 -16 41 18 158 142 220 235 101 150 147 282
147 418 0 153 -48 253 -179 376 -171 160 -384 247 -800 328 -157 30 -223 35
-275 20z m230 -225 c377 -75 555 -146 702 -280 115 -105 140 -209 86 -355 -15
-39 -30 -68 -33 -63 -4 4 -13 31 -20 58 -29 119 -122 219 -257 275 -93 38
-236 63 -342 58 -77 -3 -86 -5 -108 -31 l-24 -28 0 -462 c0 -255 -5 -501 -10
-547 -18 -149 -86 -251 -208 -311 -40 -20 -62 -24 -152 -24 -96 0 -110 2 -158
28 -159 84 -237 245 -202 419 40 205 199 319 370 267 46 -13 104 -13 130 1 48
26 50 47 50 543 0 255 3 467 7 470 10 11 31 9 169 -18z"/>
</g>
</svg>
