<?xml version="1.0" standalone="no"?>
<!DOCTYPE svg PUBLIC "-//W3C//DTD SVG 20010904//EN"
 "http://www.w3.org/TR/2001/REC-SVG-20010904/DTD/svg10.dtd">
<svg version="1.0" xmlns="http://www.w3.org/2000/svg"
 width="512.000000pt" height="512.000000pt" viewBox="0 0 512.000000 512.000000"
 preserveAspectRatio="xMidYMid meet">

<g transform="translate(0.000000,512.000000) scale(0.100000,-0.100000)"
fill="#000000" stroke="none">
<path d="M1209 5105 c-376 -71 -672 -357 -752 -725 l-22 -100 -177 0 c-193 0
-220 -6 -244 -51 -27 -52 -8 -115 41 -137 19 -9 230 -12 840 -12 l815 0 0
-1074 0 -1074 -41 -37 c-126 -114 -272 -111 -411 7 -211 178 -462 181 -663 7
-33 -28 -79 -60 -103 -71 -99 -45 -208 -30 -303 42 -40 30 -63 40 -91 40 -52
0 -88 -33 -95 -88 -6 -41 -4 -45 45 -91 122 -119 317 -159 484 -102 65 22 117
54 184 112 70 61 126 83 204 83 78 0 134 -22 204 -83 65 -57 109 -83 178 -109
166 -62 352 -25 493 99 82 72 133 93 220 92 86 0 122 -15 211 -89 214 -177
454 -177 669 0 90 74 124 89 210 89 87 1 138 -20 220 -92 139 -122 319 -160
487 -102 65 22 117 54 184 112 70 61 126 83 204 83 78 0 134 -22 204 -83 65
-57 109 -83 178 -109 166 -62 366 -21 490 99 49 46 51 50 45 91 -7 55 -43 88
-95 88 -28 0 -51 -10 -91 -40 -123 -93 -257 -91 -375 6 l-56 45 0 1075 0 1074
270 0 c290 0 311 3 336 51 18 35 18 63 0 98 -25 48 -45 51 -341 51 l-275 0 0
26 c0 45 -40 186 -74 260 -48 103 -96 174 -178 260 -125 132 -270 217 -448
266 -122 33 -338 33 -459 0 -167 -45 -302 -122 -424 -241 -88 -85 -151 -174
-202 -283 -36 -78 -75 -214 -75 -260 l0 -28 -160 0 c-88 0 -160 1 -160 3 0 1
-9 43 -19 93 -71 345 -340 624 -690 716 -101 26 -290 33 -392 13z m309 -201
c281 -58 502 -270 572 -548 19 -77 20 -115 20 -1200 l0 -1121 -100 -1 -100 0
0 1111 c0 951 -2 1119 -15 1168 -62 239 -282 408 -529 407 -219 -1 -431 -157
-503 -370 l-22 -65 -101 -3 -101 -3 7 38 c11 61 52 172 80 222 163 283 481
429 792 365z m2247 -14 c129 -41 222 -96 315 -190 93 -92 146 -181 192 -315
l23 -70 3 -1141 3 -1140 -101 0 -100 0 0 1101 c0 1066 -1 1104 -20 1179 -11
43 -34 103 -52 134 -40 71 -129 160 -200 200 -68 39 -191 72 -267 72 -136 -1
-279 -59 -375 -155 -71 -70 -107 -127 -137 -219 l-22 -66 -98 0 c-115 0 -112
-4 -78 106 82 266 289 457 563 520 88 20 261 12 351 -16z m-2240 -409 c68 -34
121 -86 155 -155 l20 -41 -322 -3 c-176 -1 -323 0 -325 2 -9 8 40 89 79 131
67 74 151 106 261 101 51 -3 83 -11 132 -35z m2131 24 c27 -8 72 -30 99 -50
48 -34 125 -133 125 -161 0 -12 -52 -14 -320 -14 -256 0 -320 3 -320 13 0 20
57 105 93 139 85 78 210 107 323 73z m244 -565 l0 -140 -795 0 -795 0 0 140 0
140 795 0 795 0 0 -140z m0 -440 l0 -100 -795 0 -795 0 0 100 0 100 795 0 795
0 0 -100z m0 -440 l0 -140 -795 0 -795 0 0 140 0 140 795 0 795 0 0 -140z m0
-439 l0 -100 -196 -3 -196 -3 -24 -28 c-33 -38 -33 -96 0 -134 l24 -28 196 -3
196 -3 0 -194 0 -193 -42 -37 c-67 -58 -122 -79 -203 -79 -86 0 -137 21 -220
93 -116 100 -256 143 -395 122 -91 -13 -195 -62 -265 -124 -81 -71 -128 -91
-215 -91 -84 0 -142 24 -212 87 l-38 34 0 192 0 191 190 0 190 0 32 29 c27 24
33 36 33 71 0 35 -6 47 -33 71 l-32 29 -190 0 -190 0 0 100 0 100 795 0 795 0
0 -99z"/>
<path d="M3064 2510 c-55 -22 -72 -108 -31 -155 14 -17 36 -28 63 -32 36 -5
46 -1 75 25 28 25 34 37 34 72 0 72 -72 118 -141 90z"/>
<path d="M791 1214 c-72 -19 -134 -54 -206 -116 -82 -70 -124 -88 -210 -88
-79 0 -125 17 -199 74 -62 47 -96 48 -142 2 -58 -58 -43 -112 48 -181 86 -64
154 -87 273 -93 147 -6 232 25 360 133 82 69 109 80 205 80 97 0 130 -14 217
-88 108 -93 196 -127 327 -127 139 0 232 38 355 143 69 59 133 81 215 75 73
-6 124 -30 197 -94 30 -25 88 -63 129 -83 74 -35 77 -36 200 -36 123 0 126 0
200 36 41 20 100 58 130 84 75 65 141 95 211 95 81 0 135 -22 218 -91 122 -99
201 -129 340 -129 132 1 213 33 336 136 82 69 109 79 205 79 97 0 130 -14 217
-88 108 -93 196 -127 327 -127 105 0 192 26 276 82 105 70 127 133 66 194 -46
46 -80 45 -142 -2 -74 -57 -120 -74 -199 -74 -86 0 -128 18 -210 88 -108 92
-209 132 -335 132 -126 0 -227 -40 -335 -132 -82 -70 -124 -88 -210 -88 -87 0
-130 19 -221 94 -108 89 -202 126 -324 126 -124 0 -231 -41 -334 -129 -88 -75
-116 -86 -216 -86 -100 0 -128 11 -216 86 -145 124 -313 160 -481 104 -81 -27
-108 -43 -189 -112 -74 -62 -126 -83 -209 -83 -86 0 -128 18 -210 88 -33 28
-81 63 -106 76 -98 54 -245 70 -358 40z"/>
<path d="M848 420 c-110 -19 -165 -47 -287 -147 -120 -98 -257 -96 -385 6 -75
60 -161 31 -173 -57 -6 -41 -4 -45 45 -92 179 -172 460 -171 657 1 80 70 133
93 215 93 81 0 135 -23 215 -93 198 -171 465 -173 659 -3 82 72 133 95 215 95
82 1 137 -22 221 -92 211 -175 464 -173 668 5 72 63 132 88 213 87 81 0 130
-22 214 -94 73 -62 135 -95 217 -114 159 -37 314 3 443 116 80 70 133 93 215
93 81 0 135 -23 215 -93 118 -102 256 -145 401 -124 99 14 206 67 264 129 39
43 42 49 37 88 -12 86 -99 114 -173 55 -135 -108 -273 -104 -408 11 -111 96
-206 133 -336 133 -130 0 -225 -37 -336 -133 -78 -66 -149 -93 -229 -87 -72 5
-123 30 -196 93 -151 131 -359 164 -532 86 -34 -16 -96 -57 -137 -91 -149
-123 -271 -123 -420 0 -41 34 -103 75 -137 91 -173 78 -380 45 -532 -86 -73
-63 -124 -88 -196 -93 -80 -6 -151 21 -229 87 -32 28 -77 61 -100 74 -80 47
-218 72 -308 56z"/>
</g>
</svg>
