<?xml version="1.0" standalone="no"?>
<!DOCTYPE svg PUBLIC "-//W3C//DTD SVG 20010904//EN"
 "http://www.w3.org/TR/2001/REC-SVG-20010904/DTD/svg10.dtd">
<svg version="1.0" xmlns="http://www.w3.org/2000/svg"
 width="512.000000pt" height="512.000000pt" viewBox="0 0 512.000000 512.000000"
 preserveAspectRatio="xMidYMid meet">
<metadata>
Created by potrace 1.16, written by Peter Selinger 2001-2019
</metadata>
<g transform="translate(0.000000,512.000000) scale(0.100000,-0.100000)"
fill="#000000" stroke="none">
<path d="M180 4940 c-20 -20 -20 -33 -20 -1500 0 -1467 0 -1480 20 -1500 19
-19 33 -20 214 -20 l193 0 7 -52 c3 -29 6 -65 6 -80 l0 -28 -120 0 c-140 0
-160 -10 -160 -80 0 -71 19 -80 165 -80 121 0 125 -1 129 -22 3 -13 23 -279
46 -593 22 -314 43 -591 46 -617 l6 -48 -256 0 c-243 0 -257 -1 -276 -20 -27
-27 -27 -93 0 -120 20 -20 33 -20 2380 -20 2347 0 2360 0 2380 20 27 27 27 93
0 120 -19 19 -33 20 -304 20 l-283 0 23 47 c18 34 24 63 24 109 0 63 1 64 56
126 141 158 252 373 311 602 24 92 26 123 30 358 4 218 3 265 -11 305 -9 25
-16 48 -16 50 0 2 34 3 75 3 130 0 115 -192 115 1520 0 1467 0 1480 -20 1500
-20 20 -33 20 -2380 20 -2347 0 -2360 0 -2380 -20z m4620 -1500 l0 -1360 -165
0 -164 0 -58 59 c-73 73 -140 101 -247 101 -57 0 -83 -5 -120 -24 l-47 -24
-39 22 c-35 18 -40 26 -40 56 0 19 -9 53 -19 75 -20 46 -89 112 -125 121 -15
3 -27 15 -30 30 -9 36 -75 105 -121 125 -26 12 -63 19 -105 19 -42 0 -79 -7
-105 -19 -46 -20 -112 -89 -121 -125 -3 -15 -15 -27 -30 -30 -36 -9 -105 -75
-125 -121 -10 -22 -19 -57 -19 -77 0 -34 -4 -40 -41 -58 l-40 -21 -47 22 c-67
33 -145 36 -233 9 -62 -18 -81 -30 -131 -81 l-60 -59 -215 0 -216 0 7 31 c3
17 6 53 6 80 0 46 2 49 25 49 36 0 65 33 65 75 0 45 -78 359 -95 382 -12 17
-42 18 -361 23 l-349 5 -36 290 c-20 160 -40 298 -44 308 -4 10 -84 57 -186
108 -192 95 -232 106 -269 69 -20 -20 -27 -71 -14 -105 4 -9 75 -50 158 -92
83 -41 152 -76 154 -78 3 -3 62 -463 62 -487 0 -17 -22 -18 -330 -18 -307 0
-331 -1 -348 -18 -21 -21 -102 -329 -102 -387 0 -42 29 -75 65 -75 23 0 25 -3
25 -49 0 -27 3 -63 6 -80 l7 -31 -132 0 -131 0 0 1360 0 1360 2240 0 2240 0 0
-1360z m-2768 -955 c9 -38 18 -73 18 -77 0 -5 -310 -8 -690 -8 -379 0 -690 3
-690 6 0 7 29 123 35 142 4 10 140 12 657 10 l652 -3 18 -70z m1531 -27 c9 -7
25 -38 34 -68 18 -54 19 -55 78 -75 47 -16 62 -26 69 -47 18 -50 -2 -81 -64
-101 -30 -10 -62 -26 -70 -36 -47 -55 -133 -55 -180 0 -8 10 -40 26 -70 36
-62 20 -82 51 -64 101 7 21 22 31 69 47 59 20 60 21 78 75 19 61 38 80 77 80
14 0 34 -6 43 -12z m-1583 -237 c0 -25 -128 -1760 -135 -1838 l-7 -63 -478 0
-478 0 -7 62 c-7 79 -135 1814 -135 1839 0 18 22 19 620 19 598 0 620 -1 620
-19z m978 -191 c33 -22 70 -40 82 -40 12 0 49 18 82 40 l60 40 29 -24 c16 -13
45 -30 66 -36 21 -7 47 -20 58 -30 50 -44 87 -55 185 -55 98 0 135 11 185 55
11 10 37 23 58 30 21 6 51 23 67 36 32 28 47 25 103 -22 41 -35 94 -32 142 6
45 36 73 44 124 37 54 -7 89 -33 117 -88 26 -53 30 -55 138 -63 138 -11 185
-72 186 -243 l0 -73 -1120 0 -1120 0 0 73 c1 171 48 232 186 243 109 8 111 10
139 65 20 39 36 55 68 70 64 28 97 24 165 -21z m-688 -114 c0 -2 -7 -23 -15
-46 -8 -23 -15 -58 -15 -76 l0 -34 -60 0 c-68 0 -67 -3 -54 108 l7 52 68 0
c38 0 69 -2 69 -4z m-30 -425 c0 -420 231 -858 584 -1108 l89 -63 -453 0 -452
0 6 48 c3 26 24 303 46 617 23 314 43 580 46 593 4 20 10 22 69 22 l65 0 0
-109z m2390 -73 c-1 -50 -30 -183 -59 -271 -49 -147 -140 -310 -234 -421 -33
-38 -33 -39 -69 -26 -24 9 -39 22 -43 37 -8 35 -75 104 -120 124 -53 25 -157
25 -210 0 -46 -20 -112 -89 -121 -125 -3 -15 -15 -27 -30 -30 -36 -9 -105 -75
-125 -121 -25 -54 -25 -157 1 -212 l19 -42 -62 -3 c-393 -19 -767 193 -990
562 -87 144 -155 335 -172 488 l-7 62 1111 0 1111 0 0 -22z m-587 -720 c9 -7
25 -38 34 -68 18 -54 19 -55 78 -75 47 -16 62 -26 69 -47 18 -50 -2 -81 -64
-101 -30 -10 -62 -26 -70 -36 -47 -55 -133 -55 -180 0 -8 10 -40 26 -70 36
-62 20 -82 51 -64 101 7 21 22 31 69 47 59 20 60 21 78 75 19 61 38 80 77 80
14 0 34 -6 43 -12z"/>
<path d="M2360 4379 c-225 -58 -412 -208 -515 -414 -63 -125 -85 -220 -85
-365 0 -146 22 -240 87 -370 40 -81 62 -109 148 -195 86 -86 114 -108 195
-148 130 -65 224 -87 370 -87 145 0 240 22 365 85 204 102 359 295 415 519 27
109 27 283 0 392 -72 285 -299 512 -584 584 -108 27 -291 27 -396 -1z m410
-183 c178 -61 325 -211 392 -396 20 -56 23 -84 23 -200 0 -116 -3 -144 -23
-200 -68 -188 -222 -341 -403 -401 -63 -20 -93 -24 -204 -24 -110 0 -140 4
-195 24 -185 65 -333 212 -397 391 -35 98 -44 263 -19 360 93 363 474 569 826
446z"/>
<path d="M2340 3900 c-19 -19 -20 -33 -20 -300 0 -393 -17 -384 369 -191 142
72 261 137 265 146 3 9 6 29 6 45 0 16 -3 36 -6 45 -4 9 -123 74 -265 146
-275 137 -310 148 -349 109z m245 -247 c52 -26 95 -50 95 -53 0 -5 -185 -100
-195 -100 -3 0 -5 45 -5 100 0 55 2 100 5 100 3 0 48 -21 100 -47z"/>
<path d="M4135 3181 c-46 -20 -112 -89 -121 -125 -3 -15 -15 -27 -30 -30 -37
-10 -105 -76 -126 -124 -25 -57 -25 -148 0 -204 23 -53 87 -111 138 -128 22
-7 48 -20 59 -30 50 -44 87 -55 185 -55 98 0 135 11 185 55 11 10 37 23 59 30
50 16 114 74 137 125 25 53 25 157 0 210 -20 46 -89 112 -125 121 -15 3 -27
15 -30 30 -9 36 -75 105 -121 125 -26 12 -63 19 -105 19 -42 0 -79 -7 -105
-19z m148 -163 c9 -7 25 -38 34 -68 18 -54 19 -55 78 -75 47 -16 62 -26 69
-47 18 -50 -2 -81 -64 -101 -30 -10 -62 -26 -70 -36 -47 -55 -133 -55 -180 0
-8 10 -40 26 -70 36 -62 20 -82 51 -64 101 7 21 22 31 69 47 59 20 60 21 78
75 19 61 38 80 77 80 14 0 34 -6 43 -12z"/>
<path d="M1233 1906 c-101 -33 -190 -113 -241 -216 -25 -50 -27 -65 -27 -170
0 -107 2 -119 29 -175 38 -77 114 -153 191 -191 56 -27 68 -29 175 -29 107 0
119 2 175 29 77 38 153 114 191 191 27 56 29 68 29 175 0 107 -2 119 -29 175
-38 77 -114 153 -191 190 -52 26 -72 30 -160 32 -64 2 -115 -2 -142 -11z m215
-172 c84 -35 141 -120 142 -212 l0 -52 -182 122 -183 122 40 18 c49 22 133 23
183 2z m7 -426 c-151 -67 -325 46 -325 212 l0 50 182 -122 183 -122 -40 -18z"/>
</g>
</svg>
