<?xml version="1.0" standalone="no"?>
<!DOCTYPE svg PUBLIC "-//W3C//DTD SVG 20010904//EN"
 "http://www.w3.org/TR/2001/REC-SVG-20010904/DTD/svg10.dtd">
<svg version="1.0" xmlns="http://www.w3.org/2000/svg"
 width="256.000000pt" height="256.000000pt" viewBox="0 0 256.000000 256.000000"
 preserveAspectRatio="xMidYMid meet">
<metadata>
Created by potrace 1.16, written by Peter Selinger 2001-2019
</metadata>
<g transform="translate(0.000000,256.000000) scale(0.100000,-0.100000)"
fill="#000000" stroke="none">
<path d="M79 2538 c-20 -11 -46 -38 -58 -58 -27 -49 -28 -133 -2 -175 10 -16
108 -133 219 -258 l200 -229 -38 -62 c-52 -85 -97 -193 -127 -306 -31 -117
-42 -333 -24 -460 39 -264 156 -489 352 -675 222 -211 485 -315 799 -315 141
0 257 18 317 48 161 84 197 308 70 448 -49 56 -67 96 -67 154 0 83 46 153 122
185 74 30 141 15 217 -50 73 -63 112 -78 201 -79 89 -1 147 21 203 78 49 49
66 83 83 173 30 158 14 392 -38 561 -67 220 -244 461 -431 590 -382 263 -892
284 -1273 52 l-63 -38 -228 201 c-125 110 -241 209 -258 219 -42 25 -129 24
-176 -4z m165 -105 c25 -21 205 -177 400 -348 l355 -310 -106 -107 -106 -106
-281 321 c-155 177 -312 357 -349 399 -75 87 -85 123 -45 165 33 35 77 30 132
-14z m1338 -218 c289 -50 551 -220 709 -460 134 -203 186 -391 176 -642 -6
-158 -16 -200 -59 -249 -79 -90 -184 -95 -283 -13 -68 56 -115 78 -183 85 -82
9 -156 -14 -217 -68 -67 -59 -95 -123 -95 -218 0 -89 17 -132 82 -208 49 -57
73 -123 62 -170 -23 -94 -79 -146 -180 -167 -92 -19 -291 -19 -394 1 -334 63
-627 291 -771 599 -64 137 -90 248 -96 415 -6 167 14 291 68 428 33 82 90 192
100 192 3 0 58 -60 121 -132 64 -73 141 -157 171 -185 51 -48 60 -53 101 -53
36 0 46 -4 46 -16 0 -44 28 -103 70 -145 37 -39 59 -51 126 -72 98 -31 231
-57 290 -57 62 0 66 14 44 146 -26 152 -64 266 -103 311 -34 38 -117 83 -154
83 -21 0 -23 5 -23 46 0 42 -4 50 -61 110 -34 35 -117 112 -185 171 -68 59
-124 110 -124 114 0 11 176 95 247 119 149 49 356 63 515 35z m-482 -554 c0
-20 -179 -201 -199 -201 -8 0 -23 8 -33 17 -18 16 -15 21 89 125 101 101 108
106 125 91 10 -9 18 -23 18 -32z m137 -142 c44 -16 71 -48 94 -108 17 -47 61
-232 56 -238 -1 -1 -43 7 -92 17 -123 25 -199 55 -229 90 -97 116 29 293 171
239z"/>
<path d="M1575 1941 c-87 -40 -135 -120 -135 -223 1 -142 97 -238 240 -238
144 0 240 96 240 240 0 104 -53 187 -142 224 -52 22 -153 20 -203 -3z m183
-91 c130 -79 74 -280 -78 -280 -85 0 -150 65 -150 150 0 116 129 190 228 130z"/>
<path d="M2013 1454 c-62 -37 -93 -95 -93 -174 0 -80 31 -138 94 -175 33 -20
56 -25 106 -25 123 0 200 77 200 200 0 123 -77 200 -201 200 -51 0 -73 -5
-106 -26z m183 -98 c28 -28 34 -42 34 -76 0 -34 -6 -48 -34 -76 -28 -28 -42
-34 -76 -34 -34 0 -48 6 -76 34 -28 28 -34 42 -34 76 0 34 6 48 34 76 28 28
42 34 76 34 34 0 48 -6 76 -34z"/>
<path d="M735 1101 c-87 -40 -135 -120 -135 -223 1 -142 97 -238 240 -238 144
0 240 96 240 240 0 104 -53 187 -142 224 -52 22 -153 20 -203 -3z m183 -91
c130 -79 74 -280 -78 -280 -85 0 -150 65 -150 150 0 85 65 150 150 150 27 0
58 -8 78 -20z"/>
<path d="M1173 654 c-62 -37 -93 -95 -93 -174 0 -80 31 -138 94 -175 60 -35
152 -35 212 0 63 37 94 95 94 175 0 123 -77 200 -201 200 -51 0 -73 -5 -106
-26z m183 -98 c28 -28 34 -42 34 -76 0 -34 -6 -48 -34 -76 -28 -28 -42 -34
-76 -34 -34 0 -48 6 -76 34 -28 28 -34 42 -34 76 0 34 6 48 34 76 28 28 42 34
76 34 34 0 48 -6 76 -34z"/>
</g>
</svg>
