<?xml version="1.0" standalone="no"?>
<!DOCTYPE svg PUBLIC "-//W3C//DTD SVG 20010904//EN"
 "http://www.w3.org/TR/2001/REC-SVG-20010904/DTD/svg10.dtd">
<svg version="1.0" xmlns="http://www.w3.org/2000/svg"
 width="256.000000pt" height="256.000000pt" viewBox="0 0 256.000000 256.000000"
 preserveAspectRatio="xMidYMid meet">
<metadata>
Created by potrace 1.16, written by Peter Selinger 2001-2019
</metadata>
<g transform="translate(0.000000,256.000000) scale(0.100000,-0.100000)"
fill="#000000" stroke="none">
<path d="M594 2528 c-39 -26 -56 -48 -85 -105 l-36 -72 -44 30 c-59 39 -128
61 -181 57 l-43 -3 0 -145 c1 -274 74 -454 223 -548 51 -33 138 -62 184 -62
l28 0 0 -182 -1 -183 -40 45 c-22 25 -70 89 -106 143 -62 92 -68 98 -97 95
-31 -3 -31 -4 -34 -64 -4 -87 32 -317 62 -397 14 -37 41 -91 60 -120 35 -53
133 -157 148 -157 4 0 8 -13 8 -30 l0 -30 -286 0 -286 0 -34 -34 c-32 -32 -34
-37 -34 -107 l0 -73 43 -40 44 -41 48 -210 c26 -116 54 -222 61 -237 32 -62
-40 -58 1084 -58 1124 0 1052 -4 1084 58 7 15 35 121 61 237 l48 210 44 41 43
40 0 73 c0 70 -2 75 -34 107 l-34 34 -286 0 -286 0 0 23 c0 14 22 43 62 82 80
77 132 160 162 254 28 90 59 303 54 381 -3 53 -4 55 -34 58 -29 3 -35 -3 -97
-95 -36 -54 -84 -118 -106 -143 l-40 -45 -1 183 0 182 28 0 c46 0 133 29 184
62 66 41 114 98 154 180 51 108 68 199 69 368 l0 145 -43 3 c-53 4 -122 -18
-181 -57 l-44 -30 -36 71 c-43 86 -108 138 -171 138 -64 0 -128 -51 -171 -137
l-36 -72 -44 30 c-59 39 -128 61 -181 57 l-43 -3 0 -145 c1 -274 74 -454 223
-548 51 -33 138 -62 184 -62 l28 0 0 -182 -1 -183 -40 45 c-22 25 -70 89 -106
143 -62 92 -68 98 -97 95 l-31 -3 1 -95 c1 -188 44 -371 112 -476 21 -33 66
-86 100 -119 40 -39 62 -68 62 -82 l0 -23 -560 0 -560 0 0 30 c0 17 4 30 8 30
15 0 113 104 148 157 19 29 46 83 60 120 30 80 66 310 62 397 -3 60 -3 61 -34
64 -29 3 -35 -3 -97 -95 -36 -54 -84 -118 -106 -143 l-40 -45 -1 183 0 182 28
0 c46 0 133 29 184 62 66 41 114 98 154 180 51 108 68 199 69 368 l0 145 -43
3 c-53 4 -122 -18 -181 -57 l-44 -30 -36 71 c-28 56 -47 79 -85 105 -64 44
-107 44 -172 1z m131 -89 c43 -38 60 -69 70 -126 6 -38 3 -47 -27 -86 -19 -25
-45 -65 -58 -91 -14 -25 -27 -46 -30 -46 -3 0 -16 21 -30 46 -13 26 -39 66
-58 91 -30 39 -33 48 -27 86 4 23 13 54 21 68 14 28 79 89 94 89 5 0 25 -14
45 -31z m1200 0 c43 -38 60 -69 70 -126 6 -38 3 -47 -27 -86 -19 -25 -45 -65
-58 -91 -14 -25 -27 -46 -30 -46 -3 0 -16 21 -30 46 -13 26 -39 66 -58 91 -30
39 -33 48 -27 86 4 23 13 54 21 68 14 28 79 89 94 89 5 0 25 -14 45 -31z
m-1560 -128 c87 -50 168 -147 231 -277 51 -106 57 -114 84 -114 27 0 33 8 84
114 42 87 71 131 118 181 57 62 146 125 176 125 19 0 15 -119 -8 -229 -48
-235 -164 -342 -370 -342 -206 0 -322 107 -370 341 -23 110 -27 230 -7 230 6
0 35 -13 62 -29z m1200 0 c87 -50 168 -147 231 -277 51 -106 57 -114 84 -114
27 0 33 8 84 114 42 87 71 131 118 181 57 62 146 125 176 125 19 0 15 -119 -8
-229 -48 -235 -164 -342 -370 -342 -206 0 -322 107 -370 341 -23 110 -27 230
-7 230 6 0 35 -13 62 -29z m-934 -1126 c5 -4 9 -52 9 -108 l-1 -102 -41 45
c-51 56 -94 146 -113 236 -26 123 -23 124 61 25 41 -50 79 -93 85 -96z m245
75 c-20 -94 -62 -183 -114 -240 l-41 -45 -1 98 0 99 63 72 c35 40 72 84 83 98
26 36 29 12 10 -82z m901 -16 l63 -72 0 -98 0 -98 -36 35 c-63 61 -133 238
-134 338 0 23 0 23 22 -5 12 -16 50 -61 85 -100z m299 15 c-19 -91 -73 -203
-120 -248 l-36 -35 0 98 0 97 70 80 c38 43 75 88 82 99 12 20 13 20 16 2 2
-10 -4 -52 -12 -93z m384 -559 c25 -25 25 -55 0 -80 -20 -20 -33 -20 -1180
-20 -1147 0 -1160 0 -1180 20 -11 11 -20 29 -20 40 0 11 9 29 20 40 20 20 33
20 1180 20 1147 0 1160 0 1180 -20z m-80 -187 c0 -5 -21 -100 -47 -212 -42
-183 -49 -204 -71 -212 -31 -12 -1933 -12 -1964 0 -22 8 -29 29 -71 212 -26
112 -47 207 -47 212 0 4 495 7 1100 7 605 0 1100 -3 1100 -7z"/>
</g>
</svg>
