<?xml version="1.0" standalone="no"?>
<!DOCTYPE svg PUBLIC "-//W3C//DTD SVG 20010904//EN"
 "http://www.w3.org/TR/2001/REC-SVG-20010904/DTD/svg10.dtd">
<svg version="1.0" xmlns="http://www.w3.org/2000/svg"
 width="128.000000pt" height="128.000000pt" viewBox="0 0 128.000000 128.000000"
 preserveAspectRatio="xMidYMid meet">
<metadata>
Created by potrace 1.16, written by Peter Selinger 2001-2019
</metadata>
<g transform="translate(0.000000,128.000000) scale(0.100000,-0.100000)"
fill="#000000" stroke="none">
<path d="M725 1270 c-3 -5 -1 -27 4 -47 9 -32 8 -40 -7 -50 -36 -25 -42 -35
-42 -63 0 -54 53 -85 101 -59 32 17 39 51 24 104 -14 43 -13 46 4 40 12 -4 21
2 29 20 11 23 9 26 -28 45 -43 22 -75 26 -85 10z"/>
<path d="M125 1217 c-92 -52 -114 -188 -43 -264 19 -20 19 -23 4 -29 -39 -15
-46 -55 -46 -251 0 -114 -8 -267 -20 -388 -11 -110 -20 -219 -20 -243 l0 -43
87 3 87 3 23 115 c13 63 28 140 34 170 l11 55 60 -173 60 -172 84 0 c45 0 85
4 89 9 3 6 -19 114 -50 241 -39 163 -55 251 -55 299 l0 69 66 -14 c36 -8 69
-12 74 -9 12 7 54 190 48 206 -3 8 -47 28 -98 44 -62 20 -97 37 -107 51 -8 12
-27 27 -42 34 l-28 11 24 46 c37 73 28 139 -25 197 -56 59 -146 73 -217 33z
m141 -43 c46 -22 77 -87 64 -134 -13 -44 -46 -78 -89 -90 -70 -19 -151 47
-151 122 0 49 69 118 118 118 13 0 39 -7 58 -16z m94 -304 c13 -13 20 -33 20
-56 0 -35 -1 -35 -32 -29 -18 4 -49 22 -68 41 -20 19 -40 34 -45 34 -14 0
-115 -80 -115 -91 0 -6 21 -33 48 -60 44 -46 52 -50 130 -66 l82 -16 0 -84 c0
-64 10 -128 45 -276 25 -105 48 -198 50 -204 3 -9 -8 -13 -34 -13 l-39 0 -73
210 c-65 187 -76 210 -95 210 -25 0 -20 17 -75 -257 l-32 -163 -38 0 c-22 0
-39 1 -39 3 0 1 9 92 20 202 12 125 20 274 20 398 0 248 -6 237 145 237 92 0
108 -3 125 -20z"/>
<path d="M995 1226 c-16 -8 -42 -26 -57 -42 -53 -58 -62 -124 -25 -197 l24
-46 -28 -11 c-15 -7 -34 -22 -42 -34 -10 -14 -45 -31 -107 -51 -51 -16 -95
-36 -98 -44 -6 -16 36 -199 48 -206 5 -3 38 1 74 9 l66 14 0 -69 c0 -48 -16
-136 -55 -299 -31 -127 -53 -235 -50 -241 4 -5 44 -9 89 -9 l84 0 60 172 60
173 11 -55 c6 -30 21 -107 34 -170 l23 -115 87 -3 87 -3 0 43 c0 24 -9 133
-20 243 -12 121 -20 274 -20 388 0 196 -7 236 -46 251 -15 6 -15 9 4 29 71 76
49 212 -43 264 -46 26 -113 30 -160 9z m129 -55 c88 -59 85 -166 -8 -210 -49
-24 -98 -16 -134 22 -38 40 -45 85 -22 133 33 68 107 93 164 55z m46 -301 c19
-19 20 -33 20 -217 0 -124 8 -273 20 -398 11 -110 20 -201 20 -202 0 -2 -17
-3 -39 -3 l-38 0 -32 163 c-55 274 -50 257 -75 257 -19 0 -30 -23 -95 -210
l-73 -210 -39 0 c-26 0 -37 4 -34 13 2 6 25 99 50 204 35 148 45 212 45 276
l0 84 83 16 c77 16 85 20 130 66 26 27 47 54 47 60 0 11 -101 91 -115 91 -5 0
-25 -15 -45 -34 -19 -19 -50 -37 -67 -41 -32 -6 -33 -6 -33 29 0 64 23 76 145
76 92 0 108 -3 125 -20z"/>
<path d="M493 1144 c-3 -9 -2 -33 3 -53 8 -31 6 -37 -11 -46 -11 -6 -26 -23
-33 -38 -29 -60 43 -120 97 -79 28 21 33 58 16 116 -7 25 -6 28 8 23 15 -5 37
17 37 37 0 6 -95 56 -105 56 -3 0 -8 -7 -12 -16z"/>
</g>
</svg>
