<?xml version="1.0" standalone="no"?>
<!DOCTYPE svg PUBLIC "-//W3C//DTD SVG 20010904//EN"
 "http://www.w3.org/TR/2001/REC-SVG-20010904/DTD/svg10.dtd">
<svg version="1.0" xmlns="http://www.w3.org/2000/svg"
 width="512.000000pt" height="512.000000pt" viewBox="0 0 512.000000 512.000000"
 preserveAspectRatio="xMidYMid meet">

<g transform="translate(0.000000,512.000000) scale(0.100000,-0.100000)"
fill="#000000" stroke="none">
<path d="M3065 5114 c-310 -36 -481 -80 -691 -179 -266 -125 -444 -285 -544
-488 -248 -502 189 -1044 970 -1201 69 -14 168 -29 220 -33 l95 -8 172 -270
c95 -148 180 -276 190 -282 26 -20 72 -15 96 10 18 18 33 74 81 304 l59 282
51 12 c91 21 258 80 353 124 264 123 474 325 556 535 90 230 46 472 -126 688
-209 263 -632 457 -1096 502 -96 9 -317 11 -386 4z m419 -169 c480 -56 880
-273 1016 -550 107 -219 67 -433 -119 -628 -157 -164 -383 -283 -669 -353 -87
-21 -117 -32 -128 -49 -8 -12 -33 -113 -57 -223 -23 -111 -44 -202 -47 -202
-3 0 -63 90 -134 200 -70 110 -136 204 -145 209 -9 5 -73 15 -142 21 -556 50
-997 299 -1111 628 -32 92 -32 240 0 326 33 90 79 161 157 241 283 291 837
443 1379 380z"/>
<path d="M2720 4480 l0 -80 200 0 200 0 0 80 0 80 -200 0 -200 0 0 -80z"/>
<path d="M3280 4480 l0 -80 80 0 80 0 0 80 0 80 -80 0 -80 0 0 -80z"/>
<path d="M3600 4480 l0 -80 200 0 200 0 0 80 0 80 -200 0 -200 0 0 -80z"/>
<path d="M2480 4160 l0 -80 480 0 480 0 0 80 0 80 -480 0 -480 0 0 -80z"/>
<path d="M3600 4160 l0 -80 200 0 200 0 0 80 0 80 -200 0 -200 0 0 -80z"/>
<path d="M2480 3840 l0 -80 160 0 160 0 0 80 0 80 -160 0 -160 0 0 -80z"/>
<path d="M2960 3840 l0 -80 440 0 440 0 0 80 0 80 -440 0 -440 0 0 -80z"/>
<path d="M1589 4627 c-41 -19 -111 -55 -155 -81 -474 -288 -606 -734 -330
-1120 88 -124 268 -267 434 -346 52 -25 71 -38 67 -50 -12 -42 -85 -383 -85
-400 0 -30 44 -70 76 -70 18 0 117 57 294 170 l266 169 90 -9 c188 -20 405 -9
624 32 96 18 119 25 142 49 35 35 36 72 2 106 -29 29 -28 29 -234 -8 -136 -24
-401 -31 -575 -16 l-90 8 -193 -122 c-106 -67 -194 -120 -196 -118 -2 2 10 60
25 129 16 69 29 135 29 147 0 33 -38 67 -110 98 -93 39 -204 106 -284 169
-323 259 -352 608 -74 887 84 83 173 144 312 214 128 64 146 83 132 138 -6 25
-50 57 -78 57 -7 0 -47 -15 -89 -33z"/>
<path d="M986 2464 c-257 -62 -439 -310 -423 -574 9 -143 63 -264 162 -362
l55 -56 -67 -21 c-248 -75 -443 -231 -544 -436 -48 -96 -53 -115 -112 -404
-72 -359 -74 -340 43 -383 123 -46 346 -106 490 -132 212 -39 366 -49 613 -43
338 8 595 55 905 164 154 54 148 26 78 379 -44 219 -67 313 -91 369 -102 235
-266 379 -547 480 l-88 31 46 43 c60 56 117 147 146 229 30 88 32 249 4 332
-32 95 -79 173 -141 235 -136 136 -342 194 -529 149z m298 -182 c91 -42 149
-100 194 -190 35 -72 37 -81 37 -172 0 -91 -2 -100 -37 -172 -45 -91 -103
-147 -196 -191 -61 -29 -76 -32 -162 -32 -86 0 -101 3 -162 32 -93 44 -151
100 -196 191 -35 72 -37 81 -37 171 0 87 3 102 32 163 40 85 97 147 172 186
78 42 122 52 213 48 61 -3 92 -11 142 -34z m52 -947 c249 -47 457 -169 558
-328 56 -88 80 -162 126 -392 22 -116 43 -218 46 -227 4 -14 -15 -23 -108 -52
-134 -43 -290 -78 -448 -103 -165 -26 -616 -25 -780 1 -155 24 -344 67 -463
106 -79 25 -97 34 -93 48 3 9 24 111 46 227 23 116 53 238 65 272 56 149 162
264 314 342 131 67 234 97 426 125 53 8 227 -3 311 -19z"/>
<path d="M3866 2464 c-257 -62 -439 -310 -423 -574 9 -143 63 -264 162 -362
l55 -56 -67 -21 c-248 -75 -443 -231 -544 -436 -48 -96 -53 -115 -112 -404
-72 -359 -74 -340 43 -383 212 -79 511 -146 753 -169 164 -15 533 -6 677 16
220 34 441 89 610 153 117 43 115 24 43 383 -59 292 -63 307 -114 409 -46 92
-64 116 -148 200 -106 105 -205 165 -372 224 l-89 32 46 43 c60 56 117 147
146 229 30 88 32 249 4 332 -32 95 -79 173 -141 235 -136 136 -342 194 -529
149z m298 -182 c91 -42 149 -100 194 -190 35 -72 37 -81 37 -172 0 -91 -2
-100 -37 -172 -45 -91 -103 -147 -196 -191 -61 -29 -76 -32 -162 -32 -86 0
-101 3 -162 32 -93 44 -151 100 -196 191 -35 72 -37 81 -37 171 0 87 3 102 32
163 40 85 97 147 172 186 78 42 122 52 213 48 61 -3 92 -11 142 -34z m52 -947
c249 -47 457 -169 558 -328 56 -88 80 -162 126 -392 22 -116 43 -218 46 -227
4 -14 -15 -23 -108 -52 -134 -43 -290 -78 -448 -103 -165 -26 -616 -25 -780 1
-155 24 -344 67 -463 106 -79 25 -97 34 -93 48 3 9 24 111 46 227 23 116 53
238 65 272 56 149 162 264 314 342 131 67 234 97 426 125 53 8 227 -3 311 -19z"/>
</g>
</svg>
