<?xml version="1.0" encoding="UTF-8"?>
<svg version="1.1" xmlns="http://www.w3.org/2000/svg" width="256" height="256">
<path d="M0 0 C0.7213916 0.21430664 1.4427832 0.42861328 2.18603516 0.64941406 C21.85513843 6.62450756 38.08207507 16.88589353 53 31 C53.82371094 31.75925781 54.64742187 32.51851562 55.49609375 33.30078125 C72.22101338 49.24294334 81.71318514 69.04437321 88 91 C88.36351562 92.2684375 88.72703125 93.536875 89.1015625 94.84375 C96.40396002 126.23723465 89.9151634 160.91205523 73.36328125 188.30078125 C54.55920543 218.21529989 26.04165083 237.47303784 -7.96875 246.03515625 C-28.67282212 250.69562442 -53.809973 250.11820246 -73.76171875 242.453125 C-79.69694665 241.25157799 -85.20824225 243.67656694 -90.625 245.875 C-105.94342822 251.75426827 -124.24525504 255.75909085 -140.375 250.375 C-142.81640625 249.25 -142.81640625 249.25 -145 248 C-145.73089844 247.5875 -146.46179688 247.175 -147.21484375 246.75 C-154.55478848 241.93871407 -158.67340242 234.60569889 -160.62060547 226.15527344 C-164.95825538 201.51384909 -154.28483677 177.24081469 -143 156 C-142.66661621 155.36126953 -142.33323242 154.72253906 -141.98974609 154.06445312 C-131.7185884 134.48614577 -118.15515358 116.90544189 -104 100 C-100.64404172 100.59927826 -98.62198774 101.84622436 -96 104 C-96.88839471 108.57594273 -99.59159651 111.30688839 -102.5625 114.75 C-115.1238638 129.76979202 -126.07983705 146.56148324 -135 164 C-135.38236816 164.74556152 -135.76473633 165.49112305 -136.15869141 166.25927734 C-145.16364855 184.03193089 -154.84825173 205.48126027 -149.7421875 225.765625 C-147.38804964 232.85281898 -143.87560193 236.66496027 -137.28125 240.08984375 C-122.87918531 245.83587298 -105.73133337 240.36644496 -92 235 C-93.50626953 234.21689453 -93.50626953 234.21689453 -95.04296875 233.41796875 C-104.73337154 228.25459992 -112.99659994 222.50460459 -121 215 C-121.52609863 214.51096191 -122.05219727 214.02192383 -122.59423828 213.51806641 C-129.64543362 206.90231633 -135.60744824 200.05710675 -141 192 C-139.86500606 188.70851757 -139.00716624 188.0040131 -135.875 186.25 C-134.451875 185.63125 -134.451875 185.63125 -133 185 C-132.42894531 185.78761719 -131.85789063 186.57523438 -131.26953125 187.38671875 C-111.59135879 214.0332113 -84.80637485 231.78699386 -51.75 236.875 C-20.71878882 241.16292764 9.2694396 232.94091249 34.70703125 215.1015625 C61.20550539 194.81032382 76.35016498 166.01486935 80.73876953 133.21923828 C81.41244072 127.49618114 81.75379636 121.75607127 82 116 C81.44014404 116.01571045 80.88028809 116.0314209 80.3034668 116.04760742 C77.7649141 116.10999848 75.22652271 116.14900218 72.6875 116.1875 C71.80642578 116.21263672 70.92535156 116.23777344 70.01757812 116.26367188 C69.17001953 116.27333984 68.32246094 116.28300781 67.44921875 116.29296875 C66.66893311 116.3086792 65.88864746 116.32438965 65.0847168 116.34057617 C62.35399151 115.89446284 61.69544021 115.17657864 60 113 C58.76242774 111.03483729 57.57694473 109.03652709 56.42578125 107.01953125 C56.09708542 106.44667892 55.76838959 105.8738266 55.42973328 105.28361511 C54.3861375 103.46245096 53.34924737 101.63756978 52.3125 99.8125 C51.60395552 98.57331608 50.89497587 97.33438088 50.18554688 96.09570312 C48.45198175 93.06666642 46.72440794 90.03426125 45 87 C34.96306963 85.93327381 34.96306963 85.93327381 25 87 C21.28653209 90.18297249 19.82187774 93.54265789 18 98 C14.23845432 99.88077284 9.70176726 99.22802645 5.5625 99.25 C4.59505859 99.270625 3.62761719 99.29125 2.63085938 99.3125 C1.23770508 99.32023437 1.23770508 99.32023437 -0.18359375 99.328125 C-1.03493896 99.3374707 -1.88628418 99.34681641 -2.76342773 99.35644531 C-5 99 -5 99 -6.77832031 97.95825195 C-8.67359937 94.92027566 -8.40754543 91.80970567 -8.36328125 88.33984375 C-8.36402901 87.22132774 -8.36402901 87.22132774 -8.36479187 86.08021545 C-8.36245361 84.5058424 -8.35273955 82.93146545 -8.33618164 81.35717773 C-8.31255244 78.94285822 -8.31562656 76.5296404 -8.32226562 74.11523438 C-8.31668996 72.5859309 -8.30958078 71.05663208 -8.30078125 69.52734375 C-8.30169266 68.80336899 -8.30260406 68.07939423 -8.30354309 67.33348083 C-8.23104563 62.23104563 -8.23104563 62.23104563 -6 60 C-3.62426758 59.91918945 -3.62426758 59.91918945 -0.64453125 60.11328125 C12.97379856 60.99404979 12.97379856 60.99404979 24.98828125 55.63671875 C28.24760255 52.50757352 31.13693128 49.11674753 33.80859375 45.47460938 C35 44 35 44 37 43 C39.204364 42.77049681 41.41392173 42.58924067 43.625 42.4375 C44.81351563 42.35371094 46.00203125 42.26992188 47.2265625 42.18359375 C48.14179688 42.12300781 49.05703125 42.06242187 50 42 C30.12529991 22.53241667 7.21910393 11.44382079 -20 6 C-20 7.98 -20 9.96 -20 12 C-23.99392891 14.39635735 -27.53776524 15.33943979 -32.125 16.1875 C-38.62234553 17.55223924 -42.95724892 20.29756782 -48.1484375 24.35546875 C-51.92653318 26.53434311 -53.6727115 26.69823668 -58 26 C-60.6327203 24.68935842 -63.11145216 23.20454277 -65.62524414 21.67871094 C-73.48408906 16.73927712 -73.48408906 16.73927712 -82.37207031 15.11914062 C-86.8581692 16.39279646 -90.52189868 18.85857218 -94.21240234 21.65087891 C-95.93513375 22.95104467 -97.69305272 24.11345656 -99.51953125 25.26171875 C-115.14928505 35.39649508 -126.05143072 48.46722017 -136 64 C-135.15370414 65.49068357 -134.30704355 66.98116103 -133.45874023 68.47070312 C-132.73240973 69.74697659 -132.00798137 71.02433433 -131.28540039 72.30273438 C-128.67587583 76.89614521 -125.89879362 81.34411747 -122.93359375 85.71875 C-121.60833145 88.95704784 -121.90717979 90.69154039 -123 94 C-125.46875 96.359375 -125.46875 96.359375 -128.5 98.75 C-132.25821408 102.01536264 -134.2654978 104.60823968 -134.84375 109.64453125 C-135.02526401 112.85937451 -134.96623645 116.03713021 -134.875 119.25390625 C-134.91625 120.49011719 -134.9575 121.72632812 -135 123 C-138.7367843 125.49118953 -140.74451819 125.2065226 -145.1875 125.125 C-146.45980469 125.10695312 -147.73210937 125.08890625 -149.04296875 125.0703125 C-150.01878906 125.04710937 -150.99460938 125.02390625 -152 125 C-151.54838199 128.16766142 -151.08746328 131.33390525 -150.625 134.5 C-150.49867188 135.386875 -150.37234375 136.27375 -150.2421875 137.1875 C-149.63184748 141.33781216 -148.95483597 145.40466523 -147.90625 149.46875 C-147.1234415 152.5190038 -146.80518962 154.88303399 -147 158 C-151.455 158.99 -151.455 158.99 -156 160 C-156.65035371 157.48025747 -157.29537493 154.95934065 -157.9375 152.4375 C-158.21110352 151.38079102 -158.21110352 151.38079102 -158.49023438 150.30273438 C-158.75610352 149.25375977 -158.75610352 149.25375977 -159.02734375 148.18359375 C-159.18968506 147.54993896 -159.35202637 146.91628418 -159.51928711 146.26342773 C-166.35089635 114.09692225 -158.69197422 79.34417788 -141 52 C-132.93941874 39.97855603 -123.49778481 29.76726653 -112 21 C-110.84951172 20.10861328 -110.84951172 20.10861328 -109.67578125 19.19921875 C-96.77675082 9.67277013 -82.38556243 3.27277827 -67 -1 C-65.23462891 -1.51046875 -65.23462891 -1.51046875 -63.43359375 -2.03125 C-43.66315743 -6.71886169 -19.38798446 -5.95646752 0 0 Z M-55.25 6.375 C-56.32109009 6.56412964 -56.32109009 6.56412964 -57.41381836 6.75708008 C-60.88716418 7.4236398 -63.94395922 8.18842944 -67 10 C-65.28428776 11.06368149 -63.55176399 12.10028172 -61.8125 13.125 C-60.84957031 13.70507812 -59.88664062 14.28515625 -58.89453125 14.8828125 C-56.08214755 16.28988317 -56.08214755 16.28988317 -53.390625 15.33203125 C-51.20893099 14.11641416 -49.06144126 12.87615153 -46.9375 11.5625 C-41.59291253 8.51102945 -35.98476228 7.24555966 -30 6 C-30 5.67 -30 5.34 -30 5 C-38.57012105 4.68856895 -46.78777484 4.86517301 -55.25 6.375 Z M31.42797852 62.20043945 C26.57864805 67.5411303 22.88502946 69.03825652 15.68823242 69.48266602 C11.09453771 69.50764131 6.58165457 69.35243497 2 69 C2 75.93 2 82.86 2 90 C4.97 90 7.94 90 11 90 C13.46273568 87.49288164 13.46273568 87.49288164 15.11328125 84.140625 C17.40545811 80.54355933 19.32510035 78.27427828 23.38818359 76.62304688 C27.35907854 75.9520831 31.17372198 75.6958451 35.1875 75.75 C35.87743042 75.74296051 36.56736084 75.73592102 37.27819824 75.72866821 C43.47163476 75.75491159 48.84959719 76.1827743 53.75439453 80.32763672 C58.2773632 86.05324445 61.27552442 92.43679881 63.86621094 99.22924805 C65.02350224 102.05743473 66.22011797 104.51314112 68 107 C71.19375377 107.60557942 71.19375377 107.60557942 74.6875 107.3125 C76.45673828 107.24482422 76.45673828 107.24482422 78.26171875 107.17578125 C79.16535156 107.11777344 80.06898438 107.05976562 81 107 C79.067436 91.77024192 74.31748046 78.22082998 66.95703125 64.83349609 C66.06241363 63.11957305 65.30624271 61.33535954 64.5625 59.55078125 C62.77223682 55.75133683 61.26165941 52.88765696 57.19482422 51.29150391 C44.90358461 48.19771178 38.97403258 53.13911349 31.42797852 62.20043945 Z M-142 75 C-147.93681243 87.62789202 -151.39655872 101.03033445 -152 115 C-149.36 115 -146.72 115 -144 115 C-144.04382813 114.03320312 -144.08765625 113.06640625 -144.1328125 112.0703125 C-144.11200568 101.56287 -144.11200568 101.56287 -140.70703125 96.77734375 C-138.23391932 94.35306619 -135.74118375 92.11434318 -133 90 C-134.37140166 86.32305352 -136.03695801 83.04681411 -138.0625 79.6875 C-138.85333984 78.36298828 -138.85333984 78.36298828 -139.66015625 77.01171875 C-140.10230469 76.34785156 -140.54445312 75.68398437 -141 75 C-141.33 75 -141.66 75 -142 75 Z " fill="#000000" transform="translate(163,4)"/>
<path d="M0 0 C1.07507813 -0.00257812 2.15015625 -0.00515625 3.2578125 -0.0078125 C5.875 0.125 5.875 0.125 6.875 1.125 C8.0589271 11.08690084 5.94397931 19.61057218 -0.02734375 27.703125 C-3.70101332 31.96204327 -7.68383406 35.6830964 -12.125 39.125 C-10.5641891 48.48847926 -7.69087664 57.44258278 -4.86035156 66.47973633 C-4.24210969 68.45996789 -3.63240086 70.44268021 -3.0234375 72.42578125 C-2.65911621 73.59278564 -2.29479492 74.75979004 -1.91943359 75.9621582 C-1.18323699 78.89314378 -0.78432707 81.13110909 -1.125 84.125 C-3.3203125 86.80078125 -3.3203125 86.80078125 -6.25 89.4375 C-7.67699219 90.76201172 -7.67699219 90.76201172 -9.1328125 92.11328125 C-12.49681166 94.37497781 -14.15980414 94.56623099 -18.125 94.125 C-23.74205268 83.36483345 -28.51789606 72.3495805 -33.125 61.125 C-34.775 62.445 -36.425 63.765 -38.125 65.125 C-37.89683594 66.07761719 -37.66867188 67.03023438 -37.43359375 68.01171875 C-37.14613281 69.26597656 -36.85867187 70.52023438 -36.5625 71.8125 C-36.12744141 73.67455078 -36.12744141 73.67455078 -35.68359375 75.57421875 C-35.14113178 79.022456 -34.92100809 80.88594211 -36.125 84.125 C-38.19921875 86.80078125 -38.19921875 86.80078125 -40.8125 89.4375 C-41.66199219 90.32050781 -42.51148438 91.20351562 -43.38671875 92.11328125 C-46.125 94.125 -46.125 94.125 -49.0625 95.05078125 C-54.30475086 93.46607021 -55.93269865 88.61298373 -58.4375 84 C-62.65677614 76.24451857 -66.29488273 71.36505468 -74.125 67.125 C-74.7636499 66.76535156 -75.4022998 66.40570313 -76.06030273 66.03515625 C-78.89412192 64.44967293 -81.73983402 62.88950536 -84.59765625 61.34765625 C-87.125 59.125 -87.125 59.125 -87.75390625 55.67578125 C-87.0207614 51.53647274 -86.0120106 50.12284179 -83 47.25 C-82.23429687 46.48945312 -81.46859375 45.72890625 -80.6796875 44.9453125 C-76.53446884 41.99168575 -73.43861154 41.9238796 -68.4765625 42.68359375 C-67.24679688 42.97363281 -66.01703125 43.26367188 -64.75 43.5625 C-62.88214844 43.99369141 -62.88214844 43.99369141 -60.9765625 44.43359375 C-59.56503906 44.77583984 -59.56503906 44.77583984 -58.125 45.125 C-56.145 42.65 -56.145 42.65 -54.125 40.125 C-55.0536084 39.71137207 -55.9822168 39.29774414 -56.93896484 38.87158203 C-60.38130924 37.33681583 -63.82093364 35.79603611 -67.25976562 34.25341797 C-68.74893788 33.58640642 -70.23884429 32.92103144 -71.72949219 32.25732422 C-73.8710903 31.3034433 -76.00998555 30.34372205 -78.1484375 29.3828125 C-79.15008438 28.93894699 -79.15008438 28.93894699 -80.17196655 28.4861145 C-82.90195177 27.25358243 -84.9880636 26.2619364 -87.125 24.125 C-87.62807089 20.41356882 -87.53307945 18.70991388 -85.3671875 15.60546875 C-84.58601563 14.84878906 -83.80484375 14.09210937 -83 13.3125 C-82.23429687 12.54292969 -81.46859375 11.77335937 -80.6796875 10.98046875 C-77.58713772 8.73435079 -75.93746715 8.39341755 -72.125 8.125 C-69.19576056 8.65741471 -66.41439836 9.5494249 -63.5859375 10.46875 C-62.78266022 10.71669312 -61.97938293 10.96463623 -61.15176392 11.22009277 C-58.5971775 12.00952005 -56.04830166 12.81553381 -53.5 13.625 C-50.94429559 14.43345674 -48.38766778 15.23790754 -45.82681274 16.02990723 C-44.2366292 16.52191229 -42.64935394 17.02344176 -41.06552124 17.53552246 C-36.0808743 19.08827171 -36.0808743 19.08827171 -31.125 18.125 C-29.16343457 16.24972044 -27.33122809 14.36870194 -25.5 12.375 C-18.32161642 4.8531531 -10.66039935 -0.02568771 0 0 Z M-18.50219727 19.25683594 C-20.07228975 20.86753291 -21.6350415 22.48540951 -23.19140625 24.109375 C-24.91040258 25.86628148 -26.62981606 27.62277991 -28.34960938 29.37890625 C-31.03025339 32.13418365 -33.70584634 34.89403164 -36.3737793 37.66162109 C-38.96649931 40.34489261 -41.57751924 43.00924216 -44.19140625 45.671875 C-44.98325821 46.50410583 -45.77511017 47.33633667 -46.59095764 48.19378662 C-52.18717383 53.86518874 -52.18717383 53.86518874 -56.96289062 55.18823242 C-60.52165857 55.11706805 -63.61634345 54.57568468 -67.0625 53.6875 C-68.77759766 53.25630859 -68.77759766 53.25630859 -70.52734375 52.81640625 C-71.38457031 52.58824219 -72.24179688 52.36007813 -73.125 52.125 C-73.785 53.115 -74.445 54.105 -75.125 55.125 C-74.01382813 55.64964844 -72.90265625 56.17429688 -71.7578125 56.71484375 C-59.57781027 62.90546644 -53.91441769 69.86338316 -48.125 82.125 C-46.54594673 80.80210934 -46.54594673 80.80210934 -45.125 79.125 C-45.42720232 76.31689503 -45.42720232 76.31689503 -46.4375 73.3125 C-47.71423892 69.0620907 -48.66260863 65.56342056 -48.125 61.125 C-46.38024533 58.84207824 -44.77791374 57.05140133 -42.71875 55.09765625 C-42.16062622 54.54565048 -41.60250244 53.99364471 -41.02746582 53.4249115 C-39.24024726 51.6645746 -37.43307235 49.92638345 -35.625 48.1875 C-34.43878519 47.02282623 -33.25387476 45.85682237 -32.0703125 44.68945312 C-26.7500715 39.4654939 -21.36574224 34.36465298 -15.70361328 29.51000977 C-10.5155226 24.95819436 -5.60495872 19.63489163 -3.125 13.125 C-3.125 12.135 -3.125 11.145 -3.125 10.125 C-9.41676307 10.125 -14.2215034 15.03453857 -18.50219727 19.25683594 Z M-73.125 18.125 C-73.125 19.115 -73.125 20.105 -73.125 21.125 C-59.76 27.065 -59.76 27.065 -46.125 33.125 C-44.475 31.475 -42.825 29.825 -41.125 28.125 C-47.84763302 25.47347606 -54.68076901 23.42690589 -61.625 21.4375 C-62.73359375 21.11716797 -63.8421875 20.79683594 -64.984375 20.46679688 C-67.69711706 19.68337568 -70.41065685 18.9028521 -73.125 18.125 Z M-22.125 48.125 C-23.445 49.775 -24.765 51.425 -26.125 53.125 C-22.165 62.365 -18.205 71.605 -14.125 81.125 C-13.465 81.125 -12.805 81.125 -12.125 81.125 C-12.73164902 74.19424267 -14.50670896 67.88212426 -16.5625 61.25 C-16.87509766 60.20585938 -17.18769531 59.16171875 -17.50976562 58.0859375 C-18.96649031 52.62254114 -18.96649031 52.62254114 -22.125 48.125 Z " fill="#000000" transform="translate(136.125,29.875)"/>
<path d="M0 0 C1.39671181 -0.01429802 1.39671181 -0.01429802 2.82164001 -0.02888489 C4.33414085 -0.02751778 4.33414085 -0.02751778 5.87719727 -0.02612305 C6.91046646 -0.03040817 7.94373566 -0.0346933 9.00831604 -0.03910828 C11.19645453 -0.04485863 13.38461214 -0.04534667 15.57275391 -0.04101562 C18.9265191 -0.03785788 22.27940076 -0.06129889 25.63305664 -0.08666992 C27.7561024 -0.088943 29.87915054 -0.08964637 32.00219727 -0.08862305 C33.00850693 -0.09783279 34.01481659 -0.10704254 35.05162048 -0.11653137 C35.98591385 -0.11030258 36.92020721 -0.10407379 37.8828125 -0.09765625 C38.70506821 -0.09828568 39.52732391 -0.0989151 40.37449646 -0.0995636 C43.02237064 0.3652933 43.85084932 1.19928318 45.50610352 3.2746582 C46.46209677 4.94552907 47.35642883 6.65237914 48.20532227 8.38012695 C48.69194336 9.36303711 49.17856445 10.34594727 49.67993164 11.35864258 C50.17944336 12.38280273 50.67895508 13.40696289 51.19360352 14.4621582 C51.7047168 15.49791992 52.21583008 16.53368164 52.74243164 17.60083008 C54.00243158 20.15615706 55.2567422 22.71411739 56.50610352 25.2746582 C57.71008789 25.31204102 58.91407227 25.34942383 60.15454102 25.38793945 C61.73009362 25.45358748 63.30561306 25.52003522 64.88110352 25.5871582 C65.67516602 25.6097168 66.46922852 25.63227539 67.28735352 25.65551758 C69.36825932 25.75250895 71.44051683 26.00460645 73.50610352 26.2746582 C75.50610352 29.2746582 75.50610352 29.2746582 75.34008789 31.67041016 C74.38511634 34.65245977 73.10067696 36.48858187 71.16235352 38.94262695 C61.00372088 52.30636112 61.00372088 52.30636112 58.56567383 68.41674805 C58.66576034 72.72341178 58.64445181 75.2793117 55.75610352 78.5871582 C54.78350586 79.41666992 54.78350586 79.41666992 53.79125977 80.26293945 C51.79862919 82.0171356 50.57441039 83.49307673 49.06469727 85.63012695 C45.25940605 90.64867017 41.80437141 94.62361602 35.40161133 95.88745117 C27.88430706 96.51832599 19.95397043 96.61528935 12.50610352 95.2746582 C10.50610352 93.2746582 10.50610352 93.2746582 10.26559448 91.17391968 C10.27225632 89.87486191 10.27225632 89.87486191 10.27905273 88.54956055 C10.2792038 87.56869476 10.27935486 86.58782898 10.2795105 85.57723999 C10.28983307 84.51574738 10.30015564 83.45425476 10.31079102 82.3605957 C10.31362091 81.2758194 10.31645081 80.19104309 10.31936646 79.07339478 C10.33058774 75.59870507 10.35569589 72.12427038 10.38110352 68.6496582 C10.3911308 66.29809942 10.40025708 63.9465366 10.40844727 61.5949707 C10.43053341 55.82144576 10.46403007 50.0480702 10.50610352 44.2746582 C9.5302832 44.29786133 8.55446289 44.32106445 7.54907227 44.3449707 C6.27676758 44.36301758 5.00446289 44.38106445 3.69360352 44.3996582 C1.79674805 44.43446289 1.79674805 44.43446289 -0.13842773 44.4699707 C-3.49389648 44.2746582 -3.49389648 44.2746582 -6.49389648 42.2746582 C-6.78535638 39.24729768 -6.8896682 36.42779064 -6.85717773 33.3996582 C-6.85767624 32.51938965 -6.85817474 31.63912109 -6.85868835 30.73217773 C-6.8563458 28.86936183 -6.84660661 27.00654288 -6.83007812 25.14379883 C-6.80649084 22.28609023 -6.80951496 19.42931433 -6.81616211 16.5715332 C-6.81058539 14.76423595 -6.80347555 12.95694264 -6.79467773 11.1496582 C-6.79558914 10.29130371 -6.79650055 9.43294922 -6.79743958 8.54858398 C-6.72437264 2.46052164 -6.37340781 0.03574706 0 0 Z M2.50610352 10.2746582 C2.50610352 18.1946582 2.50610352 26.1146582 2.50610352 34.2746582 C5.90922852 34.4912207 5.90922852 34.4912207 9.38110352 34.7121582 C16.25610352 35.1496582 16.25610352 35.1496582 18.50610352 36.2746582 C18.83610352 52.4446582 19.16610352 68.6146582 19.50610352 85.2746582 C31.98846513 86.39725136 31.98846513 86.39725136 40.75073242 81.16235352 C41.28875488 80.56003906 41.82677734 79.95772461 42.38110352 79.3371582 C42.97713379 78.71035156 43.57316406 78.08354492 44.18725586 77.43774414 C48.83863842 72.03039566 49.38604805 67.83194573 49.01904297 60.91162109 C48.84492452 51.60736432 54.95316563 44.82732207 60.42041016 37.77075195 C61.60399203 36.44785376 61.60399203 36.44785376 61.50610352 35.2746582 C60.4890332 35.49702148 60.4890332 35.49702148 59.45141602 35.72387695 C55.77719117 36.03430315 53.87903665 35.86766818 50.50610352 34.2746582 C46.58075658 29.33040825 44.10094341 23.32318404 41.59008789 17.57055664 C41.23237305 16.81291016 40.8746582 16.05526367 40.50610352 15.2746582 C40.13187256 14.36466064 39.7576416 13.45466309 39.37207031 12.51708984 C37.60260291 9.89033375 37.60260291 9.89033375 33.95263672 9.70703125 C32.48714759 9.70782133 31.02150757 9.73598799 29.55688477 9.78637695 C28.78426804 9.79345169 28.01165131 9.80052643 27.21562195 9.80781555 C24.7489621 9.83579565 22.28457647 9.89853413 19.81860352 9.9621582 C18.14611027 9.9872367 16.47358143 10.01005067 14.80102539 10.03051758 C10.70113832 10.08138466 6.60616401 10.1792093 2.50610352 10.2746582 Z " fill="#000000" transform="translate(153.493896484375,118.725341796875)"/>
<path d="M0 0 C1.05960938 -0.04060547 2.11921875 -0.08121094 3.2109375 -0.12304688 C8.78588982 -0.14725573 12.40116587 0.19667312 16.703125 3.91796875 C18.84638012 6.04975092 20.60845015 8.16479115 22.4296875 10.58984375 C27.17765209 14.12122462 32.62863154 13.30940207 38.375 13.25 C40.73171301 13.23343931 43.08862593 13.23393433 45.4453125 13.25390625 C46.48703613 13.24302979 47.52875977 13.23215332 48.60205078 13.22094727 C51.25 13.6875 51.25 13.6875 53.09228516 15.38232422 C54.47152066 18.12857931 54.6091471 19.93833489 54.578125 23.00390625 C54.57296875 24.01517578 54.5678125 25.02644531 54.5625 26.06835938 C54.541875 27.11830078 54.52125 28.16824219 54.5 29.25 C54.49484375 30.30380859 54.4896875 31.35761719 54.484375 32.44335938 C54.40494363 40.22266911 54.40494363 40.22266911 53.25 43.6875 C51.05576939 45.56494765 48.86372272 47.32661334 46.5625 49.0625 C44.71745051 50.47490381 42.8746855 51.88956464 41.04077148 53.31640625 C39.86715923 54.21497563 38.67402517 55.08872499 37.46118164 55.93359375 C35.56344184 57.26210437 35.56344184 57.26210437 33.25 59.6875 C32.72177195 62.73231152 32.72177195 62.73231152 33.0625 65.9375 C32.9344754 70.13386173 32.77477971 72.05154613 30.07421875 75.32421875 C27.22956037 77.64165137 24.32346331 79.68533526 21.25 81.6875 C20.40695313 82.32042969 19.56390625 82.95335937 18.6953125 83.60546875 C13.03264749 87.77143611 13.03264749 87.77143611 9.5546875 87.3984375 C7.25 86.6875 7.25 86.6875 6.25 85.6875 C6.1571274 84.27524954 6.13253228 82.85841066 6.13647461 81.44311523 C6.13655014 80.54225693 6.13662567 79.64139862 6.13670349 78.71324158 C6.14186478 77.73408279 6.14702606 76.75492401 6.15234375 75.74609375 C6.1537587 74.74868668 6.15517365 73.7512796 6.15663147 72.72364807 C6.16224886 69.52406876 6.17480429 66.32455831 6.1875 63.125 C6.19251276 60.96158955 6.19707605 58.79817801 6.20117188 56.63476562 C6.21222393 51.31898675 6.22897896 46.00324829 6.25 40.6875 C5.69014404 40.70321045 5.13028809 40.7189209 4.5534668 40.73510742 C2.0149141 40.79749848 -0.52347729 40.83650218 -3.0625 40.875 C-4.38411133 40.91270508 -4.38411133 40.91270508 -5.73242188 40.95117188 C-7.00375977 40.96567383 -7.00375977 40.96567383 -8.30078125 40.98046875 C-9.08106689 40.9961792 -9.86135254 41.01188965 -10.6652832 41.02807617 C-13.3131016 40.59550718 -14.16968291 39.8268203 -15.75 37.6875 C-16.06038354 35.14760621 -16.19434424 32.85715364 -16.18359375 30.31640625 C-16.1888356 29.5976683 -16.19407745 28.87893036 -16.19947815 28.13841248 C-16.20589606 26.61955048 -16.20456425 25.10063877 -16.19604492 23.58178711 C-16.18754142 21.26130314 -16.216283 18.94328714 -16.24804688 16.62304688 C-16.24965924 15.14583407 -16.24908069 13.66861692 -16.24609375 12.19140625 C-16.25732773 11.49962784 -16.26856171 10.80784943 -16.28013611 10.09510803 C-16.23316528 6.83702661 -15.93611027 4.95406071 -14.05395508 2.25830078 C-9.7751907 -0.65889431 -5.02205248 -0.00903247 0 0 Z M-5.75 10.6875 C-5.75 17.2875 -5.75 23.8875 -5.75 30.6875 C0.08350521 30.97645044 0.08350521 30.97645044 5.91748047 31.25561523 C6.64338379 31.29372314 7.36928711 31.33183105 8.1171875 31.37109375 C8.86081543 31.40775146 9.60444336 31.44440918 10.37060547 31.48217773 C12.25 31.6875 12.25 31.6875 14.25 32.6875 C14.745 52.4875 14.745 52.4875 15.25 72.6875 C19.21 70.2125 19.21 70.2125 23.25 67.6875 C23.90849429 64.48128449 23.90849429 64.48128449 23.375 61.0625 C23.42143042 54.74133007 23.42143042 54.74133007 25.53955078 52.04736328 C29.91411531 47.95986742 35.02942797 44.78440121 40.03222656 41.52709961 C43.22058848 39.22727439 44.18760367 38.06562179 44.8359375 34.13671875 C44.73152344 32.27466797 44.73152344 32.27466797 44.625 30.375 C44.57085937 29.12074219 44.51671875 27.86648437 44.4609375 26.57421875 C44.35652344 25.14529297 44.35652344 25.14529297 44.25 23.6875 C43.31317383 23.69704712 43.31317383 23.69704712 42.35742188 23.70678711 C39.48710761 23.71555102 36.61994449 23.67064161 33.75 23.625 C32.27660156 23.64143555 32.27660156 23.64143555 30.7734375 23.65820312 C24.11789143 23.50290705 20.66984346 22.24120209 15.9284668 17.54394531 C14.50838186 15.97327973 13.11966365 14.37434098 11.73828125 12.76953125 C8.39125966 9.96896216 5.57987209 10.11935388 1.4375 10.375 C-0.934375 10.478125 -3.30625 10.58125 -5.75 10.6875 Z " fill="#000000" transform="translate(76.75,139.3125)"/>
</svg>
