<?xml version="1.0" standalone="no"?>
<!DOCTYPE svg PUBLIC "-//W3C//DTD SVG 20010904//EN"
 "http://www.w3.org/TR/2001/REC-SVG-20010904/DTD/svg10.dtd">
<svg version="1.0" xmlns="http://www.w3.org/2000/svg"
 width="512.000000pt" height="512.000000pt" viewBox="0 0 512.000000 512.000000"
 preserveAspectRatio="xMidYMid meet">

<g transform="translate(0.000000,512.000000) scale(0.100000,-0.100000)"
fill="#000000" stroke="none">
<path d="M360 5103 c-27 -10 -65 -37 -96 -68 -85 -85 -84 -77 -84 -657 l0
-498 75 0 75 0 0 495 c0 547 -1 536 63 575 31 19 58 20 1110 20 l1077 0 0 75
0 75 -1087 -1 c-964 0 -1093 -2 -1133 -16z"/>
<path d="M2730 5046 l0 -76 176 0 c193 0 226 -8 261 -58 17 -25 18 -75 21
-832 2 -443 0 -825 -3 -849 -5 -32 -16 -54 -40 -78 l-33 -33 -1351 0 -1351 0
-38 34 -37 34 -3 271 -3 271 -75 0 -75 0 3 -282 3 -283 30 -54 c31 -56 88
-106 148 -128 23 -8 162 -12 475 -12 l442 -1 0 -74 0 -73 -72 -8 c-125 -12
-198 -58 -245 -153 -26 -53 -28 -66 -28 -177 l0 -120 825 0 825 0 -1 115 c-1
95 -5 124 -23 166 -43 101 -132 158 -260 170 l-72 7 3 71 3 71 455 5 c443 5
456 6 496 27 48 26 107 88 131 140 17 35 18 96 18 903 0 858 0 865 -21 911
-29 63 -74 110 -131 139 -46 24 -58 25 -250 28 l-203 3 0 -75z m-650 -2151 l0
-75 -325 0 -325 0 0 68 c0 38 3 72 7 75 3 4 150 7 325 7 l318 0 0 -75z m255
-235 c56 -13 95 -58 95 -110 l0 -40 -670 0 c-587 0 -671 2 -676 15 -17 43 39
121 96 135 49 11 1106 12 1155 0z"/>
<path d="M3640 3895 l0 -1026 -75 -99 -75 -99 0 -156 0 -155 325 0 325 0 0
-34 c0 -22 -9 -45 -24 -63 l-24 -28 -401 -3 -401 -3 0 -74 0 -75 388 0 c227 0
406 5 432 11 102 23 168 101 177 209 l6 60 323 0 324 0 0 153 -1 152 -74 99
-75 99 0 714 0 713 -75 0 -75 0 0 -685 0 -685 -425 0 -425 0 0 925 0 925 100
0 100 0 0 -665 0 -665 75 0 75 0 0 665 0 665 75 0 75 0 0 -665 0 -665 75 0 75
0 0 665 0 665 100 0 100 0 0 -165 0 -165 75 0 75 0 0 240 0 240 -575 0 -575 0
0 -1025z m1092 -1205 c55 -71 58 -78 56 -125 l-3 -50 -572 -3 -573 -2 0 55 c0
52 4 61 56 130 l57 75 460 -2 461 -3 58 -75z"/>
<path d="M480 4045 l0 -775 1280 0 1280 0 0 775 0 775 -1280 0 -1280 0 0 -775z
m2410 0 l0 -625 -1130 0 -1130 0 0 625 0 625 1130 0 1130 0 0 -625z"/>
<path d="M1380 4045 l0 -75 75 0 75 0 0 75 0 75 -75 0 -75 0 0 -75z"/>
<path d="M1680 4045 l0 -75 75 0 75 0 0 75 0 75 -75 0 -75 0 0 -75z"/>
<path d="M1987 4113 c-4 -3 -7 -37 -7 -75 l0 -68 75 0 75 0 0 75 0 75 -68 0
c-38 0 -72 -3 -75 -7z"/>
<path d="M3990 3215 l0 -75 75 0 75 0 0 75 0 75 -75 0 -75 0 0 -75z"/>
<path d="M4290 3215 l0 -75 75 0 75 0 0 75 0 75 -75 0 -75 0 0 -75z"/>
<path d="M2070 2214 c-80 -35 -133 -116 -133 -204 0 -69 20 -116 68 -163 56
-54 110 -67 287 -67 192 0 188 3 188 -150 l0 -110 -66 0 c-65 0 -67 1 -121 50
-63 55 -172 112 -252 130 -76 18 -230 8 -309 -20 -141 -50 -284 -191 -330
-329 -11 -33 -53 -251 -93 -483 -69 -407 -72 -426 -60 -491 15 -92 52 -166
116 -235 139 -150 355 -184 538 -85 83 46 143 122 267 346 l115 206 275 0 275
0 115 -206 c124 -224 184 -300 267 -346 183 -99 399 -65 538 85 63 68 99 140
116 231 12 64 10 81 -37 357 -40 242 -51 290 -65 290 -22 0 -121 -19 -127 -24
-2 -3 17 -129 43 -281 41 -242 45 -283 36 -326 -13 -61 -32 -98 -73 -145 -81
-91 -225 -117 -341 -61 -31 16 -71 45 -88 65 -17 20 -90 143 -163 272 l-133
235 -363 0 -363 0 -133 -235 c-73 -129 -146 -252 -163 -272 -17 -20 -57 -49
-88 -65 -77 -37 -185 -40 -250 -5 -109 57 -168 150 -166 261 1 105 130 826
158 889 34 74 115 156 194 195 61 30 72 32 171 32 97 0 110 -2 170 -31 36 -17
95 -58 132 -93 l66 -61 272 0 272 0 66 61 c37 35 96 76 132 93 60 29 73 31
170 31 93 0 111 -3 163 -27 71 -33 155 -112 191 -178 15 -27 34 -82 42 -122 8
-40 17 -74 19 -76 2 -2 35 2 74 8 l70 13 -5 31 c-24 134 -60 221 -127 306 -52
66 -159 142 -242 171 -75 27 -230 37 -306 19 -80 -18 -189 -75 -252 -130 -54
-49 -57 -50 -120 -50 l-64 0 -5 118 c-6 127 -20 177 -66 225 -53 57 -73 61
-264 67 -166 5 -179 6 -199 27 -27 27 -29 75 -4 103 17 19 30 20 377 20 l358
0 0 75 0 75 -367 0 c-306 -1 -374 -3 -403 -16z"/>
<path d="M2990 2155 l0 -75 75 0 75 0 0 75 0 75 -75 0 -75 0 0 -75z"/>
<path d="M3140 1255 l0 -76 73 3 72 3 3 73 3 72 -76 0 -75 0 0 -75z"/>
<path d="M1827 1303 c-4 -3 -7 -44 -7 -90 l0 -83 -85 0 -85 0 0 -75 0 -75 85
0 85 0 0 -85 0 -85 75 0 75 0 0 85 0 85 90 0 90 0 0 75 0 74 -87 3 -88 3 -3
88 -3 87 -68 0 c-37 0 -71 -3 -74 -7z"/>
<path d="M2940 1055 l0 -76 73 3 72 3 3 73 3 72 -76 0 -75 0 0 -75z"/>
<path d="M3340 1055 l0 -75 75 0 75 0 0 75 0 75 -75 0 -75 0 0 -75z"/>
<path d="M3140 855 l0 -75 75 0 75 0 0 75 0 75 -75 0 -75 0 0 -75z"/>
</g>
</svg>
