<?xml version="1.0" standalone="no"?>
<!DOCTYPE svg PUBLIC "-//W3C//DTD SVG 20010904//EN"
 "http://www.w3.org/TR/2001/REC-SVG-20010904/DTD/svg10.dtd">
<svg version="1.0" xmlns="http://www.w3.org/2000/svg"
 width="512.000000pt" height="512.000000pt" viewBox="0 0 512.000000 512.000000"
 preserveAspectRatio="xMidYMid meet">

<g transform="translate(0.000000,512.000000) scale(0.100000,-0.100000)"
fill="#000000" stroke="none">
<path d="M4345 5106 c-119 -23 -212 -68 -295 -143 -28 -25 -856 -965 -1841
-2089 -1706 -1947 -1792 -2044 -1817 -2036 -15 4 -59 7 -97 7 -217 -1 -359
-215 -265 -398 12 -24 99 -120 198 -219 199 -200 230 -220 339 -220 80 -1 156
35 212 98 67 76 80 145 59 301 -2 18 371 349 2042 1813 1125 985 2064 1812
2088 1838 159 173 195 428 91 640 -57 117 -185 255 -305 332 -108 68 -281 100
-409 76z m246 -221 c67 -24 132 -70 199 -141 95 -102 131 -188 131 -315 0 -85
-22 -157 -70 -225 -24 -34 -409 -380 -1126 -1013 l-1090 -961 -195 195 -194
194 25 28 c14 15 446 504 958 1086 513 582 952 1072 974 1089 51 37 114 66
170 78 55 12 163 4 218 -15z m-2293 -2588 l183 -183 -802 -704 c-440 -388
-804 -706 -808 -708 -3 -1 -44 36 -91 83 -65 65 -82 89 -75 100 18 25 1400
1594 1405 1595 3 0 87 -82 188 -183z m-1624 -1804 c-41 -36 -74 -67 -74 -70 0
-3 18 -25 40 -50 23 -27 40 -56 40 -70 0 -55 -46 -102 -99 -103 -31 0 -50 15
-189 153 -85 83 -160 165 -167 180 -26 62 18 127 87 127 33 0 47 -7 92 -50
l53 -50 68 76 68 75 78 -77 77 -77 -74 -64z"/>
<path d="M3775 1743 c-174 -37 -322 -120 -447 -251 -162 -169 -240 -365 -240
-602 0 -491 381 -873 872 -873 419 0 772 286 856 692 18 89 20 253 4 341 -62
344 -336 623 -682 694 -96 20 -269 20 -363 -1z m79 -230 c-42 -237 -237 -445
-477 -509 -76 -20 -80 -19 -72 19 37 172 141 327 283 420 82 54 189 96 265
106 4 1 5 -16 1 -36z m256 22 c19 -3 60 -16 90 -28 207 -80 363 -263 410 -480
12 -57 8 -67 -30 -67 -38 0 -181 -45 -245 -77 -153 -77 -301 -226 -380 -382
-36 -73 -85 -219 -85 -256 0 -13 -4 -26 -9 -29 -19 -12 -119 17 -209 60 -155
75 -288 224 -348 390 -39 105 -32 134 32 134 45 0 209 60 284 104 102 59 209
161 275 261 76 113 103 184 140 358 4 21 10 27 23 23 9 -2 33 -7 52 -11z m505
-797 c-47 -224 -208 -414 -415 -491 -66 -25 -140 -42 -140 -33 0 33 30 127 61
192 83 171 237 299 419 348 81 22 83 21 75 -16z"/>
</g>
</svg>
