<?xml version="1.0" standalone="no"?>
<!DOCTYPE svg PUBLIC "-//W3C//DTD SVG 20010904//EN"
 "http://www.w3.org/TR/2001/REC-SVG-20010904/DTD/svg10.dtd">
<svg version="1.0" xmlns="http://www.w3.org/2000/svg"
 width="128.000000pt" height="128.000000pt" viewBox="0 0 128.000000 128.000000"
 preserveAspectRatio="xMidYMid meet">
<metadata>
Created by potrace 1.16, written by Peter Selinger 2001-2019
</metadata>
<g transform="translate(0.000000,128.000000) scale(0.100000,-0.100000)"
fill="#000000" stroke="none">
<path d="M508 1103 c-98 -98 -181 -186 -184 -196 -5 -15 15 -40 82 -108 l89
-89 -85 -85 c-55 -55 -92 -85 -106 -85 -12 0 -51 13 -86 30 -34 16 -71 30 -82
30 -10 0 -45 -12 -77 -26 -42 -19 -59 -32 -59 -46 0 -27 23 -32 59 -14 69 36
74 36 152 0 41 -18 83 -34 94 -34 11 0 49 14 83 30 79 37 98 37 172 0 33 -16
69 -30 80 -30 11 0 47 14 80 30 74 37 93 37 172 0 34 -16 72 -30 83 -30 11 0
53 16 94 34 78 36 83 36 152 0 36 -18 59 -13 59 14 0 14 -17 27 -59 46 -32 14
-67 26 -77 26 -11 0 -48 -14 -83 -31 l-65 -30 -190 190 -191 191 108 108 c59
59 107 114 107 122 0 19 -110 130 -129 130 -8 0 -95 -80 -193 -177z m227 77
l29 -30 -107 -109 c-59 -59 -107 -114 -107 -121 0 -8 73 -88 163 -178 89 -90
152 -159 140 -153 -34 17 -63 13 -131 -19 -35 -17 -72 -30 -82 -30 -10 0 -47
13 -82 30 -34 16 -70 30 -78 30 -8 0 6 21 33 48 26 26 47 54 47 62 0 8 -39 54
-87 102 l-88 88 155 155 c85 85 157 155 161 155 3 0 18 -14 34 -30z"/>
<path d="M865 1056 c-42 -18 -93 -79 -101 -121 -20 -110 56 -206 165 -207 120
0 201 99 171 211 -28 104 -139 159 -235 117z m153 -81 c26 -28 32 -43 32 -80
0 -37 -5 -50 -35 -80 -29 -29 -43 -35 -76 -35 -129 0 -170 166 -56 224 47 24
95 14 135 -29z"/>
<path d="M53 392 c-35 -17 -53 -32 -53 -44 0 -30 23 -31 80 -4 59 27 47 29
163 -24 56 -25 80 -22 170 21 55 26 63 27 91 14 17 -7 55 -24 84 -36 l52 -23
53 23 c28 12 66 29 83 36 28 13 36 12 91 -14 90 -43 114 -46 170 -21 116 53
104 51 163 24 57 -27 80 -26 80 4 0 21 -96 72 -136 72 -13 0 -51 -13 -84 -30
-33 -16 -71 -30 -85 -30 -14 0 -52 14 -85 30 -33 17 -70 30 -82 30 -13 0 -52
-14 -86 -30 -35 -17 -72 -30 -82 -30 -10 0 -47 13 -82 30 -34 16 -73 30 -86
30 -12 0 -49 -13 -82 -30 -33 -16 -71 -30 -85 -30 -14 0 -52 14 -85 30 -72 36
-99 37 -167 2z"/>
</g>
</svg>
