<?xml version="1.0" standalone="no"?>
<!DOCTYPE svg PUBLIC "-//W3C//DTD SVG 20010904//EN"
 "http://www.w3.org/TR/2001/REC-SVG-20010904/DTD/svg10.dtd">
<svg version="1.0" xmlns="http://www.w3.org/2000/svg"
 width="512.000000pt" height="512.000000pt" viewBox="0 0 512.000000 512.000000"
 preserveAspectRatio="xMidYMid meet">
<metadata>
Created by potrace 1.16, written by Peter Selinger 2001-2019
</metadata>
<g transform="translate(0.000000,512.000000) scale(0.100000,-0.100000)"
fill="#000000" stroke="none">
<path d="M3695 5084 c-717 -189 -1412 -582 -1963 -1110 -83 -80 -92 -93 -92
-125 0 -45 34 -79 78 -79 27 0 55 21 173 128 441 397 901 688 1394 881 247 97
538 181 622 181 61 -1 93 -37 93 -108 0 -51 -20 -68 -105 -87 -228 -52 -561
-174 -812 -297 -928 -455 -1683 -1225 -2053 -2093 -51 -119 -143 -395 -160
-480 -10 -49 -21 -69 -61 -113 -49 -54 -101 -150 -114 -210 -6 -31 -8 -32 -61
-32 -62 0 -60 -7 -39 116 75 429 273 922 543 1348 81 128 261 373 347 471 82
94 91 122 54 169 -16 20 -29 26 -60 26 -47 0 -53 -6 -193 -180 -384 -478 -655
-1006 -796 -1555 -38 -149 -80 -372 -80 -425 0 -21 -10 -37 -40 -60 -51 -41
-97 -107 -121 -175 -12 -35 -32 -181 -60 -431 -48 -447 -49 -526 -4 -619 37
-76 113 -153 190 -191 56 -27 68 -29 175 -29 104 0 121 3 172 27 99 46 179
136 215 241 8 22 29 179 47 349 19 170 36 311 38 313 2 3 40 -3 84 -12 103
-21 217 -8 312 37 l66 31 39 -38 c21 -21 47 -50 58 -64 18 -25 18 -29 3 -74
-12 -33 -15 -68 -12 -118 8 -119 64 -204 170 -257 111 -55 252 -38 343 42 25
22 58 64 73 92 24 45 27 62 27 146 0 87 -3 100 -30 149 -59 107 -176 168 -301
158 -34 -2 -80 -13 -101 -23 l-38 -19 -52 59 -53 58 20 28 c40 57 80 157 91
231 29 183 -50 380 -195 489 l-56 42 29 37 c108 137 241 392 310 593 78 229
137 516 162 789 l12 136 76 12 c560 93 1289 471 1733 900 l118 113 -2 -842 -3
-843 -59 -14 c-185 -42 -364 -193 -472 -396 -38 -73 -88 -210 -98 -274 -6 -30
-22 -55 -66 -102 -117 -123 -187 -319 -197 -558 -7 -159 4 -209 54 -253 29
-26 42 -30 91 -30 31 0 97 11 145 24 l88 23 54 -106 c29 -58 74 -142 99 -186
25 -44 46 -85 46 -92 0 -6 -57 -80 -127 -164 -69 -84 -132 -164 -139 -178 -31
-59 -4 -131 65 -178 l34 -23 566 0 c532 0 568 1 601 19 79 42 103 134 54 206
-20 30 -133 168 -242 297 -13 15 -10 26 29 95 23 43 70 130 103 194 l61 116
85 -23 c155 -43 235 -28 271 49 15 34 19 66 19 163 0 262 -65 461 -197 604
-48 53 -56 68 -73 137 -77 322 -304 577 -569 637 l-56 13 -3 933 c-2 927 -2
933 18 947 11 8 32 37 46 66 21 40 26 65 26 122 0 115 -44 194 -134 239 -75
37 -164 35 -333 -10z m25 -570 c-113 -115 -356 -304 -555 -430 -278 -176 -641
-340 -924 -418 l-95 -26 35 30 c435 380 903 657 1414 836 83 29 154 53 160 53
5 1 -11 -20 -35 -45z m-1930 -1359 c-69 -484 -209 -853 -437 -1146 l-43 -55
-83 4 c-45 2 -102 -1 -127 -7 -24 -5 -46 -8 -48 -7 -2 2 17 65 43 140 129 388
348 772 643 1129 35 43 66 77 67 75 2 -2 -5 -61 -15 -133z m2292 -536 c158
-33 301 -157 393 -339 28 -56 75 -187 75 -209 0 -11 -179 -50 -316 -69 -106
-15 -119 -20 -137 -44 -28 -38 -17 -92 25 -114 28 -14 41 -14 152 1 66 8 158
25 204 35 46 11 86 20 89 20 3 0 3 -55 0 -122 -12 -238 -81 -444 -244 -734
-88 -158 -105 -219 -80 -285 10 -24 67 -104 128 -177 61 -74 109 -136 106
-138 -2 -2 -223 -3 -491 -2 l-486 3 111 135 c120 144 139 177 139 239 0 53
-16 92 -109 259 -126 228 -195 424 -220 627 -11 90 -15 195 -7 195 3 0 44 -9
91 -21 83 -19 274 -48 323 -49 35 0 72 43 72 83 0 55 -29 73 -142 87 -53 6
-145 22 -205 36 -59 13 -111 24 -114 24 -11 0 10 79 42 158 115 289 359 452
601 401z m-2729 -854 c145 -68 235 -233 208 -380 -11 -58 -42 -138 -58 -148
-4 -3 -64 57 -132 134 -72 82 -133 142 -147 145 -56 14 -115 -44 -100 -98 3
-13 60 -84 126 -158 66 -74 120 -138 120 -142 0 -8 -80 -34 -130 -42 -49 -8
-144 11 -203 41 -64 32 -129 100 -164 171 -24 49 -28 69 -28 147 0 76 4 98 26
146 47 99 128 171 232 205 65 22 181 12 250 -21z m1907 -86 c9 -71 51 -263 67
-305 4 -12 -36 -27 -131 -50 l-29 -7 6 114 c4 63 14 143 22 179 17 71 47 161
52 156 2 -1 8 -41 13 -87z m1531 -83 c10 -51 19 -133 19 -185 l0 -93 -27 7
c-16 3 -51 13 -79 21 l-52 15 15 47 c22 72 51 219 59 297 l7 70 20 -44 c11
-25 28 -85 38 -135z m-4101 -271 c16 -77 73 -186 129 -246 l47 -51 -37 -342
c-21 -192 -43 -357 -51 -376 -38 -90 -129 -150 -228 -150 -131 1 -239 107
-240 237 0 94 79 792 95 829 40 96 123 153 227 154 l47 0 11 -55z m1261 -478
c74 -50 97 -125 61 -197 -63 -125 -256 -95 -279 44 -7 47 2 78 34 117 51 60
126 75 184 36z"/>
<path d="M4174 2408 c-22 -10 -44 -47 -44 -73 0 -27 22 -63 47 -74 35 -16 57
-14 87 10 21 16 26 29 26 64 0 35 -5 48 -26 64 -29 23 -57 26 -90 9z"/>
</g>
</svg>
