<?xml version="1.0" standalone="no"?>
<!DOCTYPE svg PUBLIC "-//W3C//DTD SVG 20010904//EN"
 "http://www.w3.org/TR/2001/REC-SVG-20010904/DTD/svg10.dtd">
<svg version="1.0" xmlns="http://www.w3.org/2000/svg"
 width="512.000000pt" height="512.000000pt" viewBox="0 0 512.000000 512.000000"
 preserveAspectRatio="xMidYMid meet">
<metadata>
Created by potrace 1.16, written by Peter Selinger 2001-2019
</metadata>
<g transform="translate(0.000000,512.000000) scale(0.100000,-0.100000)"
fill="#000000" stroke="none">
<path d="M1209 5106 c-87 -31 -149 -93 -177 -175 -8 -24 -12 -165 -12 -465 l0
-431 -397 -109 c-219 -60 -420 -115 -446 -123 -59 -17 -132 -81 -158 -138 -42
-91 -55 -36 441 -1844 505 -1843 468 -1727 568 -1784 102 -57 80 -61 838 147
374 102 687 186 695 186 8 0 319 -84 690 -186 755 -208 738 -205 840 -147 97
54 91 38 299 799 105 379 190 702 190 717 0 37 -40 77 -78 77 -63 0 -60 9
-252 -695 -99 -363 -187 -679 -196 -703 -15 -40 -52 -72 -86 -72 -27 -1 -1088
294 -1081 300 5 4 121 37 258 74 292 80 320 90 371 145 l39 41 161 0 c179 0
225 10 287 61 20 17 49 52 65 77 l27 47 5 1481 5 1481 265 -73 c146 -40 326
-90 400 -110 153 -42 190 -67 190 -125 0 -18 -100 -395 -221 -838 -122 -443
-222 -822 -221 -841 0 -43 31 -70 78 -70 43 0 69 26 84 82 7 24 108 395 226
824 231 845 235 863 195 949 -23 49 -84 109 -131 128 -19 8 -223 65 -452 128
l-418 114 0 176 c0 161 -2 177 -19 193 -28 25 -88 23 -115 -3 l-21 -22 -3
-1710 c-2 -1564 -4 -1712 -19 -1735 -37 -57 39 -54 -1363 -54 -1401 0 -1326
-3 -1363 54 -15 22 -17 93 -19 640 -3 613 -3 616 -24 637 -27 26 -87 28 -115
3 -18 -17 -19 -36 -19 -653 0 -597 2 -639 19 -677 26 -58 75 -109 129 -136
l47 -23 989 -5 989 -5 -1014 -278 c-558 -153 -1020 -277 -1027 -277 -26 0 -68
29 -80 54 -20 45 -912 3312 -912 3343 0 39 31 79 73 92 19 6 203 58 410 115
l377 103 0 -698 c0 -686 0 -699 20 -719 28 -28 90 -27 116 1 18 20 19 59 24
1228 5 1326 1 1235 66 1266 28 13 195 15 1314 15 1389 0 1324 3 1360 -52 10
-15 17 -62 20 -137 6 -103 9 -116 29 -132 31 -25 86 -24 112 2 19 19 20 30 17
152 -2 106 -7 140 -22 171 -25 50 -75 100 -129 128 l-42 23 -1330 2 c-1070 2
-1337 0 -1366 -11z"/>
<path d="M1623 4790 c-12 -5 -28 -19 -36 -32 -25 -39 -247 -632 -247 -659 0
-56 57 -91 111 -69 20 9 35 29 55 76 l27 65 130 -3 129 -3 20 -50 c25 -66 61
-99 101 -91 44 9 67 34 67 72 0 45 -226 643 -253 671 -25 26 -72 37 -104 23z"/>
<path d="M2487 3749 c-207 -30 -367 -215 -367 -424 l0 -62 -75 -37 c-177 -88
-276 -272 -246 -461 44 -285 325 -447 603 -350 27 9 50 21 54 26 17 27 24 -2
24 -96 l0 -105 -113 0 c-106 0 -115 -2 -135 -23 -32 -34 -30 -89 4 -116 26
-20 38 -21 324 -21 286 0 298 1 324 21 35 27 36 86 3 117 -21 20 -34 22 -135
22 l-112 0 0 105 c0 94 7 123 24 96 4 -5 27 -17 54 -26 278 -97 559 65 603
350 30 189 -69 373 -246 461 l-75 37 0 63 c0 158 -98 313 -245 387 -68 34
-179 49 -268 36z m188 -180 c128 -60 193 -204 154 -343 -20 -71 9 -105 106
-121 58 -10 106 -37 153 -88 56 -61 75 -108 75 -187 2 -261 -323 -384 -489
-185 -72 87 -82 95 -114 95 -32 0 -42 -8 -114 -95 -166 -199 -491 -76 -489
185 0 79 19 126 75 187 47 51 95 78 153 88 97 16 126 50 106 121 -45 163 48
322 214 365 43 11 121 1 170 -22z"/>
<path d="M3160 1790 c-11 -11 -20 -33 -20 -50 0 -25 81 -252 210 -588 34 -87
59 -112 114 -112 55 0 71 31 196 358 66 173 120 327 120 343 0 41 -32 69 -79
69 -47 0 -71 -25 -96 -101 l-17 -49 -128 0 -129 0 -21 58 c-12 31 -29 65 -37
75 -23 24 -87 23 -113 -3z"/>
</g>
</svg>
