<svg xmlns="http://www.w3.org/2000/svg" height="40px" viewBox="0 -960 960 960" width="40px" fill="#000000"><path d="M480-80q-106 0-173-31.83-67-31.84-67-81.5 0-25.34 20.17-47.84 20.16-22.5 55.5-37.5l51 47.67q-16.34 4.67-32.5 15.33Q318-205 306.67-193.33q15.66 18.66 67 32.66 51.33 14 106.33 14t106.83-14q51.84-14 67.5-32.66-11.66-12.67-29.33-23-17.67-10.34-34.33-15l51.33-48q37.33 15.33 57.67 37.83Q720-219 720-193.33q0 49.66-67 81.5Q586-80 480-80Zm1-203.33q105.67-78.34 159-158.17 53.33-79.83 53.33-152.5 0-108.67-69-164T480-813.33q-74.67 0-144 55.33t-69.33 164q0 71 53 147.83 53 76.84 161.33 162.84ZM480-200Q339.67-304 269.83-402 200-500 200-594q0-71 25.5-124.5t65.83-89.5q40.34-36 90-54Q431-880 480-880t99 18q50 18 90 54t65.5 89.5Q760-665 760-594q0 94-69.5 192T480-200Zm0-320q33 0 56.5-23.5T560-600q0-33-23.5-56.5T480-680q-33 0-56.5 23.5T400-600q0 33 23.5 56.5T480-520Zm0-80Z"/></svg>